<svg xmlns="http://www.w3.org/2000/svg"  viewBox="0 0 347 86">
    <defs>
        <linearGradient id="a" x1="2.914%" x2="99.089%" y1="64.563%" y2="68.094%">
            <stop offset="0%" stop-color="#E4ECF3"/>
            <stop offset="100%" stop-color="#C4D4E3"/>
        </linearGradient>
    </defs>
    <g fill="none" fill-rule="evenodd">
        <path fill="#F6F8FA" d="M173.5 2.363c-49.36 0-76.521 3.432-121.963 24.057C34.301 34.67 14.268 59.64.447 71.877c-3.59 3.178 15.163 7.217 30.833 13.405 58.76 21.312 117.39 21.406 180.014 15.041C238.352 97.574 333.667 84.83 347 71.423c-21.823-32.79-124.14-69.06-173.5-69.06z"/>
        <path fill="url(#a)" d="M325.854 66.958c-11.627 10.166-92.47 17.378-115.396 18.74-53.063 3.157-148.316-61.06-133.534-67.048C115.864 3.75 166.237-.06 199.67 6.69c33.434 6.75 108.65 33.787 126.184 60.267z" transform="translate(0 1)"/>
        <path fill-rule="nonzero" stroke="#6680AD" stroke-width="1.5" d="M2.407 67.92C35.772 28.28 81.937 6.358 140.901 2.157c58.965-4.2 120.835 13.664 185.61 53.595"/>
    </g>
</svg>
