<svg xmlns="http://www.w3.org/2000/svg"  viewBox="0 0 603 178">
    <defs>
        <linearGradient id="a" x1="2.914%" x2="99.089%" y1="64.563%" y2="68.094%">
            <stop offset="0%" stop-color="#E4ECF3"/>
            <stop offset="100%" stop-color="#C4D4E3"/>
        </linearGradient>
    </defs>
    <g fill="none" fill-rule="evenodd">
        <path fill="#F6F8FA" d="M301.5 2.356c-85.774 0-132.975 5.931-211.941 41.574C59.606 58.188 24.794 101.34.776 122.486c-6.238 5.492 26.35 12.473 53.58 23.166 102.112 36.83 203.994 36.994 312.821 25.994 47.02-4.751 212.653-26.776 235.823-49.943C565.076 65.036 387.274 2.356 301.5 2.356z"/>
        <path fill="url(#a)" d="M566.254 115.714c-20.205 17.568-160.691 30.031-200.53 32.386-92.21 5.455-257.737-105.522-232.05-115.87C201.345 6.48 288.879-.103 346.979 11.563c58.099 11.665 188.806 58.388 219.276 104.15z"/>
        <path stroke="#6680AD" stroke-width="2" d="M4.184 115.649C62.163 47.143 142.385 9.259 244.852 2c102.466-7.26 209.98 23.614 322.543 92.62"/>
    </g>
</svg>
