<svg xmlns="http://www.w3.org/2000/svg"  viewBox="0 0 83 35">
    <defs>
        <linearGradient id="a" x1="0%" y1="-4.77%" y2="100%">
            <stop offset="0%" stop-color="#E4ECF3"/>
            <stop offset="100%" stop-color="#C4D4E3"/>
        </linearGradient>
    </defs>
    <g fill="none" fill-rule="nonzero">
        <path fill="#F6F8FA" d="M74.2 22.96h4.925c4.809-.49 5.513 6.774 0 6.876H27.697c-5.81 0-5.015-6.877 0-6.877h2.501a8.893 8.893 0 0 1-1.171-4.446c0-4.614 3.422-8.355 7.643-8.355 1.127 0 2.197.267 3.16.745 1.866-5.047 6.39-8.608 11.676-8.608 5.715 0 10.54 4.162 12.077 9.864a7.105 7.105 0 0 1 3.659-1.018c4.221 0 7.643 3.74 7.643 8.354a8.983 8.983 0 0 1-.686 3.464z"/>
        <path stroke-width="1" stroke="#6680AD"  d="M74.513 21.414h-6.05l.433-1.039a8.233 8.233 0 0 0 .628-3.175c0-4.214-3.102-7.604-6.893-7.604-1.16 0-2.277.316-3.275.912l-.85.508-.258-.957C56.768 4.572 52.163.75 46.895.75c-4.852 0-9.17 3.244-10.973 8.118l-.29.784-.747-.372a6.321 6.321 0 0 0-2.826-.667c-3.791 0-6.893 3.39-6.893 7.605 0 1.464.375 2.864 1.071 4.072l.648 1.124h-3.8c-1.918 0-3.223 1.22-3.31 2.732-.087 1.51 1.081 2.645 3.31 2.645H74.5c2.079-.039 3.215-1.271 3.135-2.873-.078-1.565-1.278-2.688-3.122-2.504z"/>
        <path fill="url(#a)" d="M47.795 26.505h9.707l-.726-4.869c1.42-9.248-2.254-13.043-11.021-11.386-2.092-8.794-11.07-8.794-11.748-8.406 8.793 2.736 9.738 8.383 7.206 12.273 4.415-1.512 11.152.267 11.152 6.72 0 4.303-1.524 6.192-4.57 5.668z" transform="matrix(-1 0 0 1 83 0)"/>
        <path fill="#F6F8FA" d="M34.708 30.415h3.156c3.081-.326 3.533 4.517 0 4.585H4.91c-3.723 0-3.213-4.585 0-4.585h1.603a6.114 6.114 0 0 1-.75-2.964c0-3.076 2.192-5.57 4.897-5.57.722 0 1.408.178 2.025.497 1.195-3.365 4.095-5.739 7.482-5.739 3.661 0 6.753 2.775 7.738 6.576a4.42 4.42 0 0 1 2.345-.678c2.705 0 4.897 2.493 4.897 5.57 0 .823-.157 1.605-.44 2.308z"/>
        <path fill="url(#a)" d="M66.512 32.448c10.308.936 15.462.64 15.462-.89s-1.4-2.354-4.199-2.47c.933-6.047-1.48-8.53-7.236-7.445-1.373-5.75-7.267-5.75-7.713-5.497 5.774 1.789 6.394 5.482 4.732 8.025 2.898-.988 7.321.175 7.321 4.395 0 2.814-2.789 4.108-8.367 3.882z" transform="matrix(-1 0 0 1 83 0)"/>
        <path stroke-width="1" stroke="#6680AD"  d="M35.558 29.444h-4.265l.413-1.03a5.45 5.45 0 0 0 .386-2.029c0-2.682-1.88-4.82-4.148-4.82a3.67 3.67 0 0 0-1.948.566l-.867.538-.255-.987c-.921-3.553-3.771-6.014-7.013-6.014-2.985 0-5.655 2.087-6.775 5.24l-.288.81-.763-.395a3.638 3.638 0 0 0-1.68-.413c-2.268 0-4.148 2.138-4.148 4.82 0 .937.23 1.831.657 2.6l.616 1.114H2.604c-1.08 0-1.803.704-1.852 1.584-.048.867.58 1.5 1.852 1.5h32.94c1.173-.022 1.79-.719 1.746-1.654-.044-.91-.688-1.536-1.732-1.43z"/>
    </g>
</svg>
