<svg xmlns="http://www.w3.org/2000/svg"  viewBox="0 0 104 109">
    <defs>
        <linearGradient id="a" x1="33.994%" x2="80.815%" y1="13.052%" y2="50%">
            <stop offset="0%" stop-color="#E4ECF3"/>
            <stop offset="100%" stop-color="#C4D4E3"/>
        </linearGradient>
        <linearGradient id="b" x1="56.264%" y1="12.346%" y2="67.228%">
            <stop offset="0%" stop-color="#E4ECF3"/>
            <stop offset="100%" stop-color="#C4D4E3"/>
        </linearGradient>
        <linearGradient id="c" x1="35.73%" x2="73.385%" y1="6.88%" y2="63.51%">
            <stop offset="0%" stop-color="#E4ECF3"/>
            <stop offset="100%" stop-color="#C4D4E3"/>
        </linearGradient>
        <linearGradient id="d" x1="35.667%" x2="65.725%" y1="2.586%" y2="76.803%">
            <stop offset="0%" stop-color="#E4ECF3"/>
            <stop offset="100%" stop-color="#C4D4E3"/>
        </linearGradient>
        <linearGradient id="e" x1="7.675%" x2="87.669%" y1="5.935%" y2="69.426%">
            <stop offset="0%" stop-color="#E4ECF3"/>
            <stop offset="100%" stop-color="#C4D4E3"/>
        </linearGradient>
    </defs>
    <g fill="none" fill-rule="evenodd" transform="translate(2 1)">
        <path fill="#F6F8FA" d="M50.804 26.772c-7.218-4.959-20.13-10.15-28.727-7.587C12.933 21.91 5.391 29.587 0 37.697c3.604.216 7.488-3.346 10.614-5.09-1.466 2.314-2.463 5.89-3.835 8.458 3.612-3.198 6.984-6.381 10.098-9.997.327 2.52.039 5.12-.617 7.504 3.437-3.055 6.99-5.91 10.39-9.008-.08 2.243-.932 4.553-.75 6.73 3.239-2.388 5.96-5.388 9.462-7.05.759 2.455-1.08 5.369-.782 7.898 3.24-2.445 5.327-7.589 9.215-7.308 2.69.198 5.76-.423 7.93-1.497-.217-.622-1.587-1.125-2.107-1.43"/>
        <path fill="url(#a)" d="M50.845 25.191c-6.897-4.704-19.235-9.629-27.45-7.197-8.738 2.584-15.944 9.868-21.096 17.562 3.444.205 7.155-3.175 10.142-4.83-1.401 2.197-2.353 5.59-3.664 8.025 3.451-3.033 6.673-6.053 9.649-9.484.312 2.391.037 4.858-.59 7.119 3.285-2.898 6.68-5.606 9.929-8.545-.077 2.128-.891 4.319-.718 6.383 3.096-2.265 5.696-5.11 9.042-6.687.725 2.329-1.032 5.093-.747 7.492 3.095-2.319 5.09-7.199 8.805-6.933 2.572.189 5.504-.401 7.577-1.42-.206-.59-1.516-1.067-2.012-1.357"/>
        <path fill="#F6F8FA" fill-rule="nonzero" d="M32.221 105.517c-.576-33.21 5.542-57.78 18.353-73.706 2.186.953 3.336 1.533 3.449 1.74-12.893 20.87-17.57 45.126-14.03 72.77-2.012.268-4.603 0-7.772-.804z"/>
        <path fill="url(#b)" fill-rule="nonzero" d="M30.87 103.907C30.3 70.64 36.363 46.03 49.057 30.076c2.166.955 2.651.977 1.456.066-13.094 20.915-19.089 45.503-17.984 73.765-1.994.268-2.546.268-1.657 0z"/>
        <path stroke="#6680AD" stroke-width="1.5" d="M30.497 105.293c-.576-33.37 5.542-58.057 18.353-74.06 2.186.957 3.336 1.54 3.449 1.747-12.894 20.97-17.57 45.344-14.03 73.12-2.91 1.426-5.501 1.157-7.772-.807zM51.369 24.458c-7.299-4.958-20.353-10.15-29.046-7.586C13.077 19.596 5.45 27.273 0 35.383c3.645.217 7.571-3.346 10.732-5.09-1.483 2.315-2.49 5.891-3.877 8.458 3.652-3.197 7.06-6.38 10.21-9.996.33 2.52.038 5.12-.624 7.503 3.475-3.055 7.068-5.91 10.506-9.007-.082 2.243-.943 4.553-.76 6.729 3.276-2.388 6.027-5.387 9.568-7.05.767 2.456-1.092 5.37-.79 7.898 3.274-2.444 5.385-7.588 9.316-7.308 2.721.199 5.824-.423 8.018-1.497-.218-.621-1.604-1.125-2.13-1.43"/>
        <path fill="url(#c)" d="M51.043 27.766c5.368-6.51 15.82-14.862 24.173-15.036 8.884-.187 17.467 4.519 24.21 10.23-3.204 1.228-7.534-.846-10.758-1.51 1.859 1.651 3.586 4.566 5.418 6.47-4-1.825-7.78-3.706-11.427-6.048.288 2.349 1.15 4.593 2.292 6.538-3.808-1.748-7.676-3.282-11.461-5.078.592 1.984 1.895 3.806 2.234 5.806-3.476-1.207-6.626-3.11-10.171-3.593-.117 2.416 2.217 4.495 2.532 6.844-3.488-1.258-6.563-5.262-10.007-3.895-2.383.95-5.296 1.275-7.503.937.05-.618 1.171-1.462 1.57-1.885l-1.102.22z"/>
        <path stroke="#6680AD" stroke-width="1.5" d="M51.617 24.874c5.368-6.51 15.82-14.862 24.174-15.036 8.883-.187 17.466 4.519 24.209 10.23-3.203 1.228-7.533-.846-10.758-1.51 1.86 1.651 3.586 4.566 5.419 6.47-4-1.825-7.78-3.706-11.428-6.048.288 2.349 1.15 4.594 2.293 6.538-3.809-1.747-7.676-3.282-11.462-5.078.592 1.984 1.896 3.806 2.235 5.806-3.476-1.207-6.627-3.11-10.172-3.592-.116 2.415 2.218 4.495 2.533 6.843-3.489-1.258-6.563-5.262-10.007-3.895-2.383.95-5.296 1.275-7.504.937.052-.618 1.172-1.462 1.57-1.885l-1.102.22z"/>
        <path fill="url(#d)" d="M50.755 27.904c8.313-2.044 22.115-2.198 29.56 3.43 7.92 5.985 12.878 16.09 15.662 25.811-3.496-1.13-6.162-5.962-8.634-8.782.726 2.747.638 6.522 1.2 9.475-2.513-4.384-4.801-8.665-6.72-13.262-1.041 2.278-1.52 4.86-1.587 7.372-2.388-4.183-4.945-8.218-7.285-12.428-.573 2.165-.431 4.68-1.235 6.684-2.394-3.474-4.116-7.339-6.97-10.22-1.434 2.056-.527 5.512-1.545 7.809-2.376-3.529-2.873-9.2-6.657-10.375-2.621-.809-5.363-2.538-7.119-4.365.386-.512 1.837-.483 2.42-.582l-1.09-.567z"/>
        <path stroke="#6680AD" stroke-width="1.5" d="M52.48 27.325c8.312-2.044 22.114-2.198 29.56 3.43 7.92 5.985 12.877 16.091 15.661 25.812-3.496-1.13-6.162-5.963-8.634-8.782.726 2.747.638 6.522 1.2 9.474-2.513-4.383-4.8-8.664-6.719-13.262-1.042 2.278-1.521 4.861-1.588 7.373-2.388-4.183-4.944-8.218-7.285-12.429-.573 2.166-.431 4.68-1.235 6.685-2.393-3.474-4.116-7.34-6.97-10.22-1.434 2.056-.527 5.512-1.544 7.808-2.377-3.528-2.874-9.2-6.658-10.374-2.62-.809-5.363-2.539-7.119-4.366.386-.511 1.837-.483 2.42-.581l-1.09-.568z"/>
        <path fill="url(#e)" d="M54.023 28.34l-.958-.643c.235.552 1.01 1.783.857 2.379-2.173-.56-4.791-2.019-6.712-3.85-2.778-2.64-6.947-.128-10.616-.34 1.055-2.063 3.91-3.075 4.582-5.372-3.47-.956-7.031-.433-10.672-.688.964-1.728 2.773-2.909 3.968-4.523-4.12.172-8.233.068-12.36.185 1.698-1.358 3.23-3.108 4.26-5.182-4.168.735-8.31.988-12.64 1.102C16.06 10.36 18.618 8.33 20.89 7.53c-3.23-.661-7.948-.447-10.545-2.862 8.151-2.646 17.698-3.625 25.943.073 7.753 3.476 14.823 15.404 17.735 23.598z"/>
        <path stroke="#6680AD" stroke-width="1.5" d="M53.448 26.026l-.958-.643c.235.552 1.01 1.783.857 2.38-2.173-.561-4.791-2.02-6.712-3.85-2.777-2.64-6.947-.129-10.616-.34 1.055-2.064 3.91-3.076 4.582-5.372-3.47-.957-7.031-.433-10.672-.688.965-1.728 2.773-2.91 3.968-4.523-4.12.172-8.232.067-12.359.184 1.698-1.358 3.23-3.107 4.26-5.182-4.169.735-8.31.989-12.64 1.102 2.328-1.046 4.886-3.077 7.158-3.878-3.23-.66-7.949-.446-10.546-2.862C17.922-.29 27.47-1.27 35.714 2.427c7.752 3.476 14.822 15.404 17.734 23.599z"/>
        <ellipse cx="47.126" cy="27.762" fill="#FDC130" fill-rule="nonzero" stroke="#6680AD" stroke-width="1.5" rx="4.598" ry="4.627"/>
        <ellipse cx="55.172" cy="32.389" fill="#FDC130" fill-rule="nonzero" stroke="#6680AD" stroke-width="1.5" rx="4.598" ry="4.627"/>
        <path stroke="#6680AD" stroke-width="2" d="M30.46 100.638c1.309.578 2.841.723 4.597.434M32.184 86.178c1.309.579 2.842.723 4.598.434"/>
        <path stroke="#6680AD" stroke-width="1.5" d="M33.908 70.562c.794.46 1.751.645 2.874.557l-2.874-.557zM38.506 52.632c.724.898 1.682 1.476 2.873 1.736l-2.873-1.736z"/>
        <path stroke="#6680AD" stroke-width="2" d="M30.46 98.903c1.309.578 2.841.723 4.597.433M32.184 83.865c1.309.578 2.842.723 4.598.434"/>
        <path stroke="#6680AD" stroke-width="1.5" d="M33.908 68.827c.794.46 1.751.645 2.874.557l-2.874-.557zM39.08 50.897c.725.898 1.683 1.476 2.874 1.735l-2.874-1.735z"/>
    </g>
</svg>
