<?xml version="1.0" encoding="UTF-8"?>
<svg  viewBox="0 0 178 196" version="1.1" xmlns="http://www.w3.org/2000/svg" xmlns:xlink="http://www.w3.org/1999/xlink">
    <!-- Generator: Sketch 52.5 (67469) - http://www.bohemiancoding.com/sketch -->
    <title>Group 2</title>
    <desc>Created with Sketch.</desc>
    <defs>
        <linearGradient x1="50%" y1="0%" x2="59.4284892%" y2="124.263367%" id="linearGradient-1">
            <stop stop-color="#E4ECF3" offset="0%"></stop>
            <stop stop-color="#C4D4E3" offset="100%"></stop>
        </linearGradient>
        <linearGradient x1="33.9938798%" y1="13.0519607%" x2="80.8145492%" y2="50%" id="linearGradient-2">
            <stop stop-color="#E4ECF3" offset="0%"></stop>
            <stop stop-color="#C4D4E3" offset="100%"></stop>
        </linearGradient>
        <linearGradient x1="56.2641481%" y1="12.3457506%" x2="100%" y2="67.227612%" id="linearGradient-3">
            <stop stop-color="#E4ECF3" offset="0%"></stop>
            <stop stop-color="#C4D4E3" offset="100%"></stop>
        </linearGradient>
        <linearGradient x1="35.7297428%" y1="6.87977055%" x2="73.3845794%" y2="63.5095429%" id="linearGradient-4">
            <stop stop-color="#E4ECF3" offset="0%"></stop>
            <stop stop-color="#C4D4E3" offset="100%"></stop>
        </linearGradient>
        <linearGradient x1="35.6672384%" y1="2.58562521%" x2="65.7247748%" y2="76.8030703%" id="linearGradient-5">
            <stop stop-color="#E4ECF3" offset="0%"></stop>
            <stop stop-color="#C4D4E3" offset="100%"></stop>
        </linearGradient>
        <linearGradient x1="7.6746943%" y1="5.93539131%" x2="87.6686682%" y2="69.4258846%" id="linearGradient-6">
            <stop stop-color="#E4ECF3" offset="0%"></stop>
            <stop stop-color="#C4D4E3" offset="100%"></stop>
        </linearGradient>
    </defs>
    <g id="Slides" stroke="none" stroke-width="1" fill="none" fill-rule="evenodd">
        <g id="slide3" transform="translate(-624.000000, -437.000000)">
            <g id="isla" transform="translate(608.000000, 438.000000)">
                <g id="Group-2" transform="translate(18.000000, 0.000000)">
                    <path d="M36.1884665,186.918485 C37.8059097,188.879006 40.6814214,188.897992 42.7046433,189.506963 C47.3497007,190.923208 51.7421133,191.874637 56.4856507,192.622139 C62.1686148,193.524344 67.9376844,193.716318 73.6319917,194.697985 C79.5603823,195.735204 90.6654159,194.434285 93.5409277,185.489582 C97.2125288,174.080165 77.7892898,174 73.3396455,174 C66.1903096,174 59.1410005,174.523181 52.0195071,174.523181 C47.8689118,174.523181 44.1715307,174.066804 40.355561,176.17992 C36.3075706,178.42383 29.3876775,188.338948 38.4617553,188.473259" id="Fill-1-Copy-3" fill="url(#linearGradient-1)"></path>
                    <g id="Group">
                        <path d="M88.3997138,46.2879399 C75.8394944,37.7145868 53.3740758,28.7391065 38.4146196,33.1705488 C22.5035774,37.8807994 9.38111138,51.1543498 0,65.1765272 C6.27176246,65.5511757 13.0294539,59.3912564 18.4682805,56.3759722 C15.9170045,60.3778086 14.1831624,66.5618555 11.7958502,71 C18.0807298,65.4714205 23.9470546,59.9676388 29.3662056,53.7159004 C29.9350107,58.0729492 29.4329835,62.5694021 28.2929883,66.6891958 C34.2731934,61.4072544 40.4555211,56.4724828 46.3719294,51.1161477 C46.2312187,54.9939949 44.7489864,58.9877887 45.0649893,62.7496892 C50.7017648,58.6218529 55.4370379,53.4357518 61.5299308,50.5618823 C62.8499881,54.8070057 59.6500119,59.84499 60.1699261,64.2167834 C65.8055092,59.990426 69.4377534,51.0967116 76.2025996,51.5819451 C80.8854042,51.9250937 86.2240639,50.8500735 90,48.9935861 C89.624374,47.9192361 87.2400429,47.0486306 86.3361555,46.5198332" id="Fill-11-Copy-4" fill="#F6F8FA"></path>
                        <path d="M88.4708376,43.555225 C76.4688502,35.4215311 55.0018947,26.9063318 40.7073032,31.1105207 C25.5034184,35.57922 12.9641731,48.1720755 4,61.4751668 C9.99301746,61.8306026 16.450367,55.9865766 21.647468,53.1259224 C19.2095821,56.9225364 17.5527996,62.7894527 15.2715902,67 C21.2771418,61.7549374 26.8827411,56.5334009 32.0610409,50.6022645 C32.6045658,54.7358749 32.1248509,59.0017405 31.0355222,62.9102627 C36.7499404,57.89919 42.6574979,53.2174836 48.3109548,48.1358325 C48.1764979,51.8148157 46.7601426,55.6037996 47.0621009,59.172782 C52.4483531,55.2566297 56.9731696,50.3364825 62.7952672,47.6099909 C64.0566553,51.6374157 60.9989003,56.4170418 61.4957071,60.5646407 C66.8808199,56.5550196 70.351631,48.117393 76.8158174,48.5777428 C81.2904974,48.9032941 86.3918833,47.8834031 90,46.1221201 C89.6410684,45.102865 87.3627077,44.2769059 86.498993,43.7752264" id="Fill-11-Copy-8" fill="url(#linearGradient-2)"></path>
                        <path d="M56.0646155,182.435956 C55.062913,125.015938 65.7078937,82.5372857 87.9995578,55 C91.8031547,56.6484013 93.8033021,57.6509103 94,58.0075269 C71.5655064,94.0910702 63.4280395,136.030634 69.5875993,183.826217 C66.0871044,184.289638 61.5794431,183.826217 56.0646155,182.435956 Z" id="Path-12" fill="#F6F8FA" fill-rule="nonzero"></path>
                        <path d="M53.7151817,179.651846 C52.7226803,122.134552 63.2698817,79.5839369 85.3567857,52 C89.1254447,53.6511939 89.9702864,53.6896224 87.8913109,52.1152856 C65.1072247,88.275542 54.676226,130.787729 56.5983146,179.651846 C53.1299734,180.116051 52.1689291,180.116051 53.7151817,179.651846 Z" id="Path-12-Copy-2" fill="url(#linearGradient-3)" fill-rule="nonzero"></path>
                        <path d="M53.0646155,182.04806 C52.062913,124.35224 62.7078937,81.6695536 84.9995578,54 C88.8031547,55.656319 90.8033021,56.6636432 91,57.0219728 C68.5655064,93.2788336 60.4280395,135.419842 66.5875993,183.444999 C61.5232608,185.909994 57.0155996,185.444348 53.0646155,182.04806 Z" id="Path-12-Copy" stroke="#6680AD" stroke-width="2" fill-rule="nonzero"></path>
                        <path d="M89.3819329,42.2879399 C76.6821554,33.7145868 53.9671211,24.7391065 38.8414487,29.1705488 C22.7536171,33.8807994 9.48534595,47.1543498 0,61.1765272 C6.34144871,61.5511757 13.1742256,55.3912564 18.6734836,52.3759722 C16.0938601,56.3778086 14.3407531,62.5618555 11.9269152,67 C18.2816268,61.4714205 24.213133,55.9676388 29.6924968,49.7159004 C30.267622,54.0729492 29.7600167,58.5694021 28.6073549,62.6891958 C34.6540067,57.4072544 40.9050269,52.4724828 46.8871731,47.1161477 C46.7448989,50.9939949 45.2461974,54.9877887 45.5657114,58.7496892 C51.2651178,54.6218529 56.053005,49.4357518 62.2135967,46.5618823 C63.5483213,50.8070057 60.3127898,55.84499 60.8384808,60.2167834 C66.5366815,55.990426 70.209284,47.0967116 77.0492951,47.5819451 C81.784131,47.9250937 87.1821091,46.8500735 91,44.9935861 C90.6202003,43.9192361 88.2093767,43.0486306 87.2954461,42.5198332" id="Fill-11" stroke="#6680AD" stroke-width="2"></path>
                        <path d="M88.8143948,48.0068652 C98.1547282,36.7513202 116.341636,22.3104701 130.875522,22.0093019 C146.333207,21.6862195 161.267878,29.8223633 173,39.6957032 C167.426485,41.8199928 159.892862,38.234726 154.281818,37.0875757 C157.516335,39.9413112 160.521164,44.9812039 163.709282,48.2721869 C156.749411,45.1170753 150.173091,41.8647656 143.826225,37.8155113 C144.327337,41.8771376 145.827416,45.7580742 147.815609,49.1199388 C141.188157,46.0986507 134.45911,43.4457198 127.871918,40.3396548 C128.901844,43.7700291 131.169594,46.9215073 131.760304,50.3783899 C125.711548,48.2920159 120.230059,45.0013892 114.061597,44.1673689 C113.858585,48.3431182 117.919862,51.9391238 118.468535,56 C112.397915,53.8251136 107.048708,46.9016931 101.055895,49.2656018 C96.9092022,50.9084565 91.8403409,51.4691893 88,50.8847809 C88.0888781,49.8161366 90.0382076,48.3568603 90.7309097,47.6257785 L88.8143948,48.0068652 Z" id="Fill-11-Copy-3" fill="url(#linearGradient-4)"></path>
                        <path d="M89.8143948,43.0068652 C99.1547282,31.7513202 117.341636,17.3104701 131.875522,17.0093019 C147.333207,16.6862195 162.267878,24.8223633 174,34.6957032 C168.426485,36.8199928 160.892862,33.234726 155.281818,32.0875757 C158.516335,34.9413112 161.521164,39.9812039 164.709282,43.2721869 C157.749411,40.1170753 151.173091,36.8647656 144.826225,32.8155113 C145.327337,36.8771376 146.827416,40.7580742 148.815609,44.1199388 C142.188157,41.0986507 135.45911,38.4457198 128.871918,35.3396548 C129.901844,38.7700291 132.169594,41.9215073 132.760304,45.3783899 C126.711548,43.2920159 121.230059,40.0013892 115.061597,39.1673689 C114.858585,43.3431182 118.919862,46.9391238 119.468535,51 C113.397915,48.8251136 108.048708,41.9016931 102.055895,44.2656018 C97.9092022,45.9084565 92.8403409,46.4691893 89,45.8847809 C89.0888781,44.8161366 91.0382076,43.3568603 91.7309097,42.6257785 L89.8143948,43.0068652 Z" id="Fill-11-Copy-7" stroke="#6680AD" stroke-width="2"></path>
                        <path d="M88.3136027,48.2447943 C102.778062,44.7108717 126.794161,44.4441045 139.749554,54.1755329 C153.529951,64.5230546 162.155932,81.995715 167,98.8024426 C160.917084,96.8480238 156.277849,88.4932918 151.97731,83.6184107 C153.239735,88.3684976 153.08691,94.8949445 154.065871,100 C149.692772,92.4205647 145.711095,85.018973 142.373557,77.0700679 C140.56059,81.0086061 139.726878,85.474459 139.610699,89.8167997 C135.455832,82.5844473 131.007162,75.6081381 126.934764,68.3284679 C125.937395,72.0722329 126.183944,76.4207272 124.785401,79.8858089 C120.620919,73.8787769 117.62384,67.1964189 112.65907,62.2151528 C110.16322,65.7703005 111.741203,71.7458965 109.970502,75.7164883 C105.8359,69.6160984 104.971136,59.810357 98.3863133,57.7795228 C93.8260081,56.3806351 89.0547879,53.3898979 86,50.2310164 C86.6712188,49.3465946 89.1962068,49.396343 90.211405,49.2259769 L88.3136027,48.2447943 Z" id="Fill-11-Copy" fill="url(#linearGradient-5)"></path>
                        <path d="M91.3136027,47.2447943 C105.778062,43.7108717 129.794161,43.4441045 142.749554,53.1755329 C156.529951,63.5230546 165.155932,80.995715 170,97.8024426 C163.917084,95.8480238 159.277849,87.4932918 154.97731,82.6184107 C156.239735,87.3684976 156.08691,93.8949445 157.065871,99 C152.692772,91.4205647 148.711095,84.018973 145.373557,76.0700679 C143.56059,80.0086061 142.726878,84.474459 142.610699,88.8167997 C138.455832,81.5844473 134.007162,74.6081381 129.934764,67.3284679 C128.937395,71.0722329 129.183944,75.4207272 127.785401,78.8858089 C123.620919,72.8787769 120.62384,66.1964189 115.65907,61.2151528 C113.16322,64.7703005 114.741203,70.7458965 112.970502,74.7164883 C108.8359,68.6160984 107.971136,58.810357 101.386313,56.7795228 C96.8260081,55.3806351 92.0547879,52.3898979 89,49.2310164 C89.6712188,48.3465946 92.1962068,48.396343 93.211405,48.2259769 L91.3136027,47.2447943 Z" id="Fill-11-Copy-6" stroke="#6680AD" stroke-width="2"></path>
                        <path d="M53,174 C55.2777225,175 57.9443892,175.25 61,174.75" id="Path-17" stroke="#6680AD" stroke-width="2" fill-rule="nonzero"></path>
                        <path d="M56,149 C58.2777225,150 60.9443892,150.25 64,149.75" id="Path-17-Copy-6" stroke="#6680AD" stroke-width="2" fill-rule="nonzero"></path>
                        <path d="M59,122 C60.3807557,122.793886 62.0474223,123.115081 64,122.963584 L59,122 Z" id="Path-17-Copy-2" stroke="#6680AD" stroke-width="2" fill-rule="nonzero"></path>
                        <path d="M67,91 C68.2609415,92.5518185 69.9276082,93.5518185 72,94 L67,91 Z" id="Path-17-Copy-4" stroke="#6680AD" stroke-width="2" fill-rule="nonzero"></path>
                        <path d="M53,171 C55.2777225,172 57.9443892,172.25 61,171.75" id="Path-17-Copy" stroke="#6680AD" stroke-width="2" fill-rule="nonzero"></path>
                        <path d="M56,145 C58.2777225,146 60.9443892,146.25 64,145.75" id="Path-17-Copy-7" stroke="#6680AD" stroke-width="2" fill-rule="nonzero"></path>
                        <path d="M59,119 C60.3807557,119.793886 62.0474223,120.115081 64,119.963584 L59,119 Z" id="Path-17-Copy-3" stroke="#6680AD" stroke-width="2" fill-rule="nonzero"></path>
                        <path d="M68,88 C69.2609415,89.5518185 70.9276082,90.5518185 73,91 L68,88 Z" id="Path-17-Copy-5" stroke="#6680AD" stroke-width="2" fill-rule="nonzero"></path>
                        <path d="M94,48.9976855 L92.3323132,47.8872 C92.7418755,48.8413789 94.0891616,50.9693296 93.8242838,52 C90.0436018,51.030734 85.4872394,48.5103132 82.1453846,45.3451898 C77.3123564,40.7805869 70.05691,45.1225179 63.6732192,44.7559623 C65.5084806,41.188785 70.4763534,39.4392849 71.6462593,35.4687903 C65.6077067,33.8144066 59.4114958,34.719585 53.0770669,34.2791818 C54.7549575,31.2913048 57.9012904,29.2490076 59.9811789,26.458954 C52.811328,26.7563438 45.6564038,26.5756413 38.4765186,26.7781767 C41.4299955,24.429673 44.0961483,21.4051588 45.8871885,17.8185355 C38.6349009,19.0894078 31.4275947,19.5273369 23.8933501,19.7235234 C27.9455729,17.9140337 32.3959156,14.4028684 36.3491414,13.0190439 C30.7297654,11.8761158 22.519046,12.2469145 18,8.07083523 C32.1834721,3.49647269 48.7953869,1.80297624 63.1417858,8.19695028 C76.6316492,14.2063732 88.9326177,34.8294055 94,48.9976855 Z" id="Fill-11-Copy-9" fill="url(#linearGradient-6)"></path>
                        <path d="M93,44.9976855 L91.3323132,43.8872 C91.7418755,44.8413789 93.0891616,46.9693296 92.8242838,48 C89.0436018,47.030734 84.4872394,44.5103132 81.1453846,41.3451898 C76.3123564,36.7805869 69.05691,41.1225179 62.6732192,40.7559623 C64.5084806,37.188785 69.4763534,35.4392849 70.6462593,31.4687903 C64.6077067,29.8144066 58.4114958,30.719585 52.0770669,30.2791818 C53.7549575,27.2913048 56.9012904,25.2490076 58.9811789,22.458954 C51.811328,22.7563438 44.6564038,22.5756413 37.4765186,22.7781767 C40.4299955,20.429673 43.0961483,17.4051588 44.8871885,13.8185355 C37.6349009,15.0894078 30.4275947,15.5273369 22.8933501,15.7235234 C26.9455729,13.9140337 31.3959156,10.4028684 35.3491414,9.01904389 C29.7297654,7.87611581 21.519046,8.24691454 17,4.07083523 C31.1834721,-0.503527311 47.7953869,-2.19702376 62.1417858,4.19695028 C75.6316492,10.2063732 87.9326177,30.8294055 93,44.9976855 Z" id="Fill-11-Copy-5" stroke="#6680AD" stroke-width="2"></path>
                        <circle id="Oval" stroke="#6680AD" stroke-width="2" fill="#FDC130" fill-rule="nonzero" cx="82" cy="48" r="8"></circle>
                        <circle id="Oval-Copy-4" stroke="#6680AD" stroke-width="2" fill="#FDC130" fill-rule="nonzero" cx="96" cy="56" r="8"></circle>
                    </g>
                </g>
            </g>
        </g>
    </g>
</svg>