<svg xmlns="http://www.w3.org/2000/svg"  viewBox="0 0 42 37">
    <defs>
        <linearGradient id="a" x1="26.704%" x2="59.886%" y1="0%" y2="50%">
            <stop offset="0%" stop-color="#E4ECF3"/>
            <stop offset="100%" stop-color="#C4D4E3"/>
        </linearGradient>
    </defs>
    <g fill="none" fill-rule="evenodd">
        <path fill="#F6F8FA" d="M41.169 25.32c-1.657-1.762-3.59-3.806-3.59-4.44 0-1.854 1.657-3.665 1.104-5.78-1.174-1.48-7.182 2.255-8.148 1.128-1.095-1.278-5.593-5.216-6.422-4.652-1.498 1.02-.483 6.344-.483 8.176l-.138.423C21.972 22.149 17 23.417 17 24.686c-.07 2.044 4.06 1.729 5.8 3.031 1.036.775 1.27 3.381 1.38 5.357.415 7.401 4.697-1.269 7.183-3.806 1.933-2.115 4.142-1.41 6.905-1.41 2.486-.141 5.11-.07 2.9-2.537"/>
        <path fill="url(#a)" d="M9.083 12.077C6.665 11.16 1.02 10.31 1.02 11.58c-.068 2.048 3.994 1.733 5.705 3.037 1.019.777 1.25 3.388 1.358 5.367.408 7.415 4.618-1.27 7.063-3.813 1.902-2.119 4.075-1.413 6.792-1.413-2.828-1.214-3.526-3.178-11.495.608-.329.157-.783-.94-1.361-3.29z" transform="translate(17 11)"/>
        <path stroke="#6680AD" stroke-width="1.5" d="M40.2 23.919c-1.556-1.65-3.372-3.563-3.372-4.157 0-1.736 1.557-3.432 1.038-5.411-1.102-1.386-6.742 2.111-7.65 1.055-1.027-1.195-5.25-4.883-6.028-4.355-1.407.955-.454 5.939-.454 7.655l-.13.396c-1.425 1.848-6.093 3.035-6.093 4.223-.065 1.914 3.812 1.618 5.446 2.837.972.726 1.192 3.166 1.296 5.015.388 6.93 4.408-1.187 6.742-3.563 1.814-1.98 3.889-1.32 6.482-1.32 2.333-.132 4.797-.066 2.723-2.375"/>
        <path fill="#FDC130" d="M24.143 12.042s2.673 7.283 4.592 8.333c0 0-2.056-5.112-4.592-8.333M20.061 22.98s6.854-.612 8.674-2.084c0 0-5.005.422-8.674 2.083M36.898 15.167s-6.305 3.923-7.143 5.729c0 0 4.55-2.458 7.143-5.73M29.755 21.417s6.523 2.997 8.674 2.56c0 0-4.411-1.975-8.674-2.56M29.245 21.938s-1.72 7.113-3.572 8.333c0 0 1.166-4.836 3.572-8.334M27.204 20.375c0 .288-.228.52-.51.52a.516.516 0 0 1-.51-.52c0-.288.228-.52.51-.52.282 0 .51.232.51.52M26.184 17.77a.516.516 0 0 1-.51.522.516.516 0 0 1-.51-.521c0-.288.228-.521.51-.521.281 0 .51.233.51.52M25.163 20.375c0 .288-.228.52-.51.52a.516.516 0 0 1-.51-.52c0-.288.228-.52.51-.52.282 0 .51.232.51.52M29.755 18.813c0 .287-.228.52-.51.52a.515.515 0 0 1-.51-.52c0-.288.228-.521.51-.521.282 0 .51.233.51.52M29.245 16.73c0 .287-.228.52-.51.52a.515.515 0 0 1-.51-.52c0-.288.228-.522.51-.522.282 0 .51.234.51.521M32.306 17.25c0 .288-.228.52-.51.52a.516.516 0 0 1-.51-.52c0-.288.228-.52.51-.52.282 0 .51.232.51.52M32.306 20.896a.516.516 0 0 1-.51.52.516.516 0 0 1-.51-.52c0-.288.228-.521.51-.521.281 0 .51.233.51.52M34.347 19.333c0 .288-.23.521-.51.521a.516.516 0 0 1-.51-.52c0-.288.228-.521.51-.521.28 0 .51.233.51.52M35.367 20.896c0 .287-.228.52-.51.52a.515.515 0 0 1-.51-.52c0-.288.228-.521.51-.521.282 0 .51.233.51.52M30.776 22.98c0 .287-.229.52-.51.52a.516.516 0 0 1-.51-.52c0-.289.228-.522.51-.522.281 0 .51.233.51.521M30.265 25.583c0 .288-.228.521-.51.521a.516.516 0 0 1-.51-.52c0-.288.228-.521.51-.521.282 0 .51.233.51.52M32.816 24.02c0 .288-.228.522-.51.522a.515.515 0 0 1-.51-.521c0-.288.228-.521.51-.521.282 0 .51.233.51.52M27.714 22.98c0 .287-.228.52-.51.52a.516.516 0 0 1-.51-.52c0-.289.228-.522.51-.522.282 0 .51.233.51.521M25.673 23.5c0 .288-.228.52-.51.52a.515.515 0 0 1-.51-.52c0-.288.228-.52.51-.52.282 0 .51.232.51.52M26.694 25.584c0 .287-.228.52-.51.52a.516.516 0 0 1-.51-.52c0-.288.228-.521.51-.521.282 0 .51.233.51.52"/>
        <g fill="#6680AD" fill-rule="nonzero">
            <circle cx="18" cy="13" r="1"/>
            <circle cx="28" cy="1" r="1"/>
            <circle cx="1" cy="36" r="1"/>
            <circle cx="39" cy="34" r="1"/>
            <circle cx="3" cy="11" r="1"/>
        </g>
    </g>
</svg>
