<svg width="1080" height="1080" viewBox="0 0 1080 1080" fill="none" xmlns="http://www.w3.org/2000/svg">
<path d="M895.202 728.301H764.602V711.601C764.602 675.501 793.802 646.301 829.902 646.301C866.002 646.301 895.202 675.501 895.202 711.601V728.301Z" fill="#FF7F41"/>
<path d="M884.3 728.3H775.5V714.4C775.5 684.3 799.9 660 829.9 660C860 660 884.3 684.4 884.3 714.4V728.3Z" fill="#F5B6CD"/>
<path d="M834.003 639H825.703V646.4H834.003V639Z" fill="#F5B6CD"/>
<path d="M868.502 778.8L850.102 775.6C836.702 773.3 823.102 773.3 809.702 775.6L791.302 778.8C777.402 781.2 764.602 770.5 764.602 756.4V728.4C764.602 728.4 789.002 720.4 829.902 720.4C875.102 720.4 895.202 728.4 895.202 728.4V756.4C895.202 770.5 882.502 781.2 868.502 778.8Z" fill="#FDDA24"/>
<path d="M283.699 411.301C236.999 411.301 199.199 449.101 199.199 495.801V506.201H368.299V495.801C368.199 449.101 330.399 411.301 283.699 411.301Z" fill="#9063CD"/>
<path d="M346.999 567.3H220.399C208.699 567.3 199.199 557.8 199.199 546.1V532.5H368.299V546.1C368.199 557.8 358.699 567.3 346.999 567.3Z" fill="#9063CD"/>
<path d="M364.2 540.8H202.7C195.1 540.8 189 534.7 189 527.1C189 519.5 195.1 513.4 202.7 513.4H364.2C371.8 513.4 377.9 519.5 377.9 527.1C378 534.6 371.8 540.8 364.2 540.8Z" fill="#FF7F41"/>
<path d="M368.1 498.6C351.3 496.9 351.5 496.4 334.6 496.4C317.7 496.4 317.7 502.9 300.8 502.9C283.9 502.9 283.9 496.4 267 496.4C250.1 496.4 250.1 502.9 233.2 502.9C216.3 502.9 215.9 494.7 199.1 496.4C196.5 496.7 178.9 515.1 181.5 515.3C201.7 517.4 201.5 521.8 221.9 521.8C242.3 521.8 242.3 515.3 262.6 515.3C283 515.3 283 521.8 303.3 521.8C323.7 521.8 323.7 515.3 344 515.3C364.3 515.3 365.7 523.8 385 517.5C389.4 516.1 370.6 498.8 368.1 498.6Z" fill="#00C389"/>
<path d="M288.301 435.4C290.234 435.4 291.801 433.833 291.801 431.9C291.801 429.967 290.234 428.4 288.301 428.4C286.368 428.4 284.801 429.967 284.801 431.9C284.801 433.833 286.368 435.4 288.301 435.4Z" fill="#FDDA24"/>
<path d="M225.398 482.5C227.331 482.5 228.898 480.933 228.898 479C228.898 477.067 227.331 475.5 225.398 475.5C223.465 475.5 221.898 477.067 221.898 479C221.898 480.933 223.465 482.5 225.398 482.5Z" fill="#FDDA24"/>
<path d="M240.699 451C242.632 451 244.199 449.433 244.199 447.5C244.199 445.567 242.632 444 240.699 444C238.766 444 237.199 445.567 237.199 447.5C237.199 449.433 238.766 451 240.699 451Z" fill="#FDDA24"/>
<path d="M273.699 475.201C275.632 475.201 277.199 473.634 277.199 471.701C277.199 469.768 275.632 468.201 273.699 468.201C271.766 468.201 270.199 469.768 270.199 471.701C270.199 473.634 271.766 475.201 273.699 475.201Z" fill="#FDDA24"/>
<path d="M328.5 454.5C330.433 454.5 332 452.933 332 451C332 449.067 330.433 447.5 328.5 447.5C326.567 447.5 325 449.067 325 451C325 452.933 326.567 454.5 328.5 454.5Z" fill="#FDDA24"/>
<path d="M351.699 485.9C353.632 485.9 355.199 484.333 355.199 482.4C355.199 480.467 353.632 478.9 351.699 478.9C349.766 478.9 348.199 480.467 348.199 482.4C348.199 484.333 349.766 485.9 351.699 485.9Z" fill="#FDDA24"/>
<path d="M307.898 485.9C309.831 485.9 311.398 484.333 311.398 482.4C311.398 480.467 309.831 478.9 307.898 478.9C305.965 478.9 304.398 480.467 304.398 482.4C304.398 484.333 305.965 485.9 307.898 485.9Z" fill="#FDDA24"/>
<path d="M816.8 201.601H716V171.201C716 143.401 738.6 120.801 766.4 120.801C794.2 120.801 816.8 143.401 816.8 171.201V201.601ZM728 189.601H804.8V171.201C804.8 150.001 787.6 132.801 766.4 132.801C745.2 132.801 728 150.101 728 171.301V189.601Z" fill="#FDDA24"/>
<path d="M850.2 340.1H682.5L687.2 183.5H845.6L850.2 340.1Z" fill="#9063CD"/>
<path d="M284.8 700.699C176.8 700.699 89 612.899 89 504.999C89 482.399 92.8 460.199 100.4 438.999C103.6 430.199 113.3 425.599 122.1 428.699C130.9 431.899 135.5 441.599 132.4 450.399C126.2 467.899 123 486.199 123 504.999C123 594.199 195.6 666.799 284.8 666.799C374 666.799 446.6 594.199 446.6 504.999C446.6 474.099 437.9 444.099 421.3 418.199C405.2 392.899 382.5 372.699 355.6 359.599C347.2 355.499 343.7 345.299 347.8 336.899C351.9 328.499 362.1 324.999 370.5 329.099C403 344.999 430.5 369.499 449.9 399.999C469.9 431.399 480.5 467.699 480.5 505.099C480.5 612.899 392.7 700.699 284.8 700.699Z" fill="#FF7F41"/>
<path d="M140.099 416.899C136.599 416.899 133.099 415.799 130.099 413.599C122.499 408.099 120.799 397.399 126.399 389.899C144.199 365.499 167.699 345.199 194.499 331.199C222.199 316.799 253.399 309.199 284.799 309.199C294.199 309.199 301.799 316.799 301.799 326.199C301.799 335.599 294.199 343.199 284.799 343.199C258.499 343.199 233.399 349.299 210.199 361.399C188.099 372.899 168.599 389.699 153.899 409.899C150.599 414.499 145.399 416.899 140.099 416.899Z" fill="#FF7F41"/>
<path d="M911.298 603.7C908.898 603.7 906.398 603 904.198 601.5C899.498 598.3 894.498 595.3 889.398 592.7C883.298 589.5 880.898 582 883.998 575.9C887.198 569.8 894.698 567.4 900.798 570.5C906.798 573.6 912.598 577.1 918.198 580.9C923.898 584.8 925.298 592.6 921.398 598.3C919.198 601.8 915.298 603.7 911.298 603.7Z" fill="#F5B6CD"/>
<path d="M971.401 686.1C966.001 686.1 961.001 682.6 959.401 677.2C953.701 658 944.101 640.6 930.901 625.4C926.401 620.2 926.901 612.3 932.101 607.8C937.301 603.3 945.201 603.8 949.701 609C965.301 626.9 976.601 647.5 983.301 670.1C985.301 676.7 981.501 683.7 974.901 685.7C973.801 685.9 972.601 686.1 971.401 686.1Z" fill="#F5B6CD"/>
<path d="M825.098 882.4C733.998 882.4 659.898 808.3 659.898 717.2C659.898 626.1 733.998 552 825.098 552C831.998 552 837.598 557.6 837.598 564.5C837.598 571.4 831.998 577 825.098 577C747.798 577.1 684.998 640 684.998 717.3C684.998 794.6 747.898 857.5 825.198 857.5C902.498 857.5 965.398 794.6 965.398 717.3C965.398 715.3 965.398 713.2 965.298 711.2C964.998 704.3 970.398 698.5 977.298 698.2C984.198 697.9 989.998 703.3 990.298 710.2C990.398 712.6 990.498 715 990.498 717.4C990.298 808.3 916.198 882.4 825.098 882.4Z" fill="#F5B6CD"/>
<path d="M765.998 443.1C657.298 443.1 568.898 354.7 568.898 246C568.898 137.4 657.298 49 765.998 49C806.498 49 845.398 61.2 878.598 84.3C910.998 106.9 935.598 138.1 949.798 174.8C953.098 183.3 948.898 192.9 940.398 196.2C931.898 199.5 922.298 195.3 918.998 186.8C907.198 156.3 886.698 130.3 859.698 111.5C832.098 92.2 799.698 82 765.998 82C675.498 82 601.898 155.6 601.898 246.1C601.898 336.6 675.498 410.2 765.998 410.2C793.998 410.2 821.598 403 845.898 389.5C853.898 385.1 863.898 387.9 868.398 395.9C872.798 403.9 869.998 413.9 861.998 418.4C832.698 434.5 799.598 443.1 765.998 443.1Z" fill="#00C389"/>
<path d="M920.698 355.6C917.798 355.6 914.898 354.8 912.198 353.2C904.398 348.5 901.898 338.4 906.598 330.6C921.898 305.2 929.998 276 929.998 246.1C929.998 237 937.398 229.6 946.498 229.6C955.598 229.6 962.998 237 962.998 246.1C962.998 282 953.298 317.1 934.898 347.6C931.798 352.7 926.298 355.6 920.698 355.6Z" fill="#00C389"/>
<path d="M576.502 1031.7C687.732 1031.7 777.902 941.531 777.902 830.3C777.902 719.07 687.732 628.9 576.502 628.9C465.271 628.9 375.102 719.07 375.102 830.3C375.102 941.531 465.271 1031.7 576.502 1031.7Z" fill="#E4AC7B"/>
<path d="M669.904 905.2L437.304 905.3C412.404 905.3 392.204 885.1 392.204 860.2L392.004 334.1C392.004 309.2 412.204 289 437.104 289L669.704 288.9C694.604 288.9 714.804 309.1 714.804 334L715.004 860.1C715.104 885 694.904 905.2 669.904 905.2Z" fill="#59CBE8"/>
<path d="M553.605 889.801C564.927 889.801 574.105 880.623 574.105 869.301C574.105 857.979 564.927 848.801 553.605 848.801C542.284 848.801 533.105 857.979 533.105 869.301C533.105 880.623 542.284 889.801 553.605 889.801Z" fill="white"/>
<path d="M690.703 357.4L690.803 829.5H690.703L416.403 829.6V775.2L416.203 357.5L690.703 357.4Z" fill="white"/>
<path d="M620.005 485.399L477.805 501.399C469.405 502.299 462.605 510.599 462.605 519.899V609.299C462.605 618.599 469.405 625.299 477.805 624.299L620.005 608.299C628.405 607.399 635.205 599.099 635.205 589.799V517.199V500.399C635.205 491.199 628.405 484.499 620.005 485.399Z" fill="#FF7F41"/>
<path d="M479.203 507.8L611.403 473.6L612.103 519.4L479.203 507.8Z" fill="#59CBE8"/>
<path d="M479.203 507.799L630.003 480.199V527.099L479.203 507.799Z" fill="#00C389"/>
<path d="M627.104 511.699L478.404 503.999C469.604 503.499 462.504 510.699 462.504 519.899V609.299C462.504 618.599 469.604 626.399 478.404 626.899L627.004 634.599C635.804 635.099 642.904 627.899 642.904 618.699V546.099V529.299C643.004 519.999 635.904 512.199 627.104 511.699Z" fill="#9063CD"/>
<path d="M622.002 583.399C626.476 583.399 630.102 579.773 630.102 575.299C630.102 570.826 626.476 567.199 622.002 567.199C617.529 567.199 613.902 570.826 613.902 575.299C613.902 579.773 617.529 583.399 622.002 583.399Z" fill="#FDDA24"/>
<path d="M690.702 775.1H416.402V829.6H690.702V775.1Z" fill="#FDDA24"/>
<path d="M415.902 830.1V774.6H416.402L691.202 774.5V830H690.702L415.902 830.1ZM416.902 775.7V829.2L690.202 829.1V775.6L416.902 775.7Z" fill="#FDDA24"/>
<path d="M772.104 851.401C765.304 883.101 751.704 913.301 732.104 939.701C727.704 945.601 724.104 952.601 721.104 960.201C717.604 969.001 691.404 982.101 681.804 977.001L625.404 905.501C623.204 896.701 622.004 887.501 622.004 878.001C622.004 840.301 640.604 807.001 669.104 786.701C678.204 780.201 680.004 778.201 690.804 774.701V726.901L648.304 639.501C631.604 613.501 639.204 579.001 665.104 562.301C666.204 561.601 667.404 561.301 668.604 561.301C670.704 561.301 672.804 562.301 674.004 564.301L719.904 635.801L759.604 697.101C769.004 711.601 774.304 728.301 775.104 745.601L776.104 767.701L776.404 774.201V774.401L777.204 792.301C778.004 812.301 776.304 832.101 772.104 851.401Z" fill="#E4AC7B"/>
<path d="M625.504 905.5L681.904 977C654.104 962.4 633.304 936.6 625.504 905.5Z" fill="#E4AC7B"/>
<path d="M378.102 824.001L345.302 782.801C332.202 766.401 334.902 742.501 351.402 729.401L381.102 705.701L437.602 776.601C450.702 793.001 448.002 816.901 431.602 830.001C415.102 843.101 391.202 840.401 378.102 824.001Z" fill="#E4AC7B"/>
<path d="M378.102 747.2L345.302 706C332.202 689.6 334.902 665.7 351.402 652.6L381.102 628.9L437.602 699.8C450.702 716.2 448.002 740.1 431.502 753.2C415.002 766.3 391.102 763.6 378.102 747.2Z" fill="#E4AC7B"/>
<path d="M378.102 670.3L345.302 629.1C332.202 612.7 334.902 588.8 351.302 575.7L381.002 552L437.502 622.9C450.602 639.3 447.902 663.2 431.402 676.3C415.002 689.5 391.102 686.8 378.102 670.3Z" fill="#E4AC7B"/>
<path d="M381.004 475.3L392.104 466.9V507.8L381.004 475.3Z" fill="#E4AC7B"/>
<path d="M378.001 593.501L345.201 552.301C332.101 535.901 334.801 512.001 351.301 498.901L381.001 475.201L437.501 546.101C450.601 562.501 447.901 586.401 431.501 599.501C415.001 612.601 391.101 609.901 378.001 593.501Z" fill="#E4AC7B"/>
<path d="M766.4 296.7C790.921 296.7 810.8 281.075 810.8 261.8C810.8 242.526 790.921 226.9 766.4 226.9C741.879 226.9 722 242.526 722 261.8C722 281.075 741.879 296.7 766.4 296.7Z" fill="#FF7F41"/>
</svg>
