<svg width="156" height="105" viewBox="0 0 156 105" fill="none" xmlns="http://www.w3.org/2000/svg">
<path d="M12.6267 3.37136C12.5996 2.32434 11.7289 1.49752 10.6819 1.52459C9.63488 1.55166 8.80805 2.42238 8.83512 3.46939L12.6267 3.37136ZM95.3279 46.9422L96.3464 45.3425L96.346 45.3422L95.3279 46.9422ZM52.3136 82.0688L54.1337 81.5361L54.1336 81.5359L52.3136 82.0688ZM155.568 72.5205C156.16 71.6562 155.939 70.476 155.075 69.8844C154.21 69.2928 153.03 69.5138 152.438 70.3781L155.568 72.5205ZM0.831403 10.9915C0.162072 11.7971 0.272526 12.9928 1.07811 13.6621C1.88369 14.3314 3.07934 14.221 3.74868 13.4154L0.831403 10.9915ZM10.6111 2.18848L11.6273 0.587278C10.8219 0.0761417 9.76212 0.242833 9.15251 0.976546L10.6111 2.18848ZM20.9563 10.6733C21.894 11.1398 23.0324 10.7579 23.4989 9.82013C23.9654 8.88241 23.5834 7.74404 22.6457 7.27752L20.9563 10.6733ZM10.7309 3.42037C8.83512 3.46939 8.83514 3.4702 8.83517 3.47124C8.83519 3.4719 8.83522 3.47318 8.83526 3.4745C8.83533 3.47714 8.83543 3.4807 8.83556 3.4852C8.83581 3.49419 8.83618 3.50688 8.83668 3.52322C8.83769 3.55589 8.83923 3.60316 8.84143 3.66461C8.84584 3.7875 8.85291 3.96711 8.86373 4.20006C8.88536 4.66594 8.922 5.34537 8.9823 6.21134C9.10288 7.94295 9.31823 10.4225 9.69793 13.4336C10.4566 19.4502 11.875 27.6179 14.5178 36.1953C19.769 53.2383 30.0416 72.4721 50.1841 78.9911L51.352 75.3825C33.0429 69.4569 23.2969 51.8075 18.1425 35.0785C15.5824 26.7697 14.2012 18.8292 13.461 12.9591C13.0912 10.0269 12.8823 7.6184 12.766 5.94786C12.7078 5.11276 12.6728 4.46257 12.6525 4.0241C12.6423 3.80488 12.6358 3.63864 12.6318 3.52872C12.6299 3.47376 12.6285 3.43288 12.6277 3.40652C12.6273 3.39333 12.627 3.38378 12.6269 3.3779C12.6268 3.37496 12.6267 3.37294 12.6267 3.37185C12.6267 3.3713 12.6267 3.37118 12.6267 3.3709C12.6267 3.37101 12.6267 3.37136 10.7309 3.42037ZM50.1841 78.9911C70.0278 85.4133 85.5364 80.0382 94.2215 71.5431C98.5315 67.3275 101.207 62.2873 101.763 57.5261C102.326 52.7019 100.687 48.1065 96.3464 45.3425L94.3093 48.5419C97.2058 50.3862 98.4224 53.4311 97.9957 57.0863C97.5616 60.8044 95.4022 65.0827 91.5694 68.8317C83.9687 76.266 69.9599 81.4048 51.352 75.3825L50.1841 78.9911ZM96.346 45.3422C92.2351 42.7264 86.7267 41.9779 81.1015 42.6293C75.4446 43.2844 69.4608 45.3745 64.2275 48.6993C53.7396 55.3626 45.993 67.2317 50.4936 82.6017L54.1336 81.5359C50.239 68.2355 56.7621 57.9359 66.2614 51.9007C71.0216 48.8764 76.4609 46.9849 81.5378 46.397C86.6466 45.8054 91.1831 46.5526 94.3098 48.5422L96.346 45.3422ZM50.4936 82.6015C52.7959 90.468 59.0404 96.1968 67.2082 99.7572C75.374 103.317 85.6198 104.793 96.3556 104.111C117.799 102.75 141.734 92.7316 155.568 72.5205L152.438 70.3781C139.422 89.3942 116.707 99.0184 96.1152 100.326C85.8336 100.979 76.216 99.5462 68.7238 96.2804C61.2338 93.0154 56.0261 88.002 54.1337 81.5361L50.4936 82.6015ZM3.74868 13.4154L12.0698 3.40041L9.15251 0.976546L0.831403 10.9915L3.74868 13.4154ZM10.6111 2.18848C9.59499 3.78968 9.59505 3.78971 9.59514 3.78977C9.59521 3.78981 9.59533 3.78989 9.59548 3.78998C9.59578 3.79017 9.59621 3.79045 9.59677 3.79081C9.59791 3.79152 9.59957 3.79258 9.60177 3.79398C9.60616 3.79676 9.61267 3.80089 9.62123 3.80632C9.63836 3.81718 9.66371 3.83324 9.69681 3.85421C9.763 3.89614 9.8602 3.95767 9.9846 4.03631C10.2334 4.19359 10.5911 4.41938 11.0275 4.69382C11.8999 5.24254 13.0877 5.98652 14.3482 6.76671C16.8241 8.29919 19.7117 10.0541 20.9563 10.6733L22.6457 7.27752C21.5976 6.75606 18.8903 5.11751 16.3444 3.54168C15.094 2.76772 13.9143 2.02884 13.0468 1.48324C12.6132 1.21052 12.2579 0.986281 12.0112 0.830324C11.8879 0.75235 11.7917 0.691456 11.7264 0.650121C11.6938 0.629453 11.6689 0.613676 11.6522 0.603098C11.6439 0.59781 11.6376 0.593821 11.6334 0.591172C11.6313 0.589847 11.6298 0.588857 11.6288 0.588206C11.6282 0.587881 11.6279 0.58764 11.6276 0.587485C11.6275 0.587408 11.6274 0.587356 11.6274 0.587317C11.6273 0.587287 11.6273 0.587278 10.6111 2.18848Z" fill="#3986EF"/>
</svg>
