<svg width="97" height="24" viewBox="0 0 97 24" fill="none" xmlns="http://www.w3.org/2000/svg">
<path d="M0 23.6783V1.63867L4.48993 0.512338V13.9986L11.8591 6.98237H16.9379L8.88028 14.638L17.4315 23.674H11.6989L4.48993 16.0523V21.722C4.48993 22.8018 3.59368 23.6783 2.4896 23.6783H0Z" fill="#0666EB"/>
<path d="M23.5537 23.9662C22.3283 23.9662 21.2502 23.746 20.3107 23.3099C19.3711 22.8738 18.6394 22.2683 18.1155 21.4976C17.5916 20.727 17.3275 19.842 17.3275 18.8385C17.3275 17.2379 17.9423 15.993 19.1806 15.1038C20.4146 14.2188 22.1119 13.7742 24.2767 13.7742C25.7618 13.7742 27.1603 13.9987 28.4679 14.4475V13.228C28.4679 12.2668 28.1605 11.5385 27.55 11.0516C26.9395 10.5604 26.0433 10.3148 24.8612 10.3148C24.1425 10.3148 23.3631 10.4249 22.5362 10.6493C21.7049 10.8737 20.7437 11.221 19.6526 11.691L18.0159 8.45595C19.3711 7.85891 20.6657 7.41007 21.8997 7.10944C23.1337 6.8088 24.372 6.6606 25.6189 6.6606C27.9137 6.6606 29.6975 7.19836 30.9748 8.2781C32.2521 9.35785 32.8929 10.878 32.8929 12.8427V21.7009C32.8929 22.7891 31.9923 23.6741 30.8752 23.6741H28.4679V22.4885C27.7708 23.0008 27.0131 23.3734 26.2078 23.6105C25.3981 23.8434 24.5149 23.962 23.5537 23.962M21.588 18.7411C21.588 19.3805 21.8694 19.8886 22.4409 20.2612C23.0081 20.6338 23.7615 20.8201 24.701 20.8201C25.4414 20.8201 26.1298 20.7312 26.7663 20.5491C27.3985 20.3671 27.9657 20.0961 28.4679 19.7319V17.2972C27.9224 17.0855 27.3552 16.9246 26.7663 16.8187C26.1775 16.7129 25.541 16.6578 24.8656 16.6578C23.8394 16.6578 23.0341 16.8441 22.4582 17.2167C21.878 17.5894 21.5923 18.0975 21.5923 18.7369" fill="#0666EB"/>
<path d="M42.6867 23.9958C41.115 23.9958 39.6602 23.7968 38.3309 23.403C36.9974 23.0092 35.8414 22.4375 34.8585 21.6881L37.0883 18.7706C38.0712 19.41 39.015 19.8927 39.92 20.2145C40.8249 20.5363 41.7255 20.693 42.6217 20.693C43.6262 20.693 44.4272 20.5279 45.029 20.1976C45.6309 19.8673 45.9296 19.4354 45.9296 18.8977C45.9296 18.47 45.7608 18.127 45.423 17.8729C45.0853 17.6147 44.5441 17.4368 43.8037 17.3267L40.5261 16.8482C38.8245 16.59 37.5343 16.0522 36.6597 15.2307C35.7851 14.4093 35.3478 13.3253 35.3478 11.9788C35.3478 10.8906 35.6379 9.95479 36.218 9.17567C36.7982 8.39656 37.6165 7.78682 38.673 7.35068C39.7338 6.91455 40.9937 6.69437 42.4572 6.69437C43.7041 6.69437 44.9208 6.86797 46.1115 7.20672C47.3022 7.5497 48.4192 8.07052 49.4714 8.77765L47.3108 11.6273C46.3713 11.0515 45.475 10.6365 44.6264 10.3782C43.7734 10.1199 42.9118 9.9929 42.0372 9.9929C41.2275 9.9929 40.5781 10.1411 40.0888 10.4417C39.5952 10.7424 39.3528 11.1362 39.3528 11.6273C39.3528 12.0762 39.526 12.4276 39.8767 12.6859C40.2274 12.9442 40.8249 13.1221 41.6778 13.2321L44.9208 13.7149C46.6224 13.952 47.9213 14.477 48.8176 15.2985C49.7138 16.1199 50.1598 17.1828 50.1598 18.4869C50.1598 19.554 49.8307 20.5025 49.1769 21.3239C48.5231 22.1454 47.6355 22.7975 46.5228 23.2802C45.4101 23.7629 44.1328 24 42.691 24" fill="#0666EB"/>
<path d="M52.3853 23.6782V1.59205L56.8752 0.287877V8.36271C58.1655 7.23215 59.7588 6.66475 61.6596 6.66475C62.9931 6.66475 64.1665 6.94845 65.1796 7.51585C66.1928 8.08325 66.9851 8.86236 67.5523 9.85319C68.1195 10.844 68.4053 12.0042 68.4053 13.3296V21.7431C68.4053 22.8144 67.5177 23.6782 66.4266 23.6782H63.9197V13.9689C63.9197 12.8807 63.6036 12.0212 62.9671 11.3902C62.3307 10.7593 61.4691 10.446 60.378 10.446C59.6116 10.446 58.9362 10.59 58.3473 10.8779C57.7585 11.1658 57.2649 11.5766 56.8709 12.1101V21.6881C56.8709 22.7848 55.9616 23.674 54.8402 23.674H52.3853V23.6782Z" fill="#0666EB"/>
<path d="M74.0385 4.99649C73.3414 4.99649 72.7396 4.7509 72.2373 4.25972C71.7351 3.76854 71.484 3.17997 71.484 2.49824C71.484 1.81652 71.7351 1.20254 72.2373 0.719833C72.7396 0.241356 73.3414 0 74.0385 0C74.7356 0 75.3634 0.241356 75.857 0.719833C76.3463 1.20254 76.593 1.79535 76.593 2.49824C76.593 3.20114 76.3463 3.76854 75.857 4.25972C75.3634 4.7509 74.7616 4.99649 74.0385 4.99649ZM71.813 6.98238H76.303V21.6162C76.303 22.7552 75.3591 23.6783 74.1944 23.6783H71.813V6.98238Z" fill="#1F3967"/>
<path d="M87.6902 23.9959C85.9843 23.9959 84.4473 23.6106 83.0704 22.8442C81.6936 22.0735 80.6025 21.0404 79.7928 19.7362C78.9831 18.432 78.5805 16.9712 78.5805 15.3452C78.5805 13.7192 78.9788 12.2542 79.7755 10.9415C80.5722 9.6289 81.6633 8.58726 83.0531 7.81661C84.4386 7.04597 85.9843 6.66488 87.6902 6.66488C89.3962 6.66488 90.9375 7.0502 92.3274 7.81661C93.7129 8.58726 94.804 9.62466 95.605 10.9415C96.4017 12.2542 96.8 13.7235 96.8 15.3452C96.8 16.967 96.4017 18.432 95.605 19.7362C94.8083 21.0404 93.7216 22.0735 92.3447 22.8442C90.9679 23.6148 89.4178 23.9959 87.6946 23.9959M87.6946 20.185C88.5908 20.185 89.3918 19.9733 90.1019 19.5457C90.812 19.118 91.3792 18.5379 91.8035 17.8011C92.2278 17.0644 92.44 16.2471 92.44 15.3495C92.44 14.4518 92.2278 13.6092 91.8035 12.8808C91.3792 12.1568 90.8076 11.5724 90.1019 11.1363C89.3918 10.7002 88.5908 10.48 87.6946 10.48C86.7983 10.48 86.0233 10.7002 85.3046 11.1363C84.5815 11.5724 84.0143 12.1568 83.603 12.8808C83.1873 13.6092 82.9795 14.4306 82.9795 15.3495C82.9795 16.2683 83.1873 17.0644 83.603 17.8011C84.0186 18.5379 84.5858 19.118 85.3046 19.5457C86.0233 19.9733 86.8243 20.185 87.6946 20.185Z" fill="#1F3967"/>
</svg>
