<svg xmlns="http://www.w3.org/2000/svg"  viewBox="0 0 48 22">
    <defs>
        <linearGradient id="a" x1="6.878%" y1="23.768%" y2="85.144%">
            <stop offset="0%" stop-color="#E4ECF3"/>
            <stop offset="100%" stop-color="#C4D4E3"/>
        </linearGradient>
    </defs>
    <g fill="none" fill-rule="nonzero">
        <path fill="#F6F8FA" d="M46.8 20.894c-4.053 0-37.586.239-44.649 0-4.722-8.845 6.032-16.326 14.99-10.533C25.596-7.117 49.417 4.445 46.8 20.894z"/>
        <path fill="url(#a)" d="M1.278 13.78c4.22-5.482 18.689-14.672 27.782-.04 8.463-4.075 14.09-1.99 16.882 6.26.66-10.27-4.326-13.781-14.956-10.533C22.55-8.013 4.615 1.876 1.278 13.78z" transform="matrix(-1 0 0 1 48.278 1)"/>
        <path stroke="#6680AD" stroke-width="1.5" d="M46.8 20.249c-4.053 0-37.586.238-44.649 0-4.722-8.845 6.032-16.326 14.99-10.533C25.596-7.763 49.417 3.8 46.8 20.25z"/>
    </g>
</svg>
