<svg xmlns="http://www.w3.org/2000/svg" viewBox="0 0 39 16">
    <defs>
        <linearGradient id="a" x1="6.878%" y1="23.768%" y2="85.144%">
            <stop offset="0%" stop-color="#E4ECF3"/>
            <stop offset="100%" stop-color="#C4D4E3"/>
        </linearGradient>
    </defs>
    <g fill="none" fill-rule="nonzero">
        <path fill="#F6F8FA" d="M1.25 15.825c3.253 0 30.16.175 35.826 0 3.789-6.484-4.84-11.968-12.027-7.721C18.264-4.71-.85 3.767 1.25 15.825z"/>
        <path fill="url(#a)" d="M0 10.101c3.393-4.018 15.03-10.755 22.342-.029 6.806-2.988 11.332-1.458 13.577 4.589.53-7.529-3.48-10.102-12.028-7.721C17.107-5.874 2.684 1.375 0 10.1z" transform="translate(2.035 1)"/>
        <path stroke="#6680AD" stroke-width="1.2" d="M1.25 15.11c3.253 0 30.16.176 35.826 0 3.789-6.483-4.84-11.967-12.027-7.72C18.264-5.424-.85 3.052 1.25 15.11z"/>
    </g>
</svg>
