<svg xmlns="http://www.w3.org/2000/svg" viewBox="0 0 606 289">
    <defs>
        <linearGradient id="a" x1="45.51%" x2="-5.193%" y1="40.004%" y2="0%">
            <stop offset="0%" stop-color="#E4ECF3"/>
            <stop offset="100%" stop-color="#C4D4E3"/>
        </linearGradient>
    </defs>
    <g fill="none" fill-rule="nonzero">
        <path fill="#F6F8FA" d="M9 62.308C75.99 37.522 142.074 22.42 207.25 17c80.255 26.59 132.223 77.15 63.6 272C131.399 235.582 44.116 160.018 9 62.308z"/>
        <path fill="url(#a)" d="M268.703 117.8C225.576 74.992 210.93 62.69 164.2 47.826 84.031 22.327 17.678 35.956 12 33.327c156.786-48.848 317.788-40.57 483.003 24.835-45.278 2.409-81.808 8.009-109.59 16.8-40.64 12.86-103.771 55.68-116.71 42.837z" transform="matrix(-1 0 0 1 508.003 1)"/>
        <path stroke="#6680AD" stroke-width="2" d="M605 78C406.643-31.237 184.033-13.375 1 63.892"/>
    </g>
</svg>
