<svg xmlns="http://www.w3.org/2000/svg"  viewBox="0 0 74 33">
    <defs>
        <linearGradient id="a" x1="0%" y1="-4.77%" y2="100%">
            <stop offset="0%" stop-color="#E4ECF3"/>
            <stop offset="100%" stop-color="#C4D4E3"/>
        </linearGradient>
    </defs>
    <g fill="none" fill-rule="nonzero">
        <path fill="#F6F8FA" d="M10.193 25.458H4.488c-5.57-.537-6.385 7.43 0 7.542h59.56c6.73 0 5.808-7.542 0-7.542h-2.897a9.356 9.356 0 0 0 1.357-4.876c0-5.06-3.963-9.162-8.852-9.162a8.568 8.568 0 0 0-3.66.817c-2.16-5.535-7.4-9.44-13.522-9.44-6.618 0-12.206 4.564-13.987 10.817a8.578 8.578 0 0 0-4.237-1.116c-4.889 0-8.852 4.102-8.852 9.162a9.4 9.4 0 0 0 .795 3.798z"/>
        <path fill="url(#a)" d="M55.203 28.989c4.649-.199 8.442-.199 11.38 0 4.077.085 8.453-.298 6.238-4.627-.333-.652-2.696-.935-7.089-.849 1.665-10.4-2.642-14.667-12.92-12.803C50.36.82 39.834.82 39.038 1.257c10.309 3.076 11.417 9.426 8.449 13.8 5.175-1.7 13.073.301 13.073 7.558 0 4.839-1.786 6.963-5.358 6.374z"/>
        <path stroke="#6680AD" stroke-width="1.5" d="M9.732 23.412h6.855l-.464-1.053a8.65 8.65 0 0 1-.73-3.496c0-4.651 3.632-8.412 8.1-8.412 1.372 0 2.692.353 3.87 1.02l.829.468.26-.916C30.176 4.975 35.553.75 41.719.75c5.682 0 10.726 3.588 12.824 8.963l.292.748.726-.342a7.817 7.817 0 0 1 3.34-.746c4.469 0 8.102 3.76 8.102 8.412a8.605 8.605 0 0 1-1.247 4.487l-.694 1.14h4.232c2.294 0 3.849 1.378 3.952 3.066.103 1.688-1.297 2.975-3.952 2.975H9.745c-2.483-.043-3.84-1.438-3.747-3.225.092-1.749 1.533-3.025 3.734-2.816z"/>
    </g>
</svg>
