<svg xmlns="http://www.w3.org/2000/svg"  viewBox="0 0 360 89">
    <defs>
        <linearGradient id="a" x1="45.51%" x2="-5.193%" y1="40.004%" y2="0%">
            <stop offset="0%" stop-color="#E4ECF3"/>
            <stop offset="100%" stop-color="#C4D4E3"/>
        </linearGradient>
    </defs>
    <g fill="none" fill-rule="nonzero">
        <path fill="#F6F8FA" d="M-2.821 40.807c43.366-16.093 86.145-25.9 128.337-29.418C177.469 28.653 211.11 61.482 166.687 188 76.414 153.315 19.911 104.251-2.82 40.807z"/>
        <path fill="url(#a)" d="M173.945 76.488c-27.918-27.795-37.4-35.783-67.65-45.434-51.897-16.557-94.851-7.708-98.527-9.415 101.496-31.717 205.72-26.342 312.673 16.126-29.311 1.564-52.959 5.2-70.944 10.909-26.308 8.35-67.176 36.152-75.552 27.814z" transform="matrix(-1 0 0 1 320.21 1)"/>
        <path stroke="#6680AD" stroke-width="1.5" d="M383 50.997C254.593-19.932 110.486-8.333-8 41.837"/>
    </g>
</svg>
