<svg xmlns="http://www.w3.org/2000/svg" viewBox="0 0 44 34">
    <g fill="none" fill-rule="evenodd">
        <path fill="#C4D4E3" fill-rule="nonzero" d="M25.425 30.403c-.785-1.003-1.373-2.033-1.896-3.212-.113-.255-.454-1.092-.654-1.56a43.653 43.653 0 0 0-.916-.224l-.288-.067-.256-.147a2.862 2.862 0 0 1-.988-.949 2.883 2.883 0 0 1-.475-1.546c-.03-.62.095-1.168.413-1.686.3-.492.72-.874 1.279-1.17.423-.21.936-.38 1.51-.508.192-.043.518-.107 1.027-.204.247-.047.518-.097.806-.15l.327-.06.033-.006c.18-.033.24-.14.2-.252-.138-.333-.32-.849-.539-1.527-.245-.761-.9-4.679-1.263-7.303a71.621 71.621 0 0 1-.3-2.513c-.19-1.584-.865-2.84-2.05-3.827C20.204 2.499 18.752 2 17 2c-1.752 0-3.204.5-4.395 1.492-1.183.986-1.86 2.242-2.044 3.772a73.709 73.709 0 0 1-.306 2.568c-.363 2.624-1.018 6.542-1.263 7.303a21.5 21.5 0 0 1-.5 1.43c-.08.213-.024.315.153.348l.04.007.329.06.885.165c.44.084.76.147.947.189.58.129 1.094.3 1.581.545.498.265.913.65 1.208 1.133.306.498.447 1.05.418 1.536-.005.634-.15 1.184-.48 1.696a2.855 2.855 0 0 1-1.045.98l-.205.112-.225.061-.354.098c-.382.108-.789.228-1.21.357a51.697 51.697 0 0 0-3.668 1.264c-3.038 1.188-4.55 2.18-4.866 2.916v.316C2 31.26 2.736 32 3.626 32l23.136-.147c-.499-.466-.947-.952-1.337-1.45zm-2.67-6.863c.38.092.803.2 1.258.323.772.209.972 2.732 2.987 5.308 1.384 1.768 3.867 3.567 7 4.636L3.64 34A3.646 3.646 0 0 1 0 30.348v-.631l.052-.172c.496-1.643 2.629-2.94 6.086-4.292a53.784 53.784 0 0 1 3.81-1.314 58.73 58.73 0 0 1 1.626-.472.866.866 0 0 0 .318-.307c.108-.166.159-.343.16-.625a.785.785 0 0 0-.122-.478 1.132 1.132 0 0 0-.441-.412 4.73 4.73 0 0 0-1.077-.359 35.312 35.312 0 0 0-.886-.176l-.873-.163-.365-.066c-1.412-.26-2.188-1.647-1.667-3.024.08-.19.24-.626.467-1.334.214-.667.895-4.86 1.186-6.966.104-.748.202-1.574.297-2.497.248-2.068 1.176-3.79 2.754-5.105C12.888.652 14.797 0 17 0s4.112.652 5.675 1.955c1.578 1.315 2.506 3.037 2.756 5.126.093.902.191 1.728.295 2.476.291 2.105.972 6.299 1.186 6.966.228.708.388 1.145.483 1.376.5 1.336-.278 2.724-1.687 2.982l-.36.066c-.272.05-.543.1-.795.148-.49.093-.8.155-.965.191a4.74 4.74 0 0 0-1.052.346c-.21.111-.358.249-.466.425-.095.154-.132.302-.12.546 0 .214.05.39.158.557a.873.873 0 0 0 .301.298c.09.02.206.048.345.082z"/>
        <path fill="#C4D4E3" fill-rule="nonzero" d="M34 34c-5.523 0-10-4.477-10-10s4.477-10 10-10 10 4.477 10 10-4.477 10-10 10zm0-2a8 8 0 1 0 0-16 8 8 0 0 0 0 16z"/>
        <path fill="#7AD468" d="M32.982 25.473v-.588c0-.447.092-.824.274-1.132.182-.307.506-.607.97-.899.37-.232.635-.442.797-.628a.953.953 0 0 0 .243-.643.516.516 0 0 0-.26-.455c-.173-.111-.399-.167-.677-.167-.688 0-1.492.244-2.413.731l-.95-1.859c1.135-.647 2.32-.97 3.555-.97 1.016 0 1.813.223 2.392.67.579.446.868 1.054.868 1.824 0 .552-.128 1.03-.386 1.433-.257.403-.669.785-1.234 1.145-.478.31-.778.536-.899.68a.766.766 0 0 0-.18.509v.349h-2.1zm-.294 2.392c0-.419.122-.743.366-.97.244-.228.603-.342 1.077-.342.456 0 .805.115 1.05.345.243.23.365.553.365.967 0 .415-.127.736-.38.964-.252.228-.598.342-1.035.342-.451 0-.805-.113-1.06-.338-.255-.226-.383-.548-.383-.968z"/>
    </g>
</svg>
