<svg xmlns="http://www.w3.org/2000/svg"  viewBox="0 0 34 40">
    <g fill="none" fill-rule="evenodd">
        <path fill="#C4D4E3" fill-rule="nonzero" d="M0 32h27v2H0zM0 6h27v2H0z"/>
        <rect width="25" height="37" x="1" y="1" fill-rule="nonzero" stroke="#C4D4E3" stroke-width="2" rx="4"/>
        <circle cx="24" cy="30" r="9" fill="#FFF" fill-rule="nonzero" stroke="#C4D4E3" stroke-width="2"/>
        <path fill="#7AD468" stroke="#7AD468" d="M27.193 27.154A.454.454 0 0 1 27.53 27c.127 0 .24.051.338.154A.482.482 0 0 1 28 27.5a.482.482 0 0 1-.132.346l-4.683 4.939-.058.061a.418.418 0 0 1-.33.154.418.418 0 0 1-.33-.154l-2.335-2.43a.482.482 0 0 1-.132-.347c0-.138.044-.254.132-.346a.454.454 0 0 1 .338-.154c.127 0 .24.052.337.154L22.79 31.8l4.404-4.646z"/>
        <path fill="#C4D4E3" fill-rule="nonzero" d="M7 11h14v2H7zM9 15h10v2H9z"/>
    </g>
</svg>
