<svg xmlns="http://www.w3.org/2000/svg"  viewBox="0 0 41 37">
    <g fill="none" fill-rule="evenodd">
        <path fill="#C4D4E3" fill-rule="nonzero" d="M35 35.293v-.25l-.009-.018-.595.039v.229H35zm.99-.333c.006.11.01.221.01.333v1h-6.717l4.736-1.927c.18-.072.356-.152.53-.237l1.342-.664.098 1.495zM21 26.977c0-1.104.18-2.185.53-3.21.007-.187.014-.332.019-.423l.014-.26.138-.22a14.69 14.69 0 0 0 .565-1c.09-.173.17-.34.24-.497.04-.092.076-.179.108-.261.018-.047.038-.104.06-.173.088-.28.188-.69.292-1.188a37.877 37.877 0 0 0 .325-1.795l.132-.847h.684c.059-.08.12-.229.169-.47.065-.328.14-.633.234-.954.018-.064.276-.897.323-1.09a2.389 2.389 0 0 0 .069-.79H23.88l.478-1.337c.056-.157.155-.53.258-1.128.149-.86.25-1.892.279-3.102C24.975 4.76 22.264 2 18 2c-4.263 0-6.965 2.748-6.895 6.224.026 1.22.127 2.26.28 3.123.102.582.2.947.256 1.1l.485 1.341h-1.028l-.004.07c-.013.245.011.456.077.717.045.179.286.946.303 1.004.102.347.183.672.25 1.021.05.25.115.402.177.485l.679.01.129.834a38.05 38.05 0 0 0 .325 1.8c.104.501.204.913.292 1.194.022.068.042.126.061.176a9.202 9.202 0 0 0 .347.76 13.869 13.869 0 0 0 .562.99l.141.222.014.262a46.99 46.99 0 0 1 .065 2.26c.006 1.626-.049 2.347-.428 2.81-.494.605-1.611 1.09-2.683 1.33-.289.063-.61.122-1.047.196l-.728.12a51.8 51.8 0 0 0-.724.124c-.849.152-1.473.3-1.968.477-2.43.875-4.24 2.056-4.775 3.643h22.036A9.96 9.96 0 0 1 21 26.977zm2.522-2.982l-.006.154-.052.144a7.979 7.979 0 0 0 4.517 10.073l4.736 1.927H0v-1c0-1.899 1.008-3.457 2.692-4.698 1.09-.803 2.255-1.354 3.569-1.827.623-.224 1.342-.394 2.292-.564.226-.04.454-.08.758-.13l.715-.117c.407-.069.7-.123.946-.177.568-.127 1.22-.394 1.476-.566a4.46 4.46 0 0 0 .034-.313c.025-.333.036-.777.034-1.3a45.05 45.05 0 0 0-.05-1.91 17.197 17.197 0 0 1-.512-.92 11.173 11.173 0 0 1-.432-.95 4.793 4.793 0 0 1-.103-.296 14.772 14.772 0 0 1-.344-1.392 39.99 39.99 0 0 1-.252-1.344 2.129 2.129 0 0 1-.37-.321c-.332-.36-.566-.852-.692-1.485a8.529 8.529 0 0 0-.205-.838c-.002-.007-.263-.837-.325-1.084a4.29 4.29 0 0 1-.134-1.31c.031-.58.202-1.042.455-1.371a14.404 14.404 0 0 1-.137-.685c-.17-.965-.282-2.108-.31-3.43C9.013 3.667 12.62 0 18 0c5.384 0 9.001 3.681 8.894 8.28a23.35 23.35 0 0 1-.307 3.395c-.047.27-.095.508-.14.714.254.33.425.793.457 1.377.023.449-.021.853-.127 1.292-.064.266-.343 1.168-.346 1.177a9.28 9.28 0 0 0-.194.79c-.125.624-.36 1.117-.694 1.475a2.11 2.11 0 0 1-.368.316l-.006.034c-.076.443-.159.885-.245 1.301-.116.56-.23 1.028-.343 1.385a4.813 4.813 0 0 1-.103.295 8.229 8.229 0 0 1-.144.346c-.086.194-.182.394-.288.6a16.661 16.661 0 0 1-.512.923 54.42 54.42 0 0 0-.012.295z"/>
        <path fill="#C4D4E3" fill-rule="nonzero" d="M31 36.854c-5.467 0-9.9-4.422-9.9-9.877 0-5.455 4.433-9.877 9.9-9.877 5.467 0 9.9 4.422 9.9 9.877 0 5.455-4.433 9.877-9.9 9.877zm0-1.8c4.474 0 8.1-3.617 8.1-8.077S35.474 18.9 31 18.9s-8.1 3.617-8.1 8.077 3.626 8.077 8.1 8.077z"/>
        <path fill="#7AD468" stroke="#7AD468" stroke-width=".9" d="M33.508 25.139a.411.411 0 0 1 .305-.139c.115 0 .217.046.306.139.08.083.12.187.12.312s-.04.23-.12.313l-4.237 4.456-.053.056a.378.378 0 0 1-.299.139.378.378 0 0 1-.299-.14l-2.111-2.193a.434.434 0 0 1-.12-.312c0-.125.04-.23.12-.313a.411.411 0 0 1 .305-.138c.115 0 .217.046.305.138l1.793 1.875 3.985-4.193z"/>
    </g>
</svg>
