<svg xmlns="http://www.w3.org/2000/svg" viewBox="0 0 35 38">
    <g fill="none" fill-rule="evenodd">
        <path fill="#C4D4E3" fill-rule="nonzero" d="M27.4 3.2a1.6 1.6 0 0 0-1.6-1.6H3.2a1.6 1.6 0 0 0-1.6 1.6v30.048a1.6 1.6 0 0 0 1.6 1.6h15.373a10.82 10.82 0 0 1-3.173-7.682c0-5.94 4.74-10.766 10.6-10.766.471 0 .939.031 1.4.093V3.2zM26 18c-4.97 0-9 4.104-9 9.166s4.03 9.166 9 9.166c.258 0 .514-.011.767-.033-.305.097-.63.149-.967.149H3.2a3.2 3.2 0 0 1-3.2-3.2V3.2A3.2 3.2 0 0 1 3.2 0h22.6A3.2 3.2 0 0 1 29 3.2v15.322A8.84 8.84 0 0 0 26 18z"/>
        <path fill="#C4D4E3" fill-rule="nonzero" d="M4.639 6h19.914v1.619H4.639zM4.639 10h19.914v1.619H4.639zM4.639 14h19.914v1.619H4.639zM5 26h5.564v1.619H5zM5 23h7.154v1.619H5zM25 37.132c-5.416 0-9.8-4.465-9.8-9.966 0-5.5 4.384-9.966 9.8-9.966s9.8 4.465 9.8 9.966c0 5.5-4.384 9.966-9.8 9.966zm0-1.6c4.525 0 8.2-3.743 8.2-8.366 0-4.624-3.675-8.366-8.2-8.366-4.525 0-8.2 3.742-8.2 8.366 0 4.623 3.675 8.366 8.2 8.366z"/>
        <path fill="#7AD468" d="M28.546 28.876c0 .725-.262 1.307-.786 1.747-.524.44-1.258.703-2.201.79v1.4h-.937V31.44c-1.112-.022-2.087-.218-2.925-.587v-1.805c.396.196.873.369 1.432.52.558.15 1.056.239 1.493.266v-2.12l-.458-.177c-.902-.355-1.541-.742-1.917-1.159-.376-.417-.564-.933-.564-1.548 0-.66.259-1.204.776-1.63.517-.426 1.238-.685 2.163-.776v-1.046h.937v1.019c1.043.045 1.987.255 2.83.628l-.643 1.6a7.39 7.39 0 0 0-2.187-.533v2.016c.889.342 1.52.638 1.897.89.376.25.652.525.827.826.175.301.263.652.263 1.053zm-2.057.103a.615.615 0 0 0-.233-.486c-.155-.132-.387-.269-.697-.41v1.702c.62-.105.93-.374.93-.806zm-2.749-4.15c0 .2.07.366.209.496.139.13.363.263.673.4v-1.607c-.588.087-.882.324-.882.711z"/>
    </g>
</svg>
