<svg xmlns="http://www.w3.org/2000/svg"  viewBox="0 0 59 219">
    <defs>
        <linearGradient id="a" x1="18.608%" y1="6.132%" y2="100%">
            <stop offset="0%" stop-color="#E4ECF3"/>
            <stop offset="44.733%" stop-color="#D4E0EB"/>
            <stop offset="100%" stop-color="#C4D4E3"/>
        </linearGradient>
    </defs>
    <g fill="none" fill-rule="evenodd">
        <path fill="#F6F8FA" d="M58.785 202.328L46.09 138H20.697L8 202.328z"/>
        <path stroke="#6680AD" stroke-width="2" d="M27.5 0v132.697"/>
        <g fill="#FDC130" fill-rule="nonzero">
            <path d="M40 209.984l-6.496-6.058c-.634-.592-1.648-.535-2.266.128-.618.662-.605 1.678.03 2.27l6.496 6.058c.635.592 1.65.534 2.267-.128.619-.664.603-1.68-.03-2.27zM29.544 217.175l-.31-8.877c-.03-.867-.788-1.544-1.694-1.512-.904.032-1.614.76-1.583 1.627l.31 8.877c.03.867.788 1.544 1.693 1.512.907-.032 1.614-.76 1.584-1.627zM17.05 213.813l6.057-6.497c.592-.634.535-1.648-.128-2.266-.662-.617-1.678-.605-2.27.03l-6.057 6.496c-.592.635-.534 1.65.128 2.267.663.619 1.678.604 2.27-.03z"/>
        </g>
        <path fill="url(#a)" fill-rule="nonzero" d="M39.215 198.037h11.214L38.66 139H28z" transform="translate(2)"/>
        <path stroke="#6680AD" stroke-width="2" d="M52.785 196.328L40.09 132H14.697L2 196.328z"/>
    </g>
</svg>
