<svg xmlns="http://www.w3.org/2000/svg" viewBox="0 0 29 108">
    <defs>
        <linearGradient id="a" x1="18.608%" y1="6.132%" y2="100%">
            <stop offset="0%" stop-color="#E4ECF3"/>
            <stop offset="44.733%" stop-color="#D4E0EB"/>
            <stop offset="100%" stop-color="#C4D4E3"/>
        </linearGradient>
    </defs>
    <g fill="none" fill-rule="evenodd">
        <path fill="#F6F8FA" d="M28.895 99.479l-6.237-31.628H10.185L3.947 99.479z"/>
        <path stroke="#6680AD" stroke-width="1.5" d="M13.526 0v65.244"/>
        <g fill="#FDC130" fill-rule="nonzero">
            <path d="M19.67 103.243l-3.19-2.976c-.312-.29-.81-.263-1.115.063-.303.326-.297.825.015 1.116l3.191 2.976c.312.29.81.262 1.114-.064.304-.326.297-.825-.014-1.115zM14.523 106.778l-.143-4.363c-.014-.426-.384-.758-.827-.741-.443.016-.79.375-.777.8l.144 4.364c.014.426.384.758.827.741.443-.016.79-.375.776-.8zM8.39 105.13l2.98-3.194c.29-.313.262-.81-.063-1.114-.325-.304-.825-.297-1.116.015l-2.978 3.194c-.291.312-.263.81.062 1.114.326.304.825.296 1.116-.015z"/>
        </g>
        <path fill="url(#a)" fill-rule="nonzero" d="M19.263 97.37h5.51L18.99 68.343h-5.237z" transform="translate(1)"/>
        <path stroke="#6680AD"  stroke-width="1.5"  d="M25.947 96.529l-6.236-31.628H7.237L1 96.529z"/>
    </g>
</svg>
