<svg xmlns="http://www.w3.org/2000/svg"  viewBox="0 0 591 238">
    <defs>
        <linearGradient id="a" x1="50%" x2="83.68%" y1="1.597%" y2="77.147%">
            <stop offset="0%" stop-color="#E4ECF3"/>
            <stop offset="100%" stop-color="#C4D4E3"/>
        </linearGradient>
        <linearGradient id="b" x1="0%" x2="80.815%" y1="-12.931%" y2="50%">
            <stop offset="0%" stop-color="#E4ECF3"/>
            <stop offset="100%" stop-color="#C4D4E3"/>
        </linearGradient>
        <linearGradient id="c" x1="10.368%" x2="86.324%" y1="23.348%" y2="78.986%">
            <stop offset="0%" stop-color="#E4ECF3"/>
            <stop offset="47.482%" stop-color="#DEE7F0"/>
            <stop offset="100%" stop-color="#C4D4E3"/>
        </linearGradient>
    </defs>
    <g fill="none" fill-rule="evenodd" transform="translate(1 1)">
        <path stroke="#6680AD" stroke-width="2" d="M0 220.825l67-1.325M83 219.5h507" opacity=".933"/>
        <path fill="#F6F8FA" d="M73.74 195L71 232h9.28L95 195z"/>
        <path stroke="#6680AD" stroke-width="2" d="M69.74 194L67 231h9.282L91 194z"/>
        <path fill="#F6F8FA" d="M478 198l14.72 37H502l-2.74-37zM68 164.649L77.212 53.21C79.74 27.41 97.45 8 118.471 8h341.284c20.252 0 37.554 18.047 40.965 42.731l13.35 113.918H68z"/>
        <path fill="url(#a)" d="M473.008 160.568l-19.393-53.427c10.621-12.72 11.904-34.88 3.85-66.48C449.294 14 421.082 9.648 407 8h46.615c20.251 0 36.204 2 40.965 42.731l13.35 113.918-34.922-4.08z"/>
        <path stroke="#6680AD" stroke-width="2" d="M62 109.649l9.212-78.004C73.74 13.585 91.45 0 112.471 0h341.284c20.252 0 37.554 12.633 40.965 29.91l13.35 79.739"/>
        <path fill="url(#b)" d="M63 198.328h447.68V179H63z"/>
        <path stroke="#6680AD" stroke-width="2" d="M60 198.328h450.68V179H60z"/>
        <path fill="#F6F8FA" d="M531.102 63h-9.521c-17.052 0-33.2 8.022-43.225 21.805-7.178 9.87-10.723 22.614-10.723 22.614l-182.858 2.904-182.86-2.904s-3.542-12.744-10.72-22.614C81.17 71.022 65.022 63 47.973 63h-9.524c-18.14 0-26.406 16.738-22.497 34.44 4.787 21.671 10.735 49.861 27.192 73.234C50.98 181.806 63.954 188.2 77.575 188.2h414.4c13.623 0 26.595-6.395 34.434-17.527 16.455-23.373 22.405-51.563 27.19-73.234C557.51 79.738 549.243 63 531.102 63z" opacity=".983"/>
        <path fill="#F6F8FA" d="M488.943 147.761H82.286c-5.682 0-10.286-4.487-10.286-10.024C72 120.209 86.58 106 104.562 106h365.425c16.15 0 29.241 12.759 29.241 28.498v3.239c0 5.537-4.604 10.024-10.285 10.024"/>
        <path fill="#F6F8FA" d="M277.167 140.62H89.691c-4.8 0-8.691-3.054-8.691-6.824C81 121.758 93.428 112 108.76 112h168.407c4.8 0 8.691 3.055 8.691 6.824v14.972c0 3.77-3.891 6.824-8.69 6.824M486.04 143.62H295.817c-4.869 0-8.817-3.374-8.817-7.54v-16.54c0-4.164 3.948-7.54 8.817-7.54h170.875c15.555 0 28.166 10.781 28.166 24.08 0 4.166-3.95 7.54-8.818 7.54"/>
        <path stroke="#6680AD" stroke-width="2" d="M96.913 106.692S93.154 91.285 85.738 81.1C75.378 66.877 58.69 58.598 41.072 58.598H31.23c-18.746 0-27.288 17.273-23.248 35.54 4.946 22.364 11.093 51.455 28.099 75.574 8.098 11.488 21.505 18.087 35.58 18.087h428.226c14.077 0 27.482-6.599 35.583-18.087 17.003-24.12 29.68-73.053 26.636-92.114-2.834-17.744-14.997-17.619-26.636-19-11.64-1.38-20.24-1.38-40.022 11.428-13.187 8.54-22.082 20.76-26.683 36.666" opacity=".983"/>
        <path stroke="#6680AD" stroke-width="2" d="M502.365 143.726c-5.16 2.706-9.635 4.059-13.422 4.059H82.286C76.604 147.785 72 143.405 72 138"/>
        <path stroke="#6680AD" stroke-width="2" d="M489.87 143.62H295.986c-4.962 0-8.986-3.907-8.986-8.731v-19.157c0-4.823 4.024-8.732 8.986-8.732H470.15c15.854 0 28.708 12.486 28.708 27.889 0 4.824-4.026 8.731-8.988 8.731zM497.245 198l2.737 37.104h-9.274L476 198zM252.218 107h28.61c3.34 0 5.35 2.6 6.03 7.8v23.918c-2.683 2.601-5.679 3.902-8.988 3.902H83.988c-4.964 0-8.988-3.8-8.988-8.493C75 119.145 87.853 107 103.708 107h9.83"/>
        <path fill="url(#c)" d="M242.332 121.283l-40.187 3.098c-4.496.347-8.422-3.011-8.77-7.503l-2.43-31.451c-.347-4.49 3.016-8.412 7.512-8.757l40.187-3.098c4.496-.347 8.421 3.01 8.769 7.5l2.431 31.454c.346 4.489-3.016 8.41-7.512 8.757" transform="rotate(20 220.394 98.976)"/>
        <path stroke="#6680AD" stroke-width="2" d="M235.242 127.82L191.811 115.7c-4.86-1.356-7.703-6.386-6.351-11.238l9.47-33.972c1.353-4.85 6.387-7.682 11.246-6.325l43.433 12.123c4.86 1.356 7.701 6.385 6.35 11.235l-9.47 33.974c-1.353 4.848-6.388 7.68-11.247 6.325z"/>
        <circle cx="286.5" cy="56.5" r="4.5" fill="#F6F8FA" fill-rule="nonzero" stroke="#FDC130" stroke-width="2"/>
        <circle cx="164.5" cy="56.5" r="4.5" fill="#F6F8FA" fill-rule="nonzero" stroke="#FDC130" stroke-width="2"/>
        <circle cx="404.5" cy="56.5" r="4.5" fill="#F6F8FA" fill-rule="nonzero" stroke="#FDC130" stroke-width="2"/>
        <path stroke="#6680AD" stroke-width="2" d="M175 57c35.18 9.187 67.958 9.187 98.336 0M297 57c35.18 9.187 67.958 9.187 98.336 0M413 51c8.008-14 18.663-22.667 31.967-26M161.967 51C153.959 37 143.303 28.333 130 25M414 59c8.008 14 18.663 22.667 31.967 26M162.828 66A164.752 164.752 0 0 0 160 71.327"/>
        <path fill="url(#c)" d="M171.412 124.736l-40.186 3.098c-4.496.347-8.423-3.011-8.77-7.503l-2.431-31.452c-.347-4.49 3.016-8.41 7.512-8.757l40.188-3.097c4.496-.348 8.42 3.01 8.768 7.5l2.431 31.454c.347 4.489-3.016 8.41-7.512 8.757"/>
        <path stroke="#6680AD" stroke-width="2" d="M172.517 124.367l-44.958 3.464c-5.03.388-9.423-3.366-9.812-8.388l-2.72-35.162c-.387-5.02 3.375-9.404 8.405-9.79l44.96-3.463c5.03-.389 9.42 3.366 9.81 8.385l2.72 35.165c.387 5.018-3.375 9.401-8.405 9.79z"/>
        <path fill="url(#b)" fill-rule="nonzero" d="M471 106.699c9.8.417 16.76 3.035 20.879 7.853-.032-14.392 17.142-43.206 47.059-51.272C509.782 60.76 487.136 75.233 471 106.7z"/>
    </g>
</svg>
