<?xml version="1.0" encoding="UTF-8"?>
<svg viewBox="0 0 289 119" version="1.1" xmlns="http://www.w3.org/2000/svg" xmlns:xlink="http://www.w3.org/1999/xlink">
    <!-- Generator: Sketch 52.5 (67469) - http://www.bohemiancoding.com/sketch -->
    <title>Sofa</title>
    <desc>Created with Sketch.</desc>
    <defs>
        <linearGradient x1="50%" y1="1.59717214%" x2="83.6795982%" y2="77.1467809%" id="linearGradient-1">
            <stop stop-color="#E4ECF3" offset="0%"></stop>
            <stop stop-color="#C4D4E3" offset="100%"></stop>
        </linearGradient>
        <linearGradient x1="0%" y1="-12.9313151%" x2="80.8145492%" y2="50%" id="linearGradient-2">
            <stop stop-color="#E4ECF3" offset="0%"></stop>
            <stop stop-color="#C4D4E3" offset="100%"></stop>
        </linearGradient>
        <linearGradient x1="10.3684706%" y1="23.3482189%" x2="86.323959%" y2="78.9861623%" id="linearGradient-3">
            <stop stop-color="#E4ECF3" offset="0%"></stop>
            <stop stop-color="#DEE7F0" offset="47.4817562%"></stop>
            <stop stop-color="#C4D4E3" offset="100%"></stop>
        </linearGradient>
    </defs>
    <g id="Landing-Consumo-Copy-3" stroke="none" stroke-width="1" fill="none" fill-rule="evenodd">
        <g id="Slide3" transform="translate(-12.000000, -504.000000)">
            <g id="Sofa" transform="translate(12.000000, 505.000000)">
                <path d="M0,109.476678 L32.8186441,108.819915" id="Path-4" stroke="#6680AD" stroke-width="1.5" opacity="0.932593936" fill-rule="nonzero"></path>
                <path d="M40.6559322,108.819915 L289,108.819915" id="Path-4-Copy" stroke="#6680AD" stroke-width="1.5" opacity="0.932593936" fill-rule="nonzero"></path>
                <polygon id="Fill-1" fill="#F6F8FA" points="36.1196526 96.6737288 34.7779661 115.016949 39.3240359 115.016949 46.5338983 96.6737288"></polygon>
                <polygon id="Stroke-2" stroke="#6680AD" stroke-width="1.5" points="34.1604278 96.1779661 32.8186441 114.521186 37.3650431 114.521186 44.5745763 96.1779661"></polygon>
                <polygon id="Fill-4" fill="#F6F8FA" points="234.138983 98.1610169 241.348845 116.504237 245.894915 116.504237 244.553229 98.1610169"></polygon>
                <path d="M33.3084746,81.6268017 L37.8208963,26.3795354 C39.0587496,13.5885201 47.7339315,3.96610169 58.0306586,3.96610169 L225.202103,3.96610169 C235.121944,3.96610169 243.597198,12.9133058 245.268087,25.1506452 L251.807015,81.6268017 L33.3084746,81.6268017 Z" id="Fill-7" fill="#F6F8FA"></path>
                <path d="M231.693657,79.6037389 L222.194237,53.1163268 C227.397002,46.8101993 228.025617,35.8240201 224.080083,20.1577893 C220.077882,6.94067797 206.258825,4.78358136 199.361017,3.96610169 C204.435066,3.96610169 212.046139,3.96610169 222.194237,3.96610169 C232.114079,3.96610169 239.928454,4.95762712 242.260221,25.1506452 L248.799149,81.6268017 L231.693657,79.6037389 Z" id="Fill-7-Copy" fill="url(#linearGradient-1)"></path>
                <path d="M30.3694915,54.3598525 L34.8819133,15.6886424 C36.1197665,6.7353661 44.7949484,4.26325641e-14 55.0916756,4.26325641e-14 L222.26312,4.26325641e-14 C232.182961,4.26325641e-14 240.658215,6.26273898 242.329104,14.828461 L248.868032,54.3598525" id="Stroke-9" stroke="#6680AD" stroke-width="1.5"></path>
                <polygon id="Fill-15" fill="url(#linearGradient-2)" points="30.859322 98.3238254 250.146283 98.3238254 250.146283 88.7415254 30.859322 88.7415254"></polygon>
                <polygon id="Stroke-17" stroke="#6680AD" stroke-width="1.5" points="29.3898305 98.3238254 250.146283 98.3238254 250.146283 88.7415254 29.3898305 88.7415254"></polygon>
                <path d="M260.150019,31.2330508 L255.486068,31.2330508 C247.133767,31.2330508 239.223575,35.2101112 234.31346,42.0433937 C230.797178,46.9364437 229.060855,53.2542738 229.060855,53.2542738 L139.491591,54.694043 L49.9215045,53.2542738 C49.9215045,53.2542738 48.1860043,46.9364437 44.6705462,42.0433937 C39.7596075,35.2101112 31.849415,31.2330508 23.4979379,31.2330508 L18.8331636,31.2330508 C9.94736975,31.2330508 5.89841818,39.531084 7.81339609,48.3070972 C10.1581326,59.0508226 13.0717641,73.026326 21.1326191,84.6135945 C24.9716311,90.1328483 31.3266244,93.3030051 37.9985853,93.3030051 L123.153355,93.3030051 L155.829827,93.3030051 L240.984597,93.3030051 C247.657381,93.3030051 254.011551,90.1328483 257.851387,84.6135945 C265.911418,73.026326 268.825873,59.0508226 271.169786,48.3070972 C273.084764,39.531084 269.035813,31.2330508 260.150019,31.2330508 Z" id="Stroke-19-Copy" fill="#F6F8FA" opacity="0.982700893"></path>
                <path d="M239.499121,73.2545593 L40.305987,73.2545593 C37.5231567,73.2545593 35.2677966,71.0297705 35.2677966,68.2846614 C35.2677966,59.5953127 42.4090614,52.5508475 51.2178123,52.5508475 L230.213945,52.5508475 C238.124296,52.5508475 244.537311,58.8760958 244.537311,66.6792216 L244.537311,68.2846614 C244.537311,71.0297705 242.281951,73.2545593 239.499121,73.2545593" id="Fill-20" fill="#F6F8FA"></path>
                <path d="M135.764893,69.7142847 L43.9334766,69.7142847 C41.5823475,69.7142847 39.6762712,68.2002135 39.6762712,66.3311592 C39.6762712,60.3631298 45.7638692,55.5254237 53.2738263,55.5254237 L135.764893,55.5254237 C138.116022,55.5254237 140.022098,57.0401487 140.022098,58.9085492 L140.022098,66.3311592 C140.022098,68.2002135 138.116022,69.7142847 135.764893,69.7142847" id="Fill-22" fill="#F6F8FA"></path>
                <path d="M238.077126,71.2015729 L144.90007,71.2015729 C142.515345,71.2015729 140.581356,69.5287954 140.581356,67.4638254 L140.581356,59.2631712 C140.581356,57.1989234 142.515345,55.5254237 144.90007,55.5254237 L228.599993,55.5254237 C236.219093,55.5254237 242.396675,60.8702221 242.396675,67.4638254 C242.396675,69.5287954 240.461851,71.2015729 238.077126,71.2015729" id="Fill-24" fill="#F6F8FA"></path>
                <path d="M47.470747,52.8936859 C47.470747,52.8936859 45.6297794,45.2559349 41.9970416,40.2065587 C36.9222687,33.154962 28.7481834,29.05084 20.1180917,29.05084 L15.2976954,29.05084 C6.11546163,29.05084 1.93143255,37.6139841 3.91029624,46.670379 C6.33325574,57.7573519 9.3440892,72.1793536 17.6738632,84.1368197 C21.640949,89.8324061 28.2079519,93.1038451 35.1024968,93.1038451 L123.098124,93.1038451 L156.864719,93.1038451 L244.860347,93.1038451 C251.755742,93.1038451 258.321895,89.8324061 262.289831,84.1368197 C270.618754,72.1793536 276.828473,47.9198207 275.337364,38.4703315 C273.949192,29.673176 267.99123,29.7354186 262.289831,29.05084 C256.588432,28.3662614 252.375602,28.3662614 242.686143,34.7162846 C236.226503,38.9496334 231.869689,45.0087671 229.615701,52.8936859" id="Stroke-19" stroke="#6680AD" stroke-width="1.5" opacity="0.982700893"></path>
                <path d="M246.073818,71.2542366 C243.545907,72.5955089 241.354341,73.266145 239.499121,73.266145 L40.305987,73.266145 C37.5231567,73.266145 35.2677966,71.0946301 35.2677966,68.4152542" id="Stroke-21" stroke="#6680AD" stroke-width="1.5"></path>
                <path d="M239.953323,71.2015729 L144.983179,71.2015729 C142.552563,71.2015729 140.581356,69.2642851 140.581356,66.8727887 L140.581356,57.3753944 C140.581356,54.9847344 142.552563,53.0466102 144.983179,53.0466102 L230.293814,53.0466102 C238.059535,53.0466102 244.355997,59.2365624 244.355997,66.8727887 C244.355997,69.2642851 242.383939,71.2015729 239.953323,71.2015729 Z" id="Stroke-25" stroke="#6680AD"></path>
                <polygon id="Stroke-5" stroke="#6680AD" points="243.565797 98.1610169 244.906592 116.555664 240.363543 116.555664 233.159322 98.1610169"></polygon>
                <path d="M123.54396,53.0466102 C131.251137,53.0466102 135.922545,53.0466102 137.558183,53.0466102 C139.193822,53.0466102 140.178404,54.3357223 140.511929,56.9139466 L140.511929,68.7710995 C139.197791,70.0609066 137.730233,70.7058102 136.109255,70.7058102 L41.1399621,70.7058102 C38.708495,70.7058102 36.7372881,68.8214245 36.7372881,66.4952333 C36.7372881,59.0675317 43.0328992,53.0466102 50.7994713,53.0466102 L55.61394,53.0466102" id="Stroke-23" stroke="#6680AD" stroke-width="1.5"></path>
                <path d="M118.730884,60.0613592 L98.9716129,61.6091203 C96.7609558,61.7826385 94.8321881,60.1280468 94.6633458,57.9126426 L93.4829814,42.3994581 C93.3149016,40.1848179 94.9700547,38.2490324 97.180711,38.076279 L116.940745,36.5285172 C119.151402,36.354999 121.079407,38.0095914 121.24825,40.2242309 L122.428614,55.7381801 C122.596694,57.9520555 120.941541,59.8878411 118.730884,60.0613592" id="Fill-26-Copy" fill="url(#linearGradient-3)" transform="translate(107.955797, 49.068819) rotate(20.000000) translate(-107.955797, -49.068819) "></path>
                <path d="M120.16467,59.8788824 L98.0590828,61.6092513 C95.585921,61.8032415 93.4281202,59.9534556 93.2392271,57.4766955 L91.9186887,40.1333882 C91.7306486,37.6574823 93.5823416,35.4933267 96.0555025,35.3001915 L118.161944,33.5698217 C120.635106,33.3758315 122.792053,35.2256183 122.980947,37.7015234 L124.301484,55.0456857 C124.489525,57.5207366 122.637832,59.6848922 120.16467,59.8788824 Z" id="Stroke-27-Copy" stroke="#6680AD" stroke-width="1.5" transform="translate(108.110086, 47.589536) rotate(20.000000) translate(-108.110086, -47.589536) "></path>
                <ellipse id="Oval-Copy-3" stroke="#FDC130" fill="#F6F8FA" fill-rule="nonzero" cx="140.336441" cy="28.0105932" rx="2.20423729" ry="2.2309322"></ellipse>
                <ellipse id="Oval-Copy-5" stroke="#FDC130" stroke-width="1.5" fill="#F6F8FA" fill-rule="nonzero" cx="80.5771186" cy="28.0105932" rx="2.20423729" ry="2.2309322"></ellipse>
                <ellipse id="Oval-Copy-4" stroke="#FDC130" fill="#F6F8FA" fill-rule="nonzero" cx="198.136441" cy="28.0105932" rx="2.20423729" ry="2.2309322"></ellipse>
                <path d="M85.720339,28.2584746 C102.952423,32.8131597 119.008404,32.8131597 133.888281,28.2584746" id="Path-6" stroke="#6680AD" stroke-width="1.5" fill-rule="nonzero"></path>
                <path d="M145.479661,28.2584746 C162.711745,32.8131597 178.767726,32.8131597 193.647603,28.2584746" id="Path-6-Copy" stroke="#6680AD" fill-rule="nonzero"></path>
                <path d="M202.3,25.2838983 C206.222471,18.3432203 211.441908,14.0466102 217.958312,12.3940678" id="Path-7" stroke="#6680AD" fill-rule="nonzero"></path>
                <path d="M63.6779661,25.2838983 C67.600437,18.3432203 72.8198744,14.0466102 79.3362785,12.3940678" id="Path-7-Copy-2" stroke="#6680AD" stroke-width="1.5" fill-rule="nonzero" transform="translate(71.507122, 18.838983) scale(-1, 1) translate(-71.507122, -18.838983) "></path>
                <path d="M202.789831,42.1398305 C206.712301,35.1991525 211.931739,30.9025424 218.448143,29.25" id="Path-7-Copy" stroke="#6680AD" fill-rule="nonzero" transform="translate(210.618987, 35.694915) scale(1, -1) translate(-210.618987, -35.694915) "></path>
                <path d="M78.3728814,35.3613405 C78.8550583,34.4810067 79.3168256,33.6006728 79.7581833,32.720339" id="Path-7-Copy-3" stroke="#6680AD" stroke-width="2" fill-rule="nonzero" transform="translate(79.065532, 34.040840) scale(-1, -1) translate(-79.065532, -34.040840) "></path>
                <path d="M83.9627708,61.8393738 L64.2783574,63.3751197 C62.0760757,63.5472954 60.1528816,61.8824177 59.9825393,59.655663 L58.7916646,44.0629997 C58.6220829,41.8370137 60.2692314,39.8931191 62.4715131,39.7217121 L82.1566869,38.1859662 C84.3589685,38.0137904 86.2814023,39.6786681 86.4517445,41.9046542 L87.6426192,57.4980861 C87.812201,59.7233035 86.1650524,61.667198 83.9627708,61.8393738" id="Fill-26" fill="url(#linearGradient-3)"></path>
                <path d="M84.5040356,61.6567505 L62.4821583,63.373676 C60.0183624,63.5661641 57.8667948,61.7048726 57.6762249,59.2154166 L56.3439375,41.7832099 C56.1542184,39.2946133 57.9969608,37.1213878 60.4607567,36.929759 L82.4834848,35.2128336 C84.9472807,35.0203455 87.0979975,36.881637 87.2885674,39.3702336 L88.6208548,56.8032997 C88.8105739,59.291037 86.9678315,61.4642624 84.5040356,61.6567505 Z" id="Stroke-27" stroke="#6680AD" stroke-width="1.5"></path>
                <path d="M230.710169,52.8973512 C235.510256,53.1041497 238.919298,54.401978 240.937298,56.7908363 C240.921512,49.6553729 249.334256,35.3707206 263.988033,31.3720062 C249.706731,30.1226748 238.61411,37.2977898 230.710169,52.8973512 Z" id="Path-8" fill="url(#linearGradient-2)" fill-rule="nonzero"></path>
            </g>
        </g>
    </g>
</svg>