<svg width="13,31" height="20" viewBox="0 0 50 50" fill="none" xmlns="http://www.w3.org/2000/svg" xmlns:xlink="http://www.w3.org/1999/xlink">
<path fill-rule="evenodd" clip-rule="evenodd" d="M43.2581 32.9426L43.4105 32.0862L43.2706 32.0406L43.2691 22.6135C43.269 21.056 42.0033 19.7903 40.4458 19.7903C38.8883 19.7903 37.6226 21.0562 37.6226 22.6136V24.3548C37.6226 24.718 37.328 25.0128 36.9646 25.0128C36.6013 25.0128 36.3066 24.7182 36.3066 24.3548V19.1315C36.3066 17.5742 35.0413 16.3082 33.4833 16.3082C31.9259 16.3082 30.66 17.5735 30.66 19.1315V22.6135C30.66 22.9766 30.3652 23.2715 30.002 23.2715C29.6388 23.2715 29.344 22.9769 29.344 22.6135V15.6494C29.344 14.0921 28.0787 12.8261 26.5207 12.8261C24.9634 12.8261 23.6975 14.0915 23.6974 15.6494L23.697 22.6131C23.697 22.9762 23.4022 23.2711 23.039 23.2711C22.6758 23.2711 22.381 22.9765 22.381 22.6131V6.94536C22.381 5.38801 21.1157 4.12207 19.5577 4.12207C18.0004 4.12207 16.7345 5.38736 16.7345 6.94536V30.209C16.7345 30.475 16.5745 30.7148 16.3282 30.817C16.0819 30.919 15.7989 30.8626 15.6107 30.6744L10.9427 26.0064C10.3919 25.4556 9.66664 25.1804 8.94627 25.1804C8.22558 25.1804 7.50108 25.4552 6.94981 26.0064C6.41806 26.5382 6.12262 27.2502 6.12262 28.0029C6.12262 28.7556 6.41806 29.4676 6.94981 29.9994L19.0419 42.0913L19.0474 42.0969L19.0496 42.0991C21.729 44.8252 25.3137 46.3292 29.1344 46.3292C36.6144 46.3292 42.815 40.4858 43.2485 33.0233C43.2494 33.0091 43.2507 32.9949 43.2524 32.9807C43.254 32.9679 43.2559 32.9552 43.2581 32.9426ZM19.0419 42.0913C19.0371 42.0864 19.0333 42.0823 19.0305 42.0793L19.0384 42.0876L19.0419 42.0913ZM17.5943 30.8764L16.3282 30.817L16.5636 31.7939C16.6131 31.7787 16.6622 31.7611 16.7106 31.741C17.1138 31.574 17.4255 31.26 17.5943 30.8764ZM42.2706 32.0328L42.2707 32.5544L43.4105 32.0862L42.2706 32.0328ZM20.051 41.6828C19.9527 41.5886 19.8555 41.4926 19.7596 41.395C19.7584 41.3938 19.7573 41.3925 19.7561 41.3913M19.7547 41.3898C19.7538 41.3888 19.7529 41.3879 19.752 41.387C19.751 41.386 19.75 41.3851 19.7489 41.3843L18.5974 40.2328L19.0464 42.0956L20.051 41.6828" fill="black"/>
<path d="M40.6432 17.6682C39.9416 17.6682 39.2726 17.8093 38.663 18.065C38.0993 15.8387 36.0787 14.1861 33.6791 14.1861C32.9776 14.1861 32.3085 14.3272 31.6989 14.5829C31.1352 12.3566 29.1146 10.7041 26.7154 10.7041C26.0733 10.7041 25.4586 10.8222 24.8922 11.0382L24.8918 7.13999C24.8918 4.30557 22.5857 2 19.7518 2C16.9173 2 14.6118 4.30607 14.6118 7.13999V26.4007L12.7747 24.5636C10.7707 22.5596 7.50939 22.5596 5.50539 24.5636C4.5343 25.5347 4 26.8253 4 28.1978C4 29.5708 4.53469 30.8618 5.50539 31.832L17.5913 43.9179C20.7106 47.0916 24.878 48.8392 29.3271 48.8392C37.9314 48.8392 45.0791 42.195 45.7346 33.6574C45.7671 33.5278 45.7842 33.3931 45.7842 33.2539L45.7838 22.8088C45.7838 19.9744 43.4781 17.6688 40.6438 17.6688L40.6432 17.6682ZM42.4665 32.9615C42.455 33.0261 42.4471 33.0923 42.4431 33.1593C42.0404 40.0921 36.2785 45.5233 29.3273 45.5233C25.7736 45.5233 22.4445 44.126 19.9525 41.589C19.949 41.5854 19.9458 41.5815 19.9418 41.5783L7.84981 29.4863C7.50538 29.1419 7.31552 28.6841 7.31552 28.197C7.31552 27.7098 7.50538 27.252 7.84981 26.9076C8.20535 26.5521 8.67187 26.3745 9.13917 26.3745C9.60609 26.3745 10.0734 26.5525 10.4285 26.9076L15.0965 31.5756C15.5709 32.05 16.284 32.1915 16.9035 31.9351C17.5235 31.6782 17.9274 31.0738 17.9274 30.4031V7.13941C17.9274 6.13384 18.7455 5.31612 19.7506 5.31612C20.7562 5.31612 21.5739 6.13421 21.5739 7.13941V22.8072C21.5739 23.7231 22.3167 24.4652 23.2319 24.4652C24.1475 24.4652 24.8899 23.7224 24.8899 22.8072L24.8903 15.8435C24.8903 14.8379 25.7084 14.0202 26.7136 14.0202C27.7192 14.0202 28.5369 14.8383 28.5369 15.8435V22.8076C28.5369 23.7235 29.2797 24.4656 30.1949 24.4656C31.1105 24.4656 31.8529 23.7228 31.8529 22.8076V19.3256C31.8529 18.32 32.671 17.5023 33.6762 17.5023C34.6817 17.5023 35.4995 18.3204 35.4995 19.3256V24.5489C35.4995 25.4648 36.2422 26.2069 37.1575 26.2069C38.0734 26.2069 38.8155 25.4641 38.8155 24.5489V22.8077C38.8155 21.8025 39.6335 20.9844 40.6387 20.9844C41.6439 20.9844 42.462 21.8025 42.462 22.8077L42.4636 32.9606L42.4665 32.9615Z" fill="white"/>
</svg>
