<svg width="1366" height="576" viewBox="0 0 1366 576" fill="none" xmlns="http://www.w3.org/2000/svg">
<path d="M523.757 384.368C505.901 410.405 484.74 433.629 460.409 451.912C448.271 461.075 435.42 469.077 422.014 475.783C408.567 482.39 394.613 487.797 380.295 491.818C351.652 499.867 321.693 502.565 291.923 500.567C284.513 500.042 277.21 499.218 269.91 497.834C262.623 496.459 255.388 494.676 248.229 492.508C241.068 490.346 234.009 487.7 227.037 484.776C223.542 483.337 220.103 481.717 216.656 480.125C213.24 478.433 209.818 476.764 206.453 474.933" stroke="#FDDA24" stroke-width="24.8991" stroke-linecap="round"/>
<path d="M435.901 485.525C427.527 489.975 418.91 493.881 410.164 497.406C401.396 500.878 392.448 503.8 383.406 506.317C374.365 508.854 365.177 510.75 355.947 512.285C346.712 513.786 337.414 514.879 328.082 515.418C318.753 515.979 309.399 516.096 300.054 515.774L296.55 515.65L293.048 515.45C290.716 515.315 288.384 515.184 286.017 514.941C283.659 514.725 281.298 514.54 278.95 514.204C276.601 513.894 274.244 513.638 271.908 513.216C253.16 510.262 234.804 504.63 217.285 496.987C199.748 489.353 183.04 479.735 167.173 468.862C151.296 457.987 136.232 445.875 121.812 433.024C92.9912 407.26 66.7248 378.635 41.5908 349.177" stroke="#00C389" stroke-width="14.7858" stroke-linecap="round"/>
<path d="M125.827 417.392C93.9767 388.218 64.9264 355.303 36.8138 321.449C8.68246 287.566 -18.4167 252.517 -46.7666 218.34" stroke="#9063CD" stroke-width="15.3225" stroke-linecap="round"/>
<path d="M1160.34 64.3555C1145.86 65.664 1131.46 67.9687 1117.27 71.2381C1103.07 74.507 1089.11 78.8338 1075.44 84.0335C1061.78 89.2445 1048.42 95.3785 1035.47 102.379L1030.64 105.056C1029.04 105.962 1027.4 106.808 1025.84 107.79L1016.36 113.519L1007.07 119.603C1004 121.66 1001.01 123.87 997.969 125.997C973.948 143.46 951.816 164.018 932.414 187.309L928.753 191.653L925.229 196.128L921.714 200.612L919.957 202.854L918.273 205.163L911.548 214.405L905.123 223.897C896.727 236.69 888.942 249.955 881.818 263.64" stroke="#FDDA24" stroke-width="24.8991" stroke-linecap="round"/>
<path d="M1399.81 165.849C1376.41 143.304 1350 124.583 1321.73 110.483C1293.46 96.3721 1263.35 86.8995 1232.71 82.2953C1202.08 77.677 1170.92 77.9124 1140.48 82.8439C1110.03 87.7651 1080.29 97.3817 1052.37 111.256" stroke="#00C389" stroke-width="20.7" stroke-linecap="round"/>
<path d="M1463.87 212.638L1444.53 191.101L1434.85 180.333L1430.01 174.949C1429.2 174.051 1428.42 173.154 1427.58 172.257L1425.06 169.566C1411.67 155.127 1397.17 141.883 1381.75 130.048C1379.86 128.509 1377.85 127.155 1375.9 125.71L1370.02 121.437L1363.99 117.401C1361.97 116.078 1360 114.659 1357.93 113.433L1351.77 109.644C1350.74 109.018 1349.72 108.367 1348.68 107.763L1345.54 105.992L1339.26 102.451C1337.16 101.279 1335 100.236 1332.88 99.1233C1315.82 90.3722 1298.13 83.0817 1279.97 77.6631" stroke="#9063CD" stroke-width="10.5342" stroke-linecap="round"/>
</svg>