<svg xmlns="http://www.w3.org/2000/svg" width="144" height="48" viewBox="0 0 144 48">
    <defs>
        <linearGradient id="vd4qik215a" x1="5%" x2="102.182%" y1="71.489%" y2="22.768%">
            <stop offset="0%" stop-color="#3157FA"/>
            <stop offset="99.79%" stop-color="#0E199A"/>
        </linearGradient>
    </defs>
    <g fill="none" fill-rule="evenodd">
        <g>
            <g>
                <g>
                    <g fill="#DA011C">
                        <path d="M35.384 1.486L30.614 1.486 24.314 13.096 24.224 13.096 22.424 1.486 17.744 1.486 20.624 18.496 25.664 18.496zM61.214 18.496L65.444 18.496 69.044.766 64.724.766zM89.564 17.596c1.26.54 3.06 1.35 5.67 1.08 4.41-.45 6.66-1.71 7.02-4.86.45-4.14-6.39-2.7-6.48-4.68 0-.9 1.44-1.26 2.43-1.26 1.53 0 3.06.81 4.41 1.53l.63-3.33c-1.62-.54-4.05-.81-5.13-.81-3.24 0-6.84 1.8-6.84 4.77 0 4.32 6.48 2.88 6.48 4.68 0 1.08-1.62 1.26-2.34 1.26-1.26 0-3.33-.45-5.04-1.89l-.81 3.51zM56.084 1.486L51.404 1.486 45.014 13.096 44.924 13.096 43.124 1.486 38.444 1.486 41.324 18.496 46.364 18.496zM68.414 18.496L72.734 18.496 76.244.766 71.924.766z" transform="translate(-89 -40) translate(89 40) translate(39.216 7.784)"/>
                        <path fill-rule="nonzero" d="M83.174 18.496h4.5c.45-3.78 1.44-6.84 1.62-8.82.27-2.79-1.53-4.32-5.67-4.32-2.07 0-3.69.27-5.58.54l-.45 3.15c1.53-.72 3.33-.99 4.95-.99 1.53 0 2.34.63 2.34 1.53 0 .18 0 .36-.09.54-.63-.09-1.44.09-2.34.09-3.96.18-7.02 1.8-7.29 4.86-.18 2.52 1.08 3.69 3.87 3.69 1.71 0 2.79-.63 4.23-1.62v.27l-.09 1.08zm-3.6-3.42c-.18-1.44.99-2.43 3.42-2.52.27 0 .81-.09 1.35-.09-.18 1.44-.45 2.7-.45 2.7-.72.54-1.53.81-2.43.9-.9.09-1.8-.18-1.89-.99zM.104 18.496h4.59l1.89-3.6h5.94l.36 3.6h4.68l-2.88-17.01h-4.95l-9.63 17.01zm11.97-6.66h-3.87l3.06-5.67.81 5.67zM53.924 18.496h4.32l2.52-12.78h-4.32l-2.52 12.78zm2.88-14.67h4.59l.63-3.06h-4.59l-.63 3.06z" transform="translate(-89 -40) translate(89 40) translate(39.216 7.784)"/>
                    </g>
                    <g fill="#283747">
                        <path fill-rule="nonzero" d="M7.29 1.08c.72 0 1.35.09 1.89.36.54.27.99.54 1.35.9.36.36.63.81.81 1.35.18.54.27 1.08.27 1.62 0 .81-.18 1.53-.45 2.34-.27.72-.72 1.44-1.35 1.98-.54.63-1.26 1.08-2.16 1.44-.81.36-1.8.54-2.88.54H.72L3.06 1.08h4.23zM5.31 9.99c.63 0 1.26-.09 1.8-.36s.99-.54 1.44-.99c.36-.45.72-.9.9-1.44.18-.54.36-1.08.36-1.62 0-.36-.09-.81-.18-1.17-.09-.36-.27-.63-.45-.9-.27-.27-.54-.45-.9-.63s-.81-.27-1.35-.27H4.77L3.15 9.99h2.16zM13.95 11.61h-1.71l1.62-7.29h1.71l-1.62 7.29zm.18-9.36c0-.18 0-.36.09-.54.09-.18.18-.27.27-.36.09-.09.27-.18.45-.18.18-.09.27-.09.45-.09s.45.09.63.18.27.36.27.54c0 .18 0 .36-.09.54-.09.18-.18.27-.27.36-.09.09-.27.18-.45.27-.18.09-.27.09-.45.09s-.45-.09-.63-.18-.27-.36-.27-.63zM16.11 13.41c.45.27.99.45 1.53.63s1.08.18 1.62.09.99-.27 1.44-.63c.45-.36.72-.9.9-1.62l.36-1.44c-.36.45-.72.81-1.26.99-.54.18-.99.36-1.62.36-.45 0-.81-.09-1.17-.27-.36-.18-.72-.36-.9-.72-.27-.27-.45-.72-.54-1.17-.09-.45-.09-1.08.09-1.71.18-.63.36-1.26.72-1.71.36-.45.72-.9 1.17-1.17.45-.27.99-.54 1.53-.63.54-.18 1.17-.18 1.71-.18s1.08.09 1.53.18c.54.09.99.27 1.44.54l-1.53 6.93c-.18.99-.63 1.71-1.17 2.34-.54.54-1.17.99-1.89 1.17-.72.18-1.44.27-2.25.18-.81-.09-1.53-.36-2.16-.72l.45-1.44zm6.75-7.47c-.45-.18-.99-.36-1.53-.36-.36 0-.63.09-.99.18s-.63.27-.9.45-.54.45-.72.72c-.18.27-.36.63-.45 1.08-.09.36-.09.63-.09.99 0 .27.09.54.18.72.09.18.27.36.45.45.18.09.45.18.81.18.36 0 .63-.09.99-.18l.81-.54c.27-.27.45-.45.63-.72.18-.27.27-.54.36-.81l.45-2.16zM27.18 11.61h-1.71l1.62-7.29h1.71l-1.62 7.29zm.18-9.36c0-.18 0-.36.09-.54.09-.18.18-.27.27-.36.09-.09.27-.18.45-.18.18-.09.27-.09.45-.09s.45.09.63.18.27.36.27.54c0 .18 0 .36-.09.54-.09.18-.18.27-.27.36-.09.09-.27.18-.45.27-.18.09-.27.09-.45.09s-.45-.09-.63-.18-.27-.36-.27-.63z" transform="translate(-89 -40) translate(89 40) translate(39.216 7.784) translate(51.584 22.816)"/>
                        <path d="M33.48 4.32h2.61l-.27 1.17h-2.7l-.72 3.24c-.18.63-.09 1.08.09 1.35s.54.36.99.36c.36 0 .9-.09 1.35-.27l-.09 1.26c-.72.18-1.44.36-1.98.36-.36 0-.72-.09-1.08-.18-.36-.09-.54-.27-.72-.54-.18-.27-.27-.54-.36-.9-.09-.36 0-.81.09-1.35l.72-3.24-1.53-.09.27-1.08h1.53l.63-2.25h1.53l-.36 2.16z" transform="translate(-89 -40) translate(89 40) translate(39.216 7.784) translate(51.584 22.816)"/>
                        <path fill-rule="nonzero" d="M43.65 9.45c0 .18-.09.36-.09.45v.36c0 .09.09.18.18.18s.27.09.45 0l-.27 1.08c-.27.09-.54.09-.81.09s-.45-.09-.72-.18c-.18-.09-.36-.27-.36-.45-.09-.18-.09-.54 0-.9-.36.54-.81.9-1.35 1.17-.54.27-1.08.45-1.71.45-.54 0-.99-.09-1.44-.27-.36-.18-.72-.45-.9-.81-.18-.36-.36-.81-.36-1.26-.09-.45 0-.99.09-1.44.18-.63.36-1.17.72-1.62.27-.45.72-.81 1.17-1.17.45-.27.9-.54 1.53-.72.54-.18 1.17-.27 1.8-.18.54 0 1.08.09 1.62.18s.99.27 1.44.54l-.99 4.5zm-.9-3.6l-.81-.27c-.27-.09-.54-.09-.81-.09-.72 0-1.35.18-1.89.63-.54.36-.9.99-1.08 1.8-.09.36-.09.63-.09.9s.09.54.18.72c.09.18.27.36.45.54.18.18.45.18.81.18.36 0 .63-.09.9-.18s.54-.27.81-.45.45-.45.63-.72c.18-.27.27-.63.36-.9l.54-2.16z" transform="translate(-89 -40) translate(89 40) translate(39.216 7.784) translate(51.584 22.816)"/>
                        <path d="M49.77.54L47.88 9c-.09.54-.09.9 0 1.08.09.18.36.27.72.27h.27c.09 0 .27 0 .36-.09l-.27 1.26c-.18 0-.36.09-.54.09h-.54c-.81 0-1.44-.18-1.71-.63s-.36-1.08-.09-2.16L47.97.36h1.8v.18z" transform="translate(-89 -40) translate(89 40) translate(39.216 7.784) translate(51.584 22.816)"/>
                    </g>
                </g>
                <g>
                    <path fill="url(#vd4qik215a)" d="M28.411 7.458c-.834 2.46-1.086 3.607 0 2.216C34.651 1.314 41.514 0 41.514 0c-4.546 1.972-7.666 5.166-7.666 5.166.803.751 1.337 1.597 1.872 2.536 3.209 6.48-1.07 15.403-11.409 20.757-9.09 4.696-20.054 3.57-23.262-2.912-3.209-6.48 1.07-15.121 11.14-20.569 6.596-3.57 13.994-3.945 18.896-1.597-1.373 1.383-2.022 2.155-2.674 4.077z" transform="translate(-89 -40) translate(89 40) translate(.297)"/>
                    <path fill="#FFF" d="M31.082 3.369c-6.687 4.21-9.986 13.007-9.986 13.007-4.28-6.55-14.265-5.053-14.265-5.053 15.335 2.433 14.265 14.69 14.265 14.69 1.337-6.737 6.152-14.784 7.311-16.375C34.648 1.31 41.514 0 41.514 0 36.43 0 31.082 3.369 31.082 3.369M17.53 18.902s-9.273-1.59-9.273 2.059c0 1.497 1.516 3.462 6.509 4.21.891.188 3.923.562 5.884-.748 0 0-1.159 2.62-6.865 2.152-.98-.093-6.776-.561-8.827-4.491-.535-1.03-.624-4.024 3.656-4.773 2.407-.374 6.687-.093 8.916 1.591" transform="translate(-89 -40) translate(89 40) translate(.297)"/>
                </g>
            </g>
        </g>
    </g>
</svg>
