<svg width="150" height="150" viewBox="0 0 150 150" fill="none" xmlns="http://www.w3.org/2000/svg">
<path fill-rule="evenodd" clip-rule="evenodd" d="M71.875 112.5C73.6009 112.5 75 113.899 75 115.625V131.25H96.875C98.6009 131.25 100 132.649 100 134.375C100 136.101 98.6009 137.5 96.875 137.5H46.875C45.1491 137.5 43.75 136.101 43.75 134.375C43.75 132.649 45.1491 131.25 46.875 131.25H68.75V115.625C68.75 113.899 70.1491 112.5 71.875 112.5Z" fill="#FF7F37"/>
<path fill-rule="evenodd" clip-rule="evenodd" d="M71.875 18.75C49.4134 18.75 31.2501 36.9134 31.2501 59.375L31.25 59.3798C31.2344 69.5714 35.0678 79.3931 41.9831 86.8796C43.1542 88.1474 43.0757 90.1245 41.8079 91.2955C40.5402 92.4666 38.5631 92.3882 37.392 91.1204C29.4084 82.4773 24.9826 71.1386 25.0001 59.3726C25.0013 33.4603 45.9625 12.5 71.875 12.5C73.6009 12.5 75.0001 13.8991 75.0001 15.625C75.0001 17.3509 73.6009 18.75 71.875 18.75ZM25.0001 59.3726C25.0001 59.3718 25.0001 59.371 25.0001 59.3702L28.1251 59.375H25.0001C25.0001 59.3742 25.0001 59.3734 25.0001 59.3726Z" fill="#FDDA24"/>
<path fill-rule="evenodd" clip-rule="evenodd" d="M114.709 68.8806C116.363 69.3729 117.305 71.1129 116.813 72.7671C111.054 92.1182 93.1128 106.251 71.8799 106.251C58.2192 106.251 45.9596 100.42 37.3936 91.1177C36.2245 89.8481 36.3059 87.8711 37.5755 86.702C38.8451 85.5329 40.8221 85.6144 41.9912 86.8839C49.4252 94.9568 60.0406 100.001 71.8799 100.001C90.272 100.001 105.831 87.7584 110.822 70.9845C111.314 69.3303 113.055 68.3884 114.709 68.8806Z" fill="#9063CD"/>
<path fill-rule="evenodd" clip-rule="evenodd" d="M68.75 15.625C68.75 13.8991 70.1491 12.5 71.875 12.5C97.7884 12.5 118.75 33.4616 118.75 59.375C118.75 64.0497 118.082 68.5415 116.804 72.7773C116.306 74.4297 114.563 75.3652 112.91 74.8669C111.258 74.3686 110.322 72.6251 110.821 70.9727C111.918 67.3335 112.5 63.4503 112.5 59.375C112.5 36.9134 94.3366 18.75 71.875 18.75C70.1491 18.75 68.75 17.3509 68.75 15.625Z" fill="#00C389"/>
<path fill-rule="evenodd" clip-rule="evenodd" d="M119.444 89.5809C120.846 90.5874 121.167 92.5399 120.16 93.9419C118.313 96.5141 116.204 99.019 113.831 101.392C90.6717 124.551 53.0704 124.547 29.8525 101.395C28.6304 100.176 28.6276 98.1974 29.8462 96.9753C31.0649 95.7532 33.0435 95.7504 34.2656 96.969C55.0477 117.692 88.6965 117.688 109.412 96.9722C111.539 94.8447 113.43 92.5996 115.083 90.2969C116.09 88.8949 118.042 88.5743 119.444 89.5809Z" fill="#F5B6CD"/>
<path fill-rule="evenodd" clip-rule="evenodd" d="M109.413 17.4172C110.634 16.1969 112.612 16.1969 113.833 17.4172C134.682 38.2665 136.789 70.7239 120.164 93.946C119.159 95.3494 117.207 95.6726 115.804 94.6679C114.401 93.6632 114.077 91.7112 115.082 90.3078C129.957 69.53 128.064 40.4874 109.413 21.8367C108.193 20.6163 108.193 18.6376 109.413 17.4172Z" fill="#00CCEA"/>
</svg>
