<svg width="150" height="150" viewBox="0 0 150 150" fill="none" xmlns="http://www.w3.org/2000/svg">
<path fill-rule="evenodd" clip-rule="evenodd" d="M59.375 31.25C57.6634 31.25 56.25 32.6634 56.25 34.375V46.875C56.25 48.6009 54.8509 50 53.125 50C51.3991 50 50 48.6009 50 46.875V34.375C50 29.2116 54.2116 25 59.375 25H90.625C95.7884 25 100 29.2116 100 34.375V46.875C100 48.6009 98.6009 50 96.875 50C95.1491 50 93.75 48.6009 93.75 46.875V34.375C93.75 32.6634 92.3366 31.25 90.625 31.25H59.375Z" fill="#FDDA24"/>
<path fill-rule="evenodd" clip-rule="evenodd" d="M21.875 75C23.6009 75 25 76.3991 25 78.125V115.625C25 117.337 26.4134 118.75 28.125 118.75H121.875C123.587 118.75 125 117.337 125 115.625V103.125C125 101.399 126.399 100 128.125 100C129.851 100 131.25 101.399 131.25 103.125V115.625C131.25 120.788 127.038 125 121.875 125H28.125C22.9616 125 18.75 120.788 18.75 115.625V78.125C18.75 76.3991 20.1491 75 21.875 75Z" fill="#9063CD"/>
<path fill-rule="evenodd" clip-rule="evenodd" d="M93.75 46.875C93.75 45.1491 95.1491 43.75 96.875 43.75H128.125C129.851 43.75 131.25 45.1491 131.25 46.875V103.125C131.25 104.851 129.851 106.25 128.125 106.25C126.399 106.25 125 104.851 125 103.125V50H96.875C95.1491 50 93.75 48.6009 93.75 46.875Z" fill="#F5B6CD"/>
<path fill-rule="evenodd" clip-rule="evenodd" d="M18.75 46.875C18.75 45.1491 20.1491 43.75 21.875 43.75H96.875C98.6009 43.75 100 45.1491 100 46.875C100 48.6009 98.6009 50 96.875 50H25V78.125C25 79.8509 23.6009 81.25 21.875 81.25C20.1491 81.25 18.75 79.8509 18.75 78.125V46.875Z" fill="#00CCEA"/>
<path fill-rule="evenodd" clip-rule="evenodd" d="M19.0477 76.7951C19.7826 75.2335 21.6442 74.5633 23.2059 75.2982L75.0003 99.672L126.795 75.2982C128.356 74.5633 130.218 75.2335 130.953 76.7951C131.688 78.3567 131.017 80.2184 129.456 80.9533L76.3309 105.953C75.4881 106.35 74.5124 106.35 73.6696 105.953L20.5446 80.9533C18.983 80.2184 18.3128 78.3567 19.0477 76.7951Z" fill="#FF7F37"/>
<path fill-rule="evenodd" clip-rule="evenodd" d="M75 56.25C76.7259 56.25 78.125 57.6491 78.125 59.375V68.75H87.5C89.2259 68.75 90.625 70.1491 90.625 71.875C90.625 73.6009 89.2259 75 87.5 75H78.125V84.375C78.125 86.1009 76.7259 87.5 75 87.5C73.2741 87.5 71.875 86.1009 71.875 84.375V75H62.5C60.7741 75 59.375 73.6009 59.375 71.875C59.375 70.1491 60.7741 68.75 62.5 68.75H71.875V59.375C71.875 57.6491 73.2741 56.25 75 56.25Z" fill="#00C389"/>
</svg>
