<svg width="150" height="150" viewBox="0 0 150 150" fill="none" xmlns="http://www.w3.org/2000/svg">
<path fill-rule="evenodd" clip-rule="evenodd" d="M56.25 34.375C56.25 32.6491 57.6491 31.25 59.375 31.25H71.875C73.6009 31.25 75 32.6491 75 34.375C75 36.1009 73.6009 37.5 71.875 37.5H59.375C57.6491 37.5 56.25 36.1009 56.25 34.375Z" fill="#F5B6CD"/>
<path fill-rule="evenodd" clip-rule="evenodd" d="M65.625 106.25C63.8991 106.25 62.5 107.649 62.5 109.375C62.5 111.101 63.8991 112.5 65.625 112.5C67.3509 112.5 68.75 111.101 68.75 109.375C68.75 107.649 67.3509 106.25 65.625 106.25ZM56.25 109.375C56.25 104.197 60.4473 100 65.625 100C70.8027 100 75 104.197 75 109.375C75 114.553 70.8027 118.75 65.625 118.75C60.4473 118.75 56.25 114.553 56.25 109.375Z" fill="#F5B6CD"/>
<path fill-rule="evenodd" clip-rule="evenodd" d="M43.75 25C40.2884 25 37.5 27.7884 37.5 31.25V118.75C37.5 122.212 40.2884 125 43.75 125C45.4759 125 46.875 126.399 46.875 128.125C46.875 129.851 45.4759 131.25 43.75 131.25C36.8366 131.25 31.25 125.663 31.25 118.75V31.25C31.25 24.3366 36.8366 18.75 43.75 18.75H87.5C94.4134 18.75 100 24.3366 100 31.25V35.1875C100 36.9134 98.6009 38.3125 96.875 38.3125C95.1491 38.3125 93.75 36.9134 93.75 35.1875V31.25C93.75 27.7884 90.9616 25 87.5 25H43.75Z" fill="#9063CD"/>
<path fill-rule="evenodd" clip-rule="evenodd" d="M96.875 80.4414C98.6009 80.4414 100 81.8405 100 83.5664V118.754C100 125.667 94.4134 131.254 87.5 131.254H43.75C42.0241 131.254 40.625 129.855 40.625 128.129C40.625 126.403 42.0241 125.004 43.75 125.004H87.5C90.9616 125.004 93.75 122.216 93.75 118.754V83.5664C93.75 81.8405 95.1491 80.4414 96.875 80.4414Z" fill="#FF7F37"/>
<path fill-rule="evenodd" clip-rule="evenodd" d="M116.317 37.9174C117.396 36.5704 119.363 36.3532 120.71 37.4323C125.256 41.0742 128.559 46.0379 130.162 51.6377C131.765 57.2376 131.59 63.1971 129.66 68.6931C127.73 74.189 124.142 78.9499 119.389 82.3182C114.638 85.6861 108.958 87.4953 103.134 87.4962C99.4386 87.5025 95.7787 86.7791 92.3639 85.3673C88.9482 83.9552 85.8451 81.8822 83.2328 79.2673C82.013 78.0464 82.014 76.0677 83.235 74.8479C84.4559 73.6281 86.4346 73.6291 87.6544 74.8501C89.6849 76.8825 92.0969 78.4938 94.7518 79.5915C97.4068 80.6891 100.252 81.2515 103.125 81.2462L103.131 81.2462C107.661 81.2459 112.079 79.8387 115.775 77.2191C119.471 74.5995 122.262 70.8968 123.763 66.6225C125.264 62.3481 125.4 57.7132 124.153 53.3581C122.906 49.0029 120.338 45.1425 116.802 42.3101C115.455 41.231 115.238 39.2643 116.317 37.9174ZM103.134 87.4962C103.133 87.4962 103.132 87.4962 103.131 87.4962L103.131 84.3712L103.137 87.4962C103.136 87.4962 103.135 87.4962 103.134 87.4962Z" fill="#00CCEA"/>
<path d="M84.61 47.724C85.2702 46.6749 86.0156 45.6882 86.8363 44.7729L90.9509 34.022L79.3203 44.3952L75 59.3688L83.2126 79.251L81.6719 63.6433C81.3952 62.2588 81.25 60.8296 81.25 59.3691C81.2505 55.2484 82.4152 51.2116 84.61 47.724Z" fill="#FDDA24"/>
<path d="M87.6319 79.2815C88.8607 78.0695 88.8743 76.0909 87.6624 74.8622C84.667 71.8251 82.5329 67.9509 81.6719 63.6433L83.2126 79.251C84.4245 80.4798 86.4031 80.4934 87.6319 79.2815Z" fill="#FDDA24"/>
<path d="M75 59.3688C75 67.1136 78.1708 74.1392 83.2126 79.251L75 59.3688Z" fill="#FDDA24"/>
<path d="M79.3203 44.3952C76.4982 48.8796 75.0006 54.0702 75 59.3688L79.3203 44.3952Z" fill="#FDDA24"/>
<path d="M90.9509 34.022C86.1741 36.3148 82.1424 39.9107 79.3203 44.3952L90.9509 34.022Z" fill="#FDDA24"/>
<path d="M106.319 31.4357C101.055 30.8326 95.7277 31.7291 90.9509 34.022L86.8363 44.7729C88.7437 42.6455 91.058 40.9033 93.6555 39.6565C97.3705 37.8733 101.514 37.176 105.608 37.6451C109.702 38.1141 113.58 39.7303 116.796 42.3075C118.142 43.3869 120.109 43.1702 121.188 41.8235C122.268 40.4768 122.051 38.51 120.704 37.4307C116.57 34.1169 111.583 32.0388 106.319 31.4357Z" fill="#FDDA24"/>
<path fill-rule="evenodd" clip-rule="evenodd" d="M114.71 50.9153C115.93 52.1357 115.93 54.1143 114.71 55.3347L102.21 67.8347C100.989 69.0551 99.0107 69.0551 97.7903 67.8347L91.5403 61.5847C90.3199 60.3643 90.3199 58.3857 91.5403 57.1653C92.7607 55.9449 94.7393 55.9449 95.9597 57.1653L100 61.2056L110.29 50.9153C111.511 49.6949 113.489 49.6949 114.71 50.9153Z" fill="#00C389"/>
</svg>
