<svg width="150" height="150" viewBox="0 0 150 150" fill="none" xmlns="http://www.w3.org/2000/svg">
<path d="M80.6152 128.125H118.74M109.365 84.375V53.125H128.115V65.625C128.115 76 119.74 84.375 109.365 84.375Z" stroke="#00CCEA" stroke-width="6.25" stroke-miterlimit="10" stroke-linecap="round" stroke-linejoin="round"/>
<path d="M18.75 128.125H80.625" stroke="#FDDA24" stroke-width="6.25" stroke-miterlimit="10" stroke-linecap="round" stroke-linejoin="round"/>
<path d="M84.375 53.125V46.875C84.375 40 90 34.375 96.875 34.375C103.75 34.375 109.375 28.75 109.375 21.875M59.375 53.125V46.875C59.375 40 65 34.375 71.875 34.375C78.75 34.375 84.375 28.75 84.375 21.875M34.375 53.125V46.875C34.375 40 40 34.375 46.875 34.375C53.75 34.375 59.375 28.75 59.375 21.875" stroke="#00C389" stroke-width="6.25" stroke-miterlimit="10" stroke-linecap="round" stroke-linejoin="round"/>
<path d="M45.1172 53.125H109.367" stroke="#9063CD" stroke-width="6.25" stroke-miterlimit="10" stroke-linecap="round" stroke-linejoin="round"/>
<path d="M65.625 115.625C41.4375 115.625 21.875 96.0625 21.875 71.875V53.125H45.125" stroke="#F5B6CD" stroke-width="6.25" stroke-miterlimit="10" stroke-linecap="round" stroke-linejoin="round"/>
<path d="M109.375 53.125V71.875C109.375 96.0625 89.8125 115.625 65.625 115.625" stroke="#FF7F37" stroke-width="6.25" stroke-miterlimit="10" stroke-linecap="round" stroke-linejoin="round"/>
</svg>
