<svg width="150" height="150" viewBox="0 0 150 150" fill="none" xmlns="http://www.w3.org/2000/svg">
<path fill-rule="evenodd" clip-rule="evenodd" d="M112.5 65.625C112.5 63.8991 113.899 62.5 115.625 62.5H134.375C136.101 62.5 137.5 63.8991 137.5 65.625C137.5 67.3509 136.101 68.75 134.375 68.75H115.625C113.899 68.75 112.5 67.3509 112.5 65.625Z" fill="#F5B6CD"/>
<path fill-rule="evenodd" clip-rule="evenodd" d="M112.5 46.875C112.5 45.1491 113.899 43.75 115.625 43.75H125C131.913 43.75 137.5 49.3366 137.5 56.25V106.25C137.5 113.163 131.913 118.75 125 118.75C123.274 118.75 121.875 117.351 121.875 115.625C121.875 113.899 123.274 112.5 125 112.5C128.462 112.5 131.25 109.712 131.25 106.25V56.25C131.25 52.7884 128.462 50 125 50H115.625C113.899 50 112.5 48.6009 112.5 46.875Z" fill="#9063CD"/>
<path fill-rule="evenodd" clip-rule="evenodd" d="M34.375 93.75C36.1009 93.75 37.5 95.1491 37.5 96.875V106.25C37.5 109.712 40.2884 112.5 43.75 112.5H125C126.726 112.5 128.125 113.899 128.125 115.625C128.125 117.351 126.726 118.75 125 118.75H43.75C36.8366 118.75 31.25 113.163 31.25 106.25V96.875C31.25 95.1491 32.6491 93.75 34.375 93.75Z" fill="#00C389"/>
<path fill-rule="evenodd" clip-rule="evenodd" d="M112.5 84.375C112.5 82.6491 113.899 81.25 115.625 81.25H134.375C136.101 81.25 137.5 82.6491 137.5 84.375C137.5 86.1009 136.101 87.5 134.375 87.5H115.625C113.899 87.5 112.5 86.1009 112.5 84.375Z" fill="#9063CD"/>
<path fill-rule="evenodd" clip-rule="evenodd" d="M115.625 34.375C117.351 34.375 118.75 35.7741 118.75 37.5V87.5C118.75 94.4134 113.163 100 106.25 100H25C23.2741 100 21.875 98.6009 21.875 96.875C21.875 95.1491 23.2741 93.75 25 93.75H106.25C109.712 93.75 112.5 90.9616 112.5 87.5V37.5C112.5 35.7741 113.899 34.375 115.625 34.375Z" fill="#00CCEA"/>
<path fill-rule="evenodd" clip-rule="evenodd" d="M12.5 37.5C12.5 30.5866 18.0866 25 25 25H106.25C113.163 25 118.75 30.5866 118.75 37.5C118.75 39.2259 117.351 40.625 115.625 40.625C113.899 40.625 112.5 39.2259 112.5 37.5C112.5 34.0384 109.712 31.25 106.25 31.25H25C21.5384 31.25 18.75 34.0384 18.75 37.5V87.5C18.75 90.9616 21.5384 93.75 25 93.75C26.7259 93.75 28.125 95.1491 28.125 96.875C28.125 98.6009 26.7259 100 25 100C18.0866 100 12.5 94.4134 12.5 87.5V37.5Z" fill="#FF7F37"/>
<path fill-rule="evenodd" clip-rule="evenodd" d="M32.8125 43.75C31.9759 43.75 31.25 44.4759 31.25 45.3125V54.6875C31.25 55.5241 31.9759 56.25 32.8125 56.25H42.1875C43.0241 56.25 43.75 55.5241 43.75 54.6875V45.3125C43.75 44.4759 43.0241 43.75 42.1875 43.75H32.8125ZM25 45.3125C25 41.0241 28.5241 37.5 32.8125 37.5H42.1875C46.4759 37.5 50 41.0241 50 45.3125V54.6875C50 58.9759 46.4759 62.5 42.1875 62.5H32.8125C28.5241 62.5 25 58.9759 25 54.6875V45.3125Z" fill="#FDDA24"/>
<path fill-rule="evenodd" clip-rule="evenodd" d="M25 84.375C25 82.6491 26.3991 81.25 28.125 81.25H71.875C73.6009 81.25 75 82.6491 75 84.375C75 86.1009 73.6009 87.5 71.875 87.5H28.125C26.3991 87.5 25 86.1009 25 84.375Z" fill="#F5B6CD"/>
<path fill-rule="evenodd" clip-rule="evenodd" d="M25 71.875C25 70.1491 26.3991 68.75 28.125 68.75H103.125C104.851 68.75 106.25 70.1491 106.25 71.875C106.25 73.6009 104.851 75 103.125 75H28.125C26.3991 75 25 73.6009 25 71.875Z" fill="#FDDA24"/>
</svg>
