<svg width="150" height="150" viewBox="0 0 150 150" fill="none" xmlns="http://www.w3.org/2000/svg">
<path fill-rule="evenodd" clip-rule="evenodd" d="M18.75 21.875C18.75 20.1491 20.1491 18.75 21.875 18.75H26.8125C32.6301 18.75 37.8134 22.815 38.9972 28.6766L43.5748 50H59.375C61.1009 50 62.5 51.3991 62.5 53.125C62.5 54.8509 61.1009 56.25 59.375 56.25H44.9165L56.1804 108.719C56.5426 110.407 55.4684 112.068 53.7809 112.43C52.0935 112.793 50.4319 111.718 50.0696 110.031L32.8729 29.9254C32.2977 27.0494 29.7373 25 26.8125 25H21.875C20.1491 25 18.75 23.6009 18.75 21.875Z" fill="#00C389"/>
<path fill-rule="evenodd" clip-rule="evenodd" d="M106.25 53.125C106.25 51.3991 107.649 50 109.375 50H128.125C129.106 50 130.03 50.4604 130.62 51.2434C131.211 52.0264 131.399 53.0413 131.13 53.9842L120.569 90.9167C120.568 90.9172 120.569 90.9161 120.569 90.9167C119.826 93.5279 118.253 95.8282 116.089 97.4667C113.924 99.1055 111.284 99.9948 108.569 100L53.125 100C51.3991 100 50 98.6009 50 96.875C50 95.1491 51.3991 93.75 53.125 93.75H108.559C109.916 93.7468 111.235 93.3022 112.317 92.4834C113.399 91.6639 114.185 90.5143 114.557 89.2083L123.981 56.25H109.375C107.649 56.25 106.25 54.8509 106.25 53.125Z" fill="#FF7F37"/>
<path fill-rule="evenodd" clip-rule="evenodd" d="M84.375 31.25C72.2938 31.25 62.5 41.0438 62.5 53.125C62.5 65.2062 72.2938 75 84.375 75C96.4562 75 106.25 65.2062 106.25 53.125C106.25 41.0438 96.4562 31.25 84.375 31.25ZM56.25 53.125C56.25 37.592 68.842 25 84.375 25C99.908 25 112.5 37.592 112.5 53.125C112.5 68.658 99.908 81.25 84.375 81.25C68.842 81.25 56.25 68.658 56.25 53.125Z" fill="#FDDA24"/>
<path fill-rule="evenodd" clip-rule="evenodd" d="M84.375 37.5C86.1009 37.5 87.5 38.8991 87.5 40.625V50H96.875C98.6009 50 100 51.3991 100 53.125C100 54.8509 98.6009 56.25 96.875 56.25H87.5V65.625C87.5 67.3509 86.1009 68.75 84.375 68.75C82.6491 68.75 81.25 67.3509 81.25 65.625V56.25H71.875C70.1491 56.25 68.75 54.8509 68.75 53.125C68.75 51.3991 70.1491 50 71.875 50H81.25V40.625C81.25 38.8991 82.6491 37.5 84.375 37.5Z" fill="#9063CD"/>
<path fill-rule="evenodd" clip-rule="evenodd" d="M62.5 115.625C62.5 113.899 63.8991 112.5 65.625 112.5H103.125C104.851 112.5 106.25 113.899 106.25 115.625C106.25 117.351 104.851 118.75 103.125 118.75H65.625C63.8991 118.75 62.5 117.351 62.5 115.625Z" fill="#00CCEA"/>
<path fill-rule="evenodd" clip-rule="evenodd" d="M56.25 112.5C52.7982 112.5 50 115.298 50 118.75C50 122.202 52.7982 125 56.25 125C59.7018 125 62.5 122.202 62.5 118.75C62.5 115.298 59.7018 112.5 56.25 112.5ZM43.75 118.75C43.75 111.846 49.3464 106.25 56.25 106.25C63.1536 106.25 68.75 111.846 68.75 118.75C68.75 125.654 63.1536 131.25 56.25 131.25C49.3464 131.25 43.75 125.654 43.75 118.75Z" fill="#F5B6CD"/>
<path fill-rule="evenodd" clip-rule="evenodd" d="M112.5 112.5C109.048 112.5 106.25 115.298 106.25 118.75C106.25 122.202 109.048 125 112.5 125C115.952 125 118.75 122.202 118.75 118.75C118.75 115.298 115.952 112.5 112.5 112.5ZM100 118.75C100 111.846 105.596 106.25 112.5 106.25C119.404 106.25 125 111.846 125 118.75C125 125.654 119.404 131.25 112.5 131.25C105.596 131.25 100 125.654 100 118.75Z" fill="#F5B6CD"/>
</svg>
