<svg width="150" height="150" viewBox="0 0 150 150" fill="none" xmlns="http://www.w3.org/2000/svg">
<path fill-rule="evenodd" clip-rule="evenodd" d="M21.875 56.25C20.1634 56.25 18.75 57.6634 18.75 59.375C18.75 61.0866 20.1634 62.5 21.875 62.5H34.375C36.1009 62.5 37.5 63.8991 37.5 65.625C37.5 67.3509 36.1009 68.75 34.375 68.75H21.875C16.7116 68.75 12.5 64.5384 12.5 59.375C12.5 54.2116 16.7116 50 21.875 50H34.375C36.1009 50 37.5 51.3991 37.5 53.125C37.5 54.8509 36.1009 56.25 34.375 56.25H21.875ZM112.5 53.125C112.5 51.3991 113.899 50 115.625 50H128.125C133.288 50 137.5 54.2116 137.5 59.375C137.5 64.5384 133.288 68.75 128.125 68.75H115.625C113.899 68.75 112.5 67.3509 112.5 65.625V53.125ZM118.75 56.25V62.5H128.125C129.837 62.5 131.25 61.0866 131.25 59.375C131.25 57.6634 129.837 56.25 128.125 56.25H118.75Z" fill="#F5B6CD"/>
<path fill-rule="evenodd" clip-rule="evenodd" d="M37.5 81.25C34.0482 81.25 31.25 84.0482 31.25 87.5C31.25 90.9518 34.0482 93.75 37.5 93.75C40.9518 93.75 43.75 90.9518 43.75 87.5C43.75 84.0482 40.9518 81.25 37.5 81.25ZM25 87.5C25 80.5964 30.5964 75 37.5 75C44.4036 75 50 80.5964 50 87.5C50 94.4036 44.4036 100 37.5 100C30.5964 100 25 94.4036 25 87.5Z" fill="#FF7F37"/>
<path fill-rule="evenodd" clip-rule="evenodd" d="M112.5 81.25C109.048 81.25 106.25 84.0482 106.25 87.5C106.25 90.9518 109.048 93.75 112.5 93.75C115.952 93.75 118.75 90.9518 118.75 87.5C118.75 84.0482 115.952 81.25 112.5 81.25ZM100 87.5C100 80.5964 105.596 75 112.5 75C119.404 75 125 80.5964 125 87.5C125 94.4036 119.404 100 112.5 100C105.596 100 100 94.4036 100 87.5Z" fill="#FF7F37"/>
<path fill-rule="evenodd" clip-rule="evenodd" d="M25 109.375C25 107.649 26.3991 106.25 28.125 106.25H53.125C54.8509 106.25 56.25 107.649 56.25 109.375V118.75C56.25 125.663 50.6634 131.25 43.75 131.25H37.5C30.5866 131.25 25 125.663 25 118.75V109.375ZM31.25 112.5V118.75C31.25 122.212 34.0384 125 37.5 125H43.75C47.2116 125 50 122.212 50 118.75V112.5H31.25ZM96.875 106.25C98.6009 106.25 100 107.649 100 109.375V118.75C100 122.212 102.788 125 106.25 125H112.5C115.962 125 118.75 122.212 118.75 118.75V109.375C118.75 107.649 120.149 106.25 121.875 106.25C123.601 106.25 125 107.649 125 109.375V118.75C125 125.663 119.413 131.25 112.5 131.25H106.25C99.3366 131.25 93.75 125.663 93.75 118.75V109.375C93.75 107.649 95.1491 106.25 96.875 106.25Z" fill="#9063CD"/>
<path fill-rule="evenodd" clip-rule="evenodd" d="M36.23 35.4238C37.233 29.4059 42.4836 25 48.5625 25H101.438C107.516 25 112.767 29.4059 113.77 35.4238L118.708 65.1123C118.858 66.0183 118.603 66.9447 118.009 67.6453C117.415 68.346 116.543 68.75 115.625 68.75H34.375C33.4566 68.75 32.5847 68.346 31.9909 67.6453C31.3972 66.9447 31.1417 66.0183 31.2924 65.1123L36.23 35.4238ZM42.3951 36.4509L38.0627 62.5H111.937L107.605 36.4512C107.605 36.4509 107.605 36.4516 107.605 36.4512C107.108 33.4697 104.483 31.25 101.438 31.25H48.5625C45.5168 31.25 42.8925 33.4694 42.3951 36.4509Z" fill="#FDDA24"/>
<path fill-rule="evenodd" clip-rule="evenodd" d="M34.375 68.75C25.7259 68.75 18.75 75.7259 18.75 84.375V106.25H66.0625C67.7884 106.25 69.1875 107.649 69.1875 109.375C69.1875 111.101 67.7884 112.5 66.0625 112.5H15.625C13.8991 112.5 12.5 111.101 12.5 109.375V84.375C12.5 72.2741 22.2741 62.5 34.375 62.5H115.625C117.351 62.5 118.75 63.8991 118.75 65.625C118.75 67.3509 117.351 68.75 115.625 68.75H34.375Z" fill="#00CCEA"/>
<path fill-rule="evenodd" clip-rule="evenodd" d="M112.501 65.625C112.501 63.8991 113.9 62.5 115.626 62.5C127.727 62.5 137.501 72.2741 137.501 84.375V109.375C137.501 111.101 136.102 112.5 134.376 112.5H66.0632C64.3373 112.5 62.9382 111.101 62.9382 109.375C62.9382 107.649 64.3373 106.25 66.0632 106.25H131.251V84.375C131.251 75.7259 124.275 68.75 115.626 68.75C113.9 68.75 112.501 67.3509 112.501 65.625Z" fill="#00C389"/>
</svg>
