<svg width="150" height="150" viewBox="0 0 150 150" fill="none" xmlns="http://www.w3.org/2000/svg">
<path fill-rule="evenodd" clip-rule="evenodd" d="M28.0168 87.5087C29.7379 87.3806 31.237 88.6721 31.3651 90.3932C32.8066 109.767 49.0147 125 68.7487 125H71.8737C73.5996 125 74.9987 126.399 74.9987 128.125C74.9987 129.851 73.5996 131.25 71.8737 131.25H68.7487C45.7326 131.25 26.8158 113.483 25.1323 90.857C25.0042 89.1358 26.2957 87.6368 28.0168 87.5087Z" fill="#FF7F37"/>
<path fill-rule="evenodd" clip-rule="evenodd" d="M21.875 18.75C23.6009 18.75 25 20.1491 25 21.875V87.5H71.875C73.6009 87.5 75 88.8991 75 90.625C75 92.3509 73.6009 93.75 71.875 93.75H21.875C20.1491 93.75 18.75 92.3509 18.75 90.625V21.875C18.75 20.1491 20.1491 18.75 21.875 18.75Z" fill="#FDDA24"/>
<path fill-rule="evenodd" clip-rule="evenodd" d="M18.75 21.875C18.75 20.1491 20.1491 18.75 21.875 18.75H128.125C129.851 18.75 131.25 20.1491 131.25 21.875V43.75C131.25 45.4759 129.851 46.875 128.125 46.875C126.399 46.875 125 45.4759 125 43.75V25H21.875C20.1491 25 18.75 23.6009 18.75 21.875Z" fill="#00CCEA"/>
<path fill-rule="evenodd" clip-rule="evenodd" d="M128.125 40.625C129.851 40.625 131.25 42.0241 131.25 43.75V90.625C131.25 92.3509 129.851 93.75 128.125 93.75H115.625C113.899 93.75 112.5 92.3509 112.5 90.625C112.5 88.8991 113.899 87.5 115.625 87.5H125V43.75C125 42.0241 126.399 40.625 128.125 40.625Z" fill="#9063CD"/>
<path fill-rule="evenodd" clip-rule="evenodd" d="M75 43.75C68.0964 43.75 62.5 49.3464 62.5 56.25C62.5 63.1536 68.0964 68.75 75 68.75C81.9036 68.75 87.5 63.1536 87.5 56.25C87.5 49.3464 81.9036 43.75 75 43.75ZM56.25 56.25C56.25 45.8947 64.6447 37.5 75 37.5C85.3553 37.5 93.75 45.8947 93.75 56.25C93.75 66.6053 85.3553 75 75 75C64.6447 75 56.25 66.6053 56.25 56.25Z" fill="#F5B6CD"/>
<path fill-rule="evenodd" clip-rule="evenodd" d="M100 34.375C100 32.6491 101.399 31.25 103.125 31.25H115.625C117.351 31.25 118.75 32.6491 118.75 34.375C118.75 36.1009 117.351 37.5 115.625 37.5H103.125C101.399 37.5 100 36.1009 100 34.375Z" fill="#FF7F37"/>
<path fill-rule="evenodd" clip-rule="evenodd" d="M31.25 34.375C31.25 32.6491 32.6491 31.25 34.375 31.25H46.875C48.6009 31.25 50 32.6491 50 34.375C50 36.1009 48.6009 37.5 46.875 37.5H37.5V75H46.875C48.6009 75 50 76.3991 50 78.125C50 79.8509 48.6009 81.25 46.875 81.25H34.375C32.6491 81.25 31.25 79.8509 31.25 78.125V34.375Z" fill="#F5B6CD"/>
<path fill-rule="evenodd" clip-rule="evenodd" d="M99.1739 49.2417C102.69 45.7254 107.459 43.75 112.432 43.75H115.557C117.283 43.75 118.682 45.1491 118.682 46.875V87.5C118.682 93.2453 117.55 98.9344 115.352 104.242C113.153 109.55 109.931 114.373 105.868 118.436C101.805 122.498 96.9825 125.721 91.6745 127.92C86.3665 130.118 80.6775 131.25 74.9321 131.25H71.8696C70.1437 131.25 68.7446 129.851 68.7446 128.125C68.7446 126.399 70.1437 125 71.8696 125H74.9321C79.8567 125 84.733 124.03 89.2828 122.145C93.8325 120.261 97.9664 117.499 101.449 114.016C104.931 110.534 107.693 106.4 109.578 101.851C111.462 97.3009 112.432 92.4246 112.432 87.5V50C109.117 50 105.937 51.317 103.593 53.6612C101.249 56.0054 99.9321 59.1848 99.9321 62.5V78.125C99.9321 79.8509 98.533 81.25 96.8071 81.25C84.7205 81.25 74.9321 91.0384 74.9321 103.125C74.9321 104.851 73.533 106.25 71.8071 106.25C70.0812 106.25 68.6821 104.851 68.6821 103.125C68.6821 88.6429 79.6156 76.7249 93.6821 75.1715V62.5C93.6821 57.5272 95.6576 52.7581 99.1739 49.2417Z" fill="#00C389"/>
</svg>
