<svg width="150" height="150" viewBox="0 0 150 150" fill="none" xmlns="http://www.w3.org/2000/svg">
<path fill-rule="evenodd" clip-rule="evenodd" d="M18.75 15.625C18.75 13.8991 20.1491 12.5 21.875 12.5H103.125C104.851 12.5 106.25 13.8991 106.25 15.625V34.375C106.25 36.1009 104.851 37.5 103.125 37.5C101.399 37.5 100 36.1009 100 34.375V18.75H25V34.375C25 36.1009 23.6009 37.5 21.875 37.5C20.1491 37.5 18.75 36.1009 18.75 34.375V15.625Z" fill="#59CBE8"/>
<path fill-rule="evenodd" clip-rule="evenodd" d="M37.5 84.375C37.5 82.6491 38.8991 81.25 40.625 81.25H81.25C82.9759 81.25 84.375 82.6491 84.375 84.375C84.375 86.1009 82.9759 87.5 81.25 87.5H43.75V118.75C43.75 120.476 42.3509 121.875 40.625 121.875C38.8991 121.875 37.5 120.476 37.5 118.75V84.375Z" fill="#FDDA24"/>
<path fill-rule="evenodd" clip-rule="evenodd" d="M103.125 62.5C104.851 62.5 106.25 63.8991 106.25 65.625V73.4375C106.25 75.1634 104.851 76.5625 103.125 76.5625C101.399 76.5625 100 75.1634 100 73.4375V65.625C100 63.8991 101.399 62.5 103.125 62.5Z" fill="#59CBE8"/>
<path fill-rule="evenodd" clip-rule="evenodd" d="M21.875 62.5C23.6009 62.5 25 63.8991 25 65.625V118.75H73.4375C75.1634 118.75 76.5625 120.149 76.5625 121.875C76.5625 123.601 75.1634 125 73.4375 125H21.875C20.1491 125 18.75 123.601 18.75 121.875V65.625C18.75 63.8991 20.1491 62.5 21.875 62.5Z" fill="#FDDA24"/>
<path fill-rule="evenodd" clip-rule="evenodd" d="M25 37.5C21.5384 37.5 18.75 40.2884 18.75 43.75V62.5H31.25V37.5H25ZM37.5 37.5V62.5H50V37.5H37.5ZM15.625 68.75C13.8991 68.75 12.5 67.3509 12.5 65.625V43.75C12.5 36.8366 18.0866 31.25 25 31.25H53.125C54.8509 31.25 56.25 32.6491 56.25 34.375V65.625C56.25 67.3509 54.8509 68.75 53.125 68.75H15.625Z" fill="#F5B6CD"/>
<path fill-rule="evenodd" clip-rule="evenodd" d="M71.875 31.25C73.6009 31.25 75 32.6491 75 34.375V65.625C75 67.3509 73.6009 68.75 71.875 68.75H53.125C51.3991 68.75 50 67.3509 50 65.625C50 63.8991 51.3991 62.5 53.125 62.5H68.75V34.375C68.75 32.6491 70.1491 31.25 71.875 31.25Z" fill="#9063CD"/>
<path fill-rule="evenodd" clip-rule="evenodd" d="M50 34.375C50 32.6491 51.3991 31.25 53.125 31.25H71.875C73.6009 31.25 75 32.6491 75 34.375C75 36.1009 73.6009 37.5 71.875 37.5H56.25V65.625C56.25 67.3509 54.8509 68.75 53.125 68.75C51.3991 68.75 50 67.3509 50 65.625V34.375Z" fill="#F5B6CD"/>
<path fill-rule="evenodd" clip-rule="evenodd" d="M68.75 34.375C68.75 32.6491 70.1491 31.25 71.875 31.25H100C106.913 31.25 112.5 36.8366 112.5 43.75V65.625C112.5 67.3509 111.101 68.75 109.375 68.75H71.875C70.1491 68.75 68.75 67.3509 68.75 65.625V34.375ZM93.75 62.5H106.25V43.75C106.25 40.2884 103.462 37.5 100 37.5H93.75V62.5ZM87.5 37.5V62.5H75V37.5H87.5Z" fill="#9063CD"/>
<path fill-rule="evenodd" clip-rule="evenodd" d="M109.692 87.8105C97.6112 87.8105 87.8174 97.6043 87.8174 109.686C87.8174 121.767 97.6112 131.561 109.692 131.561C121.774 131.561 131.567 121.767 131.567 109.686C131.567 97.6043 121.774 87.8105 109.692 87.8105ZM81.5674 109.686C81.5674 94.1525 94.1594 81.5605 109.692 81.5605C125.225 81.5605 137.817 94.1525 137.817 109.686C137.817 125.219 125.225 137.811 109.692 137.811C94.1594 137.811 81.5674 125.219 81.5674 109.686Z" fill="#FF7F41"/>
<path fill-rule="evenodd" clip-rule="evenodd" d="M109.855 93.2676C111.581 93.2676 112.98 94.6667 112.98 96.3926V105.768H122.355C124.081 105.768 125.48 107.167 125.48 108.893C125.48 110.618 124.081 112.018 122.355 112.018H112.98V121.393C112.98 123.118 111.581 124.518 109.855 124.518C108.129 124.518 106.73 123.118 106.73 121.393V112.018H97.355C95.6291 112.018 94.23 110.618 94.23 108.893C94.23 107.167 95.6291 105.768 97.355 105.768H106.73V96.3926C106.73 94.6667 108.129 93.2676 109.855 93.2676Z" fill="#00C389"/>
</svg>
