<svg width="150" height="150" viewBox="0 0 150 150" fill="none" xmlns="http://www.w3.org/2000/svg">
<path fill-rule="evenodd" clip-rule="evenodd" d="M99.6701 41.1053C100.442 42.649 99.8162 44.5261 98.2725 45.298C91.773 48.5477 87.5 55.0003 87.5 62.5029V100.003H125V62.5029C125 55.0003 120.727 48.5477 114.227 45.298C112.684 44.5261 112.058 42.649 112.83 41.1053C113.602 39.5617 115.479 38.936 117.023 39.7078C125.523 43.958 131.25 52.5055 131.25 62.5029V103.128C131.25 104.854 129.851 106.253 128.125 106.253H84.375C82.6491 106.253 81.25 104.854 81.25 103.128V62.5029C81.25 52.5055 86.977 43.958 95.4775 39.7078C97.0211 38.936 98.8982 39.5617 99.6701 41.1053Z" fill="#9063CD"/>
<path fill-rule="evenodd" clip-rule="evenodd" d="M46.875 25C34.7938 25 25 34.7938 25 46.875C25 58.9562 34.7938 68.75 46.875 68.75C58.9562 68.75 68.75 58.9562 68.75 46.875C68.75 34.7938 58.9562 25 46.875 25ZM18.75 46.875C18.75 31.342 31.342 18.75 46.875 18.75C62.408 18.75 75 31.342 75 46.875C75 62.408 62.408 75 46.875 75C31.342 75 18.75 62.408 18.75 46.875Z" fill="#FF7F37"/>
<path fill-rule="evenodd" clip-rule="evenodd" d="M46.875 37.5C41.6973 37.5 37.5 41.6973 37.5 46.875C37.5 52.0527 41.6973 56.25 46.875 56.25C52.0527 56.25 56.25 52.0527 56.25 46.875C56.25 41.6973 52.0527 37.5 46.875 37.5ZM31.25 46.875C31.25 38.2456 38.2456 31.25 46.875 31.25C55.5044 31.25 62.5 38.2456 62.5 46.875C62.5 55.5044 55.5044 62.5 46.875 62.5C38.2456 62.5 31.25 55.5044 31.25 46.875Z" fill="#FDDA24"/>
<path fill-rule="evenodd" clip-rule="evenodd" d="M75 28.125C75 26.3991 76.3991 25 78.125 25H84.375C85.2038 25 85.9987 25.3292 86.5847 25.9153L97.2097 36.5403C98.4301 37.7607 98.4301 39.7393 97.2097 40.9597C95.9893 42.1801 94.0107 42.1801 92.7903 40.9597L83.0806 31.25H78.125C76.3991 31.25 75 29.8509 75 28.125ZM125.915 25.9153C126.501 25.3292 127.296 25 128.125 25H134.375C135.767 25 136.991 25.9209 137.377 27.2585C137.763 28.5961 137.218 30.0277 136.04 30.7695H129.687L119.165 41.3945C117.819 42.2422 116.05 41.943 115.058 40.6995C114.065 39.4561 114.165 37.6653 115.29 36.5403L125.915 25.9153Z" fill="#00C389"/>
<path fill-rule="evenodd" clip-rule="evenodd" d="M106.25 37.5C102.798 37.5 100 40.2982 100 43.75C100 47.2018 102.798 50 106.25 50C109.702 50 112.5 47.2018 112.5 43.75C112.5 40.2982 109.702 37.5 106.25 37.5ZM93.75 43.75C93.75 36.8464 99.3464 31.25 106.25 31.25C113.154 31.25 118.75 36.8464 118.75 43.75C118.75 50.6536 113.154 56.25 106.25 56.25C99.3464 56.25 93.75 50.6536 93.75 43.75Z" fill="#00C389"/>
<path fill-rule="evenodd" clip-rule="evenodd" d="M96.875 100C98.6009 100 100 101.399 100 103.125V118.75C100 122.024 102.976 125 106.25 125C109.524 125 112.5 122.024 112.5 118.75V103.125C112.5 101.399 113.899 100 115.625 100C117.351 100 118.75 101.399 118.75 103.125V118.75C118.75 125.476 112.976 131.25 106.25 131.25C99.5241 131.25 93.75 125.476 93.75 118.75V103.125C93.75 101.399 95.1491 100 96.875 100Z" fill="#00CCEA"/>
<path fill-rule="evenodd" clip-rule="evenodd" d="M106.25 81.25C102.976 81.25 100 84.2259 100 87.5V100H112.5V87.5C112.5 84.2259 109.524 81.25 106.25 81.25ZM93.75 87.5C93.75 80.7741 99.5241 75 106.25 75C112.976 75 118.75 80.7741 118.75 87.5V103.125C118.75 104.851 117.351 106.25 115.625 106.25H96.875C95.1491 106.25 93.75 104.851 93.75 103.125V87.5Z" fill="#F5B6CD"/>
</svg>
