<svg width="150" height="150" viewBox="0 0 150 150" fill="none" xmlns="http://www.w3.org/2000/svg">
<path fill-rule="evenodd" clip-rule="evenodd" d="M71.875 15.625C71.875 13.8991 73.2741 12.5 75 12.5C102.601 12.5 125 34.8991 125 62.5C125 64.2259 123.601 65.625 121.875 65.625C120.149 65.625 118.75 64.2259 118.75 62.5C118.75 38.3509 99.1491 18.75 75 18.75C73.2741 18.75 71.875 17.3509 71.875 15.625Z" fill="#00C389"/>
<path fill-rule="evenodd" clip-rule="evenodd" d="M121.876 59.375C123.602 59.3755 125 60.775 125 62.5009C124.998 69.9147 123.348 77.2354 120.169 83.9331C116.99 90.6309 112.362 96.5382 106.62 101.228C100.878 105.917 94.1647 109.272 86.9668 111.048C80.5662 112.628 73.9244 112.925 67.4233 111.931C66.9147 112.289 66.2945 112.5 65.625 112.5C63.8991 112.5 62.5 111.101 62.5 109.375V108.438C62.5 107.499 62.9215 106.611 63.648 106.017C64.3745 105.424 65.3292 105.188 66.2485 105.375C72.6055 106.67 79.1708 106.535 85.4692 104.98C91.7676 103.426 97.6418 100.49 102.666 96.3869C107.691 92.2834 111.741 87.1142 114.523 81.2533C117.304 75.3925 118.748 68.9866 118.75 62.4991C118.75 60.7732 120.15 59.3745 121.876 59.375Z" fill="#F5B6CD"/>
<path fill-rule="evenodd" clip-rule="evenodd" d="M28.125 62.5C29.8509 62.5 31.25 63.8991 31.25 65.625V115.625C31.25 124.274 38.2259 131.25 46.875 131.25C55.5241 131.25 62.5 124.274 62.5 115.625V109.375C62.5 107.649 63.8991 106.25 65.625 106.25C67.3509 106.25 68.75 107.649 68.75 109.375V115.625C68.75 127.726 58.9759 137.5 46.875 137.5C34.7741 137.5 25 127.726 25 115.625V65.625C25 63.8991 26.3991 62.5 28.125 62.5Z" fill="#FDDA24"/>
<path d="M75.0626 56.2516C76.8205 56.2516 78.4371 56.9966 79.619 58.2268L87.5001 56.2516C86.6715 56.2516 85.7352 55.8131 84.8063 54.663L84.7874 54.64C82.4888 51.8489 79.0025 50.0016 75.0626 50.0016C68.1492 50.0016 62.5626 55.5882 62.5626 62.5016L69.0228 60.8825C69.7329 58.2103 72.1613 56.2516 75.0626 56.2516Z" fill="#FF7F41"/>
<path d="M75.0626 68.7516C71.601 68.7516 68.8126 65.9632 68.8126 62.5016C68.8126 61.9413 68.8857 61.3986 69.0228 60.8825L62.5626 62.5016L75.0626 75.0016L85.1416 69.9368C85.5135 69.5313 85.9098 69.236 86.3083 69.0416L89.2499 62.6132C88.6821 62.5398 88.0984 62.5016 87.5001 62.5016C84.2506 62.5016 81.6035 64.2658 79.9156 66.4486C78.8024 67.8412 77.0732 68.7516 75.0626 68.7516Z" fill="#FF7F41"/>
<path d="M62.5626 62.5016C62.5626 69.415 68.1492 75.0016 75.0626 75.0016L62.5626 62.5016Z" fill="#FF7F41"/>
<path d="M84.8226 70.3202L84.852 70.2819C84.9466 70.1591 85.0432 70.044 85.1416 69.9368L75.0626 75.0016C79.0446 75.0016 82.5604 73.1689 84.8226 70.3202Z" fill="#FF7F41"/>
<path d="M96.7445 84.8638L96.7501 84.8583C104.691 77.0745 99.6162 63.9549 89.2499 62.6132L86.3083 69.0416C86.7112 68.8451 87.1161 68.7516 87.5001 68.7516C93.6026 68.7516 96.6227 76.2266 92.378 80.392C90.9524 81.782 89.3678 83.0035 87.6536 84.0243L75.0013 93.7516C83.4848 93.7513 91.1307 90.3389 96.7445 84.8638Z" fill="#FF7F41"/>
<path d="M77.9403 87.3287L75.0013 93.7516L87.6536 84.0243C84.7419 85.7579 81.4562 86.9123 77.9403 87.3287Z" fill="#FF7F41"/>
<path d="M75.0001 87.5016C70.8759 87.5031 66.8142 86.4843 63.1792 84.536C59.5442 82.5876 56.4477 79.7702 54.1656 76.3349C53.2106 74.8973 51.271 74.5061 49.8334 75.4611C48.3958 76.4161 48.0046 78.3557 48.9596 79.7933C51.8122 84.0874 55.6828 87.6091 60.2266 90.0446C64.77 92.4798 69.8464 93.7533 75.0013 93.7516L77.9403 87.3287C76.9765 87.4429 75.9955 87.5016 75.0001 87.5016Z" fill="#FF7F41"/>
<path d="M87.5001 62.5016C88.1373 62.5016 88.7567 62.4595 89.3572 62.3787L97.2172 45.2019L94.3879 48.597C94.7419 52.4908 91.82 56.2516 87.5001 56.2516L79.619 58.2268C79.7353 58.3478 79.8474 58.4736 79.955 58.6037C81.6511 60.6978 84.2108 62.5016 87.5001 62.5016Z" fill="#FF7F41"/>
<path d="M100.612 48.0312C100.456 46.3124 98.936 45.0457 97.2172 45.2019L89.3572 62.3787C96.7015 61.3898 101.209 54.6003 100.612 48.0312Z" fill="#FF7F41"/>
<path fill-rule="evenodd" clip-rule="evenodd" d="M43.75 62.5055C43.75 44.545 59.8214 29.7992 77.7655 31.3293L77.7669 31.3294C85.0814 31.9564 91.6855 35.1607 96.6784 40.0149L96.7099 40.0456L96.7097 40.0458C99.0243 42.3604 100.296 45.1639 100.55 48.0433C100.702 49.7626 99.4314 51.2792 97.7122 51.4309C95.993 51.5826 94.4763 50.3119 94.3246 48.5927C94.2041 47.2274 93.6053 45.7866 92.3051 44.4801C88.3003 40.5936 83.0364 38.0544 77.2345 37.5567M77.2331 37.5566C62.9278 36.3376 50 48.2165 50 62.5055C50 67.6063 51.5493 72.3309 54.1793 76.3598C55.1227 77.805 54.7159 79.7414 53.2707 80.6848C51.8255 81.6282 49.8891 81.2214 48.9457 79.7762C45.7007 74.8051 43.75 68.9048 43.75 62.5055" fill="#9063CD"/>
<path fill-rule="evenodd" clip-rule="evenodd" d="M25 62.5C25 34.8991 47.3991 12.5 75 12.5C76.7259 12.5 78.125 13.8991 78.125 15.625C78.125 17.3509 76.7259 18.75 75 18.75C50.8509 18.75 31.25 38.3509 31.25 62.5C31.25 64.2259 29.8509 65.625 28.125 65.625C26.3991 65.625 25 64.2259 25 62.5Z" fill="#00CCEA"/>
</svg>
