<svg width="150" height="150" viewBox="0 0 150 150" fill="none" xmlns="http://www.w3.org/2000/svg">
<path fill-rule="evenodd" clip-rule="evenodd" d="M65.625 62.5C63.8991 62.5 62.5 63.8991 62.5 65.625C62.5 67.3509 63.8991 68.75 65.625 68.75C67.3509 68.75 68.75 67.3509 68.75 65.625C68.75 63.8991 67.3509 62.5 65.625 62.5ZM56.25 65.625C56.25 60.4473 60.4473 56.25 65.625 56.25C70.8027 56.25 75 60.4473 75 65.625C75 70.8027 70.8027 75 65.625 75C60.4473 75 56.25 70.8027 56.25 65.625Z" fill="#FF7F37"/>
<path fill-rule="evenodd" clip-rule="evenodd" d="M65.625 100C63.8991 100 62.5 101.399 62.5 103.125C62.5 104.851 63.8991 106.25 65.625 106.25C67.3509 106.25 68.75 104.851 68.75 103.125C68.75 101.399 67.3509 100 65.625 100ZM56.25 103.125C56.25 97.9473 60.4473 93.75 65.625 93.75C70.8027 93.75 75 97.9473 75 103.125C75 108.303 70.8027 112.5 65.625 112.5C60.4473 112.5 56.25 108.303 56.25 103.125Z" fill="#FF7F37"/>
<path fill-rule="evenodd" clip-rule="evenodd" d="M43.75 84.375C43.75 82.6491 45.1491 81.25 46.875 81.25H84.375C86.1009 81.25 87.5 82.6491 87.5 84.375C87.5 86.1009 86.1009 87.5 84.375 87.5H46.875C45.1491 87.5 43.75 86.1009 43.75 84.375Z" fill="#FDDA24"/>
<path fill-rule="evenodd" clip-rule="evenodd" d="M69.6456 36.5362C70.8669 37.7557 70.8683 39.7344 69.6488 40.9556L27.2113 83.4556C25.9918 84.6769 24.0132 84.6784 22.7919 83.4589C21.5706 82.2394 21.5692 80.2608 22.7887 79.0395L65.2262 36.5395C66.4457 35.3182 68.4243 35.3167 69.6456 36.5362Z" fill="#00CCEA"/>
<path fill-rule="evenodd" clip-rule="evenodd" d="M27.2111 79.0403C28.4315 80.2607 28.4315 82.2393 27.2111 83.4597L22.2736 88.3972C21.985 88.6852 21.7539 89.0294 21.5977 89.406C21.4415 89.7825 21.3611 90.1861 21.3611 90.5938C21.3611 91.0014 21.4415 91.405 21.5977 91.7815C21.7539 92.1581 21.9828 92.5001 22.2713 92.788L57.2111 127.728C57.499 128.016 57.8433 128.248 58.2198 128.404C58.5963 128.56 58.9999 128.64 59.4076 128.64C59.8153 128.64 60.2189 128.56 60.5954 128.404C60.9719 128.248 61.3139 128.019 61.6019 127.73C62.821 126.508 64.7997 126.506 66.0213 127.726C67.2429 128.945 67.245 130.923 66.0258 132.145C65.1574 133.015 64.1258 133.706 62.9901 134.177C61.8545 134.648 60.6371 134.89 59.4076 134.89C58.1782 134.89 56.9608 134.648 55.8251 134.177C54.6904 133.706 53.6597 133.016 52.7916 132.147M52.7916 132.147L17.8564 97.212C17.8561 97.2117 17.8567 97.2123 17.8564 97.212C16.9866 96.3437 16.2956 95.3115 15.8246 94.1763C15.3536 93.0406 15.1111 91.8232 15.1111 90.5938C15.1111 89.3643 15.3536 88.1469 15.8246 87.0112C16.2955 85.8761 16.9855 84.845 17.8552 83.9768C17.8547 83.9772 17.8556 83.9764 17.8552 83.9768L22.7916 79.0403C24.012 77.8199 25.9907 77.8199 27.2111 79.0403" fill="#F5B6CD"/>
<path fill-rule="evenodd" clip-rule="evenodd" d="M77.6044 38.3469C74.7137 37.9289 71.747 38.9078 69.618 40.9894C68.384 42.196 66.4055 42.1738 65.1989 40.9398C63.9923 39.7058 64.0145 37.7272 65.2485 36.5206C68.7434 33.1035 73.6495 31.4573 78.5072 32.1624L78.518 32.164L110.456 36.914C111.816 37.1164 112.884 38.1847 113.087 39.5453L117.838 71.4936C118.539 76.3198 116.983 81.25 113.455 84.7772L96.7055 101.527L96.7003 101.532C95.4795 102.748 93.5047 102.746 92.2861 101.527C91.0659 100.307 91.0657 98.3289 92.2855 97.1084L61.6008 127.731L66.0157 132.155L96.7003 101.532L96.7055 101.527L92.2855 97.1084L109.036 80.3578C111.133 78.2613 112.077 75.3188 111.654 72.3967L107.245 42.7554L77.6044 38.3469Z" fill="#00C389"/>
<path d="M96.7003 101.532L96.7055 101.527L92.2855 97.1084C91.0657 98.3289 91.0659 100.307 92.2861 101.527C93.5047 102.746 95.4795 102.748 96.7003 101.532Z" fill="#00C389"/>
<path fill-rule="evenodd" clip-rule="evenodd" d="M124.085 25.9153C125.305 27.1357 125.305 29.1143 124.085 30.3347L92.8347 61.5847C91.6143 62.8051 89.6357 62.8051 88.4153 61.5847C87.1949 60.3643 87.1949 58.3857 88.4153 57.1653L119.665 25.9153C120.886 24.6949 122.864 24.6949 124.085 25.9153Z" fill="#9063CD"/>
</svg>
