<svg xmlns="http://www.w3.org/2000/svg"  viewBox="0 0 351 188">
    <defs>
        <linearGradient id="a" x1="29.342%" x2="136.14%" y1="5.912%" y2="119.179%">
            <stop offset="0%" stop-color="#E4ECF3"/>
            <stop offset="100%" stop-color="#C4D4E3"/>
        </linearGradient>
        <linearGradient id="b" x1="5.507%" y1="2.401%" y2="100%">
            <stop offset="0%" stop-color="#E4ECF3"/>
            <stop offset="100%" stop-color="#C4D4E3"/>
        </linearGradient>
        <linearGradient id="c" x1="0%" y1="-12.931%" y2="100%">
            <stop offset="0%" stop-color="#E4ECF3"/>
            <stop offset="100%" stop-color="#C4D4E3"/>
        </linearGradient>
        <linearGradient id="d" x1="10.389%" y1="5.638%" y2="100%">
            <stop offset="0%" stop-color="#E4ECF3"/>
            <stop offset="100%" stop-color="#C4D4E3"/>
        </linearGradient>
    </defs>
    <g fill="none" fill-rule="nonzero">
        <path fill="#F0F4F9" d="M35.041 117.143c10.174-5.593 54.964-9.7 134.37-12.322 74.31 0 120.939 3.105 139.887 9.315 23.241 11.135 47.636 61.16 40.41 65.747-7.227 4.586-85.229 8.51-171.115 8.086-85.886-.425-169.15-3.249-177.12-9.777-7.972-6.528 18.307-52.66 33.568-61.05z"/>
        <path fill="url(#a)" d="M260.914 143.45C233.262 122.46 119.28 117.793 40.2 115.526c9.053-11.895 236.364-11.75 264.589-2.99 23.079 10.473 47.304 57.518 40.128 61.832-4.208 2.528-45.282 7.861-84.003 3.966-26.178-2.634 27.653-13.896 0-34.886z" opacity=".569" transform="translate(0 1)"/>
        <path fill="#F6F8FA" d="M51.565 3.206H301.8v105.866H51.565z"/>
        <path fill="url(#b)" d="M241.23 107.52V10.744H10.945v96.776h-7.98V1.654H253.2V107.52h-11.97z" transform="translate(48.6 1)"/>
        <path stroke-width="1.3" stroke="#6680AD" d="M48.6 106.866V1h250.235v105.866"/>
        <path stroke-width="1.3" stroke="#6680AD" d="M57.495 105.212V10.374h231.26v94.838"/>
        <g>
            <path fill="url(#c)" d="M0 1.181h228.455v15.945H0z" transform="translate(59.534 35.252)"/>
            <path stroke-width="1.3" stroke="#6680AD" d="M59.534 35.252c0 .788 75.94.788 227.822 0M59.534 52.378c0 .788 75.94.788 227.822 0"/>
        </g>
        <path stroke-width="" stroke="#6680AD" d="M22.2 112.714c48.584-8.095 98.725-12.143 150.423-12.143 51.698 0 99.557 4.048 143.577 12.143"/>
 1.5       <g transform="rotate(-14 197.955 -10.342)">
            <path fill="#FFF" d="M2.486 3.687c7.129-4.35 3.8 5.2 58.655 6.697 44.992 3.223 53.138-11.12 58.655-6.697 5.516 4.423-14.114 15.173-12.457 44.725 0 22.363 18 40.72 12.457 44.725-6.91 5.004-12.758-9.5-58.655-6.78-43.227-1.716-54.45 12.279-58.655 6.78-4.205-5.5 5.906-4.935 7.685-47.757C8.017 9.44-2.88 7.992 2.486 3.687z"/>
            <path fill="#F6F8FA" d="M4.52 5.723c7.13-4.301 3.8 5.141 58.655 6.622 44.992 3.188 53.139-10.995 58.655-6.622 5.517 4.374-14.114 15.003-12.457 44.226 0 22.114 18 40.266 12.457 44.227-6.91 4.948-12.757-9.394-58.655-6.705-43.227-1.697-54.45 12.142-58.655 6.705-4.205-5.438 5.906-4.88 7.685-47.224C10.05 11.412-.845 9.98 4.52 5.723z"/>
            <path fill="url(#d)" d="M76.59 69.648c13.97-10.376 14.763-25.502 21.204-38.83 7.98-16.51 12.548-33.877 24.135-30.36 5.516 4.423-14.114 15.173-12.457 44.725 0 22.363 18 40.72 12.457 44.725-6.911 5.004-12.758-9.5-58.655-6.78-10.284-.408-18.756.073-25.754.969 0-9.665 31.947-9.27 39.07-14.449z"/>
            <ellipse cx="59.13" cy="47.595" stroke-width="1.3" stroke="#FDC130" rx="3.087" ry="3.109"/>
            <path stroke-width="1.3" stroke="#6680AD" d="M2.046 2.903a4.222 4.222 0 0 0-.73.73c-.511.69-.429 1.377.462 3.402.012.026 1.278 2.805 1.73 3.864a65.021 65.021 0 0 1 2.202 5.93c2.23 7.015 3.77 15.676 4.442 26.887v.102C9.573 57.82 8.088 68.204 5.9 76.15c-1.01 3.67-1.773 5.71-3.37 9.48-.99 2.334-1.194 3.075-1.025 3.85.091.422.325.877.76 1.445.782 1.024 1.94 1.16 4.59.472.903-.235 8.753-2.764 12.037-3.65 11.643-3.138 24.577-4.656 41.174-3.992 18.552-1.1 31.733.398 42.739 3.79 2.808.866 9.361 3.31 9.863 3.47 2.403.761 3.75.776 5.073.004.15-.087.3-.186.453-.297.942-.68.881-2.31-.358-5.448-.798-2.023-5.298-11.284-5.663-12.078-4.497-9.772-6.85-17.876-6.848-26.332-.666-11.867 1.831-21.387 6.788-30.524 1.318-2.429 5.225-8.692 5.657-9.497 1.206-2.25 1.277-3.264.384-3.98-1.008-.809-2.161-.84-4.467-.123-.474.148-7.11 2.587-9.984 3.46C92.3 9.66 78.776 11.117 60.097 9.78c-17.828-.487-30.808-1.833-40.442-3.836-4.264-.886-6.992-1.666-10.784-2.936-2.867-.96-3.582-1.135-4.517-1.03-.658.075-1.354.348-2.308.925zM64.117 43.271c4.592-11.295 14.249-18.225 28.97-20.789M55.093 43.271C50.5 31.976 40.843 25.046 26.122 22.482M64.592 52.14c7.087 10.586 17.219 15.88 30.396 15.88M52.545 52.14C46.28 63.048 37.472 69.545 26.122 71.63"/>
        </g>
        <g transform="rotate(25 23.361 491.535)">
            <path fill="#FFF" d="M2.251 2.487c5.99-3.67 3.193 4.385 49.281 5.649 37.802 2.718 44.646-9.38 49.281-5.65 4.635 3.731-11.858 12.8-10.466 37.728 0 18.864 15.124 34.349 10.466 37.727-5.806 4.221-10.718-8.013-49.28-5.719-36.32-1.448-45.749 10.358-49.282 5.72-3.532-4.64 4.963-4.163 6.457-40.285C6.898 7.339-2.256 6.118 2.25 2.487z"/>
            <path fill="#F6F8FA" d="M4.794 5.56c5.99-3.67 3.192 4.385 49.281 5.649 37.802 2.719 44.646-9.38 49.28-5.65 4.636 3.731-11.857 12.8-10.465 37.728 0 18.864 15.123 34.349 10.466 37.727-5.806 4.221-10.719-8.013-49.281-5.719-36.318-1.447-45.748 10.358-49.28 5.72-3.534-4.64 4.961-4.163 6.455-40.285C9.44 10.412.286 9.19 4.794 5.56z"/>
            <path fill="url(#d)" d="M64.289 58.75c11.722-8.729 12.387-21.455 17.791-32.668C88.776 12.19 92.61-2.421 102.331.538c4.63 3.721-11.842 12.765-10.452 37.63 0 18.814 15.104 34.259 10.452 37.628-5.798 4.21-10.704-7.992-49.216-5.704-8.629-.343-15.738.061-21.61.815 0-8.132 26.806-7.798 32.784-12.156z"/>
            <ellipse cx="49.901" cy="40.238" stroke-width="1.3" stroke="#FDC130" rx="2.612" ry="2.631"/>
            <path stroke-width="1.3" stroke="#6680AD" d="M1.878 2.704c-.26.214-.448.406-.577.58-.386.524-.323 1.056.405 2.717.01.021 1.074 2.366 1.455 3.262a55.141 55.141 0 0 1 1.855 5.015c1.878 5.93 3.173 13.25 3.739 22.718v.101C8.268 48.92 7.019 57.691 5.177 64.405c-.85 3.104-1.494 4.83-2.838 8.017-.818 1.937-.985 2.544-.853 3.154.072.332.258.696.61 1.159.609.798 1.518.905 3.689.34.752-.197 7.347-2.33 10.111-3.078 9.798-2.652 20.681-3.935 34.627-3.374 15.606-.928 26.7.337 35.966 3.205 2.365.732 7.872 2.794 8.288 2.927 1.98.63 3.067.642 4.13.018.122-.071.244-.151.369-.242.71-.516.662-1.828-.355-4.414-.668-1.7-4.446-9.505-4.755-10.18-3.786-8.261-5.77-15.117-5.768-22.268-.56-10.04 1.545-18.099 5.722-25.83 1.11-2.054 4.393-7.337 4.753-8.01.982-1.84 1.036-2.622.363-3.164-.796-.641-1.713-.666-3.603-.076-.393.123-5.969 2.18-8.39 2.918-9.6 2.926-20.982 4.158-36.688 3.027-14.988-.41-25.903-1.546-34.008-3.238-3.59-.75-5.888-1.409-9.079-2.482-2.382-.8-2.974-.946-3.725-.86-.524.059-1.085.28-1.864.75zM53.855 36.838c3.84-9.616 11.914-15.516 24.222-17.699M46.386 36.482c-3.84-9.616-11.913-15.516-24.222-17.699M53.998 44.058c5.98 8.93 14.528 13.394 25.646 13.394M44.237 43.961c-5.293 9.103-12.734 14.524-22.322 16.264"/>
        </g>
    </g>
</svg>
